<svg width="220" height="214" viewBox="0 0 220 214" fill="none" xmlns="http://www.w3.org/2000/svg">
<rect x="1.01758" y="0.5" width="218.259" height="212.75" rx="17.5" fill="white" stroke="#DEDEDE"/>
<path d="M24.9023 22.4751H25.1836C26.6628 22.4751 28.0794 23.0636 29.4336 24.2407C30.2461 25.0532 30.7721 25.6938 31.0117 26.1626C32.4492 28.5793 33.168 31.3605 33.168 34.5063C33.168 37.9334 32.3034 40.6938 30.5742 42.7876C29.1159 44.3918 27.3815 45.1938 25.3711 45.1938H25.2305C23.4388 45.1938 21.7721 44.5897 20.2305 43.3813C19.3242 42.5168 18.8451 41.9959 18.793 41.8188C18.2409 41.0584 17.8242 40.3188 17.543 39.6001C16.8763 37.8813 16.543 36.0793 16.543 34.1938C16.543 30.8397 17.418 27.9543 19.168 25.5376C19.7513 24.8293 20.3034 24.2824 20.8242 23.897C22.1367 22.9491 23.4961 22.4751 24.9023 22.4751ZM21.4492 34.1938C21.4492 36.173 21.9023 37.7876 22.8086 39.0376C23.4753 39.8709 24.319 40.2876 25.3398 40.2876C26.7461 40.2876 27.6732 38.9803 28.1211 36.3657C28.2148 35.6991 28.2617 35.0793 28.2617 34.5063C28.2617 32.2668 27.7826 30.3188 26.8242 28.6626C26.2617 27.8084 25.6523 27.3813 24.9961 27.3813C23.7253 27.3813 22.694 28.5532 21.9023 30.897C21.6003 31.9803 21.4492 33.0793 21.4492 34.1938ZM37.3867 21.7407H37.5898C38.4232 21.7407 39.1471 22.147 39.7617 22.9595C40.0742 23.4595 40.2305 23.9386 40.2305 24.397V24.7095C40.2305 25.2824 40.0013 25.8553 39.543 26.4282C38.8971 27.1053 38.1836 27.4438 37.4023 27.4438H37.1992C36.6055 27.4438 36.0273 27.2095 35.4648 26.7407C34.8919 26.1574 34.6055 25.5376 34.6055 24.8813V24.5845C34.6055 23.9491 34.8659 23.3188 35.3867 22.6938C36.0013 22.0584 36.668 21.7407 37.3867 21.7407ZM37.6523 28.0688H37.8242C38.6992 28.0688 39.4128 28.5272 39.9648 29.4438C40.1211 29.7147 40.1992 30.1938 40.1992 30.8813C40.3763 37.673 40.4701 41.673 40.4805 42.8813C40.4805 43.548 40.1315 44.173 39.4336 44.7563C38.9753 45.048 38.5326 45.1938 38.1055 45.1938H37.9805C37.1784 45.1938 36.5013 44.8032 35.9492 44.022C35.6888 43.6991 35.5586 43.0688 35.5586 42.1313C35.3815 34.7043 35.293 30.7772 35.293 30.3501C35.293 29.7147 35.6159 29.1105 36.2617 28.5376C36.7409 28.2251 37.2044 28.0688 37.6523 28.0688ZM48.5117 27.5063L48.8242 27.4907C48.9805 27.4803 49.1367 27.4751 49.293 27.4751C50.9284 27.4751 52.8555 27.8241 55.0742 28.522C56.0742 29.0116 56.6003 29.7459 56.6523 30.7251V30.8501C56.6523 31.6834 56.2357 32.3813 55.4023 32.9438C55.0065 33.1313 54.6315 33.2355 54.2773 33.2563H54.2461C53.9336 33.2563 53.194 33.0845 52.0273 32.7407C50.9753 32.5011 50.043 32.3813 49.2305 32.3813C49.1055 32.3813 48.9857 32.3866 48.8711 32.397C48.0794 32.4386 47.5742 32.5897 47.3555 32.8501C47.8555 33.1834 49.3346 33.6991 51.793 34.397C55.0951 35.4386 56.7982 37.0636 56.9023 39.272V39.5532C56.9023 40.5116 56.569 41.5011 55.9023 42.522C54.6628 44.1678 52.7513 45.048 50.168 45.1626L49.8711 45.1782C49.6628 45.1886 49.4492 45.1938 49.2305 45.1938C47.6367 45.1938 45.8242 44.923 43.793 44.3813C43.3034 44.1626 42.9076 43.8188 42.6055 43.3501C42.3867 42.9543 42.2721 42.5741 42.2617 42.2095V42.0845C42.2617 41.3241 42.6107 40.6626 43.3086 40.1001C43.7253 39.8293 44.1628 39.6834 44.6211 39.6626H44.6523C44.8711 39.6626 45.4961 39.772 46.5273 39.9907C47.5273 40.1886 48.4544 40.2876 49.3086 40.2876C49.4961 40.2876 49.6784 40.2824 49.8555 40.272C50.8451 40.2303 51.5065 40.0532 51.8398 39.7407V39.7095C51.4336 39.4386 50.1263 38.9855 47.918 38.3501C44.3138 37.2876 42.4596 35.6001 42.3555 33.2876V32.9907C42.3555 31.8449 42.7773 30.7407 43.6211 29.6782C44.7982 28.3241 46.4284 27.6001 48.5117 27.5063ZM66.0742 27.4126H66.4648C69.7461 27.4126 72.2096 28.5584 73.8555 30.8501C74.7305 32.1834 75.168 33.7043 75.168 35.4126C75.168 36.7876 74.5273 37.6782 73.2461 38.0845C73.2461 38.147 70.1888 38.2616 64.0742 38.4282C64.3138 38.9386 64.7826 39.4282 65.4805 39.897C65.8971 40.147 66.3815 40.272 66.9336 40.272H67.2148C68.5794 40.272 69.668 39.9282 70.4805 39.2407C70.9076 39.0116 71.3034 38.897 71.668 38.897H71.8242C72.7305 38.897 73.4544 39.3813 73.9961 40.3501C74.1211 40.7043 74.1836 41.0116 74.1836 41.272V41.4282C74.1836 42.8136 72.9232 43.9178 70.4023 44.7407C69.3607 45.0428 68.2721 45.1938 67.1367 45.1938C64.8659 45.1938 62.9753 44.4595 61.4648 42.9907C60.7461 42.2824 60.2409 41.673 59.9492 41.1626C59.0013 39.6938 58.4232 38.0741 58.2148 36.3032C58.1836 35.9699 58.168 35.7043 58.168 35.5063V34.8813C58.168 33.1209 58.7357 31.5011 59.8711 30.022C61.3398 28.2824 63.4076 27.4126 66.0742 27.4126ZM63.4492 33.5376H63.4648C63.9544 33.5376 65.9701 33.4751 69.5117 33.3501V33.3032C68.8659 32.647 67.7826 32.3188 66.2617 32.3188C64.7826 32.3188 63.8607 32.6782 63.4961 33.397C63.4753 33.397 63.4596 33.4438 63.4492 33.5376ZM85.293 27.0688C87.0326 27.0688 88.8711 27.4386 90.8086 28.1782C91.7565 28.7095 92.2305 29.4699 92.2305 30.4595L92.2148 30.6938C92.6315 31.1313 92.8398 31.8501 92.8398 32.8501C92.8607 32.8501 92.8711 33.1886 92.8711 33.8657C92.8711 34.5324 92.8659 35.2095 92.8555 35.897C92.9388 39.8241 92.9805 42.048 92.9805 42.5688C92.9805 43.2876 92.6419 43.9282 91.9648 44.4907C91.5065 44.8032 91.0221 44.9595 90.5117 44.9595C89.8138 44.9595 89.194 44.673 88.6523 44.1001L88.6211 44.0845C87.1315 44.8241 85.7096 45.1938 84.3555 45.1938H83.9336C82.3086 45.1938 80.8034 44.673 79.418 43.6313C77.543 42.048 76.6055 39.8084 76.6055 36.9126C76.6055 33.5897 77.543 31.0116 79.418 29.1782C80.9805 27.772 82.9388 27.0688 85.293 27.0688ZM81.5117 36.8657C81.5117 38.522 81.9492 39.5741 82.8242 40.022C83.1784 40.1991 83.6107 40.2876 84.1211 40.2876H84.1523C85.194 40.2876 86.1055 39.9803 86.8867 39.3657C87.0534 39.1886 87.2253 38.8761 87.4023 38.4282C87.7565 37.3241 87.9336 36.3241 87.9336 35.4282C87.9336 35.0011 87.9232 33.9803 87.9023 32.3657C86.944 32.1053 86.0638 31.9751 85.2617 31.9751C83.6471 31.9751 82.5846 32.5636 82.0742 33.7407C81.6992 34.6678 81.5117 35.7095 81.5117 36.8657ZM97.668 27.9282C98.5221 27.9282 99.2253 28.3449 99.7773 29.1782C99.9961 29.5949 100.105 29.9803 100.105 30.3345C100.043 31.2928 100.012 32.1105 100.012 32.7876C100.012 36.048 100.465 38.3657 101.371 39.7407C101.621 40.0845 101.934 40.2563 102.309 40.2563C102.892 40.2563 103.423 39.7876 103.902 38.8501C104.142 38.4438 104.413 37.7563 104.715 36.7876C105.007 35.9855 105.288 34.6001 105.559 32.6313C105.652 31.798 105.725 30.9647 105.777 30.1313C105.902 29.5376 106.116 29.0949 106.418 28.8032C106.939 28.2824 107.538 28.022 108.215 28.022C109.017 28.022 109.699 28.4074 110.262 29.1782C110.533 29.5011 110.668 30.1991 110.668 31.272C110.897 38.3761 111.012 42.2095 111.012 42.772C111.012 43.6261 110.6 44.3241 109.777 44.8657C109.382 45.0845 108.97 45.1938 108.543 45.1938C107.595 45.1938 106.845 44.6938 106.293 43.6938H106.262C105.095 44.6626 103.772 45.147 102.293 45.147C100.22 45.147 98.5273 44.2043 97.2148 42.3188C95.8086 40.1938 95.1055 37.0168 95.1055 32.7876C95.1055 30.9126 95.2044 29.7876 95.4023 29.4126C95.9232 28.423 96.6784 27.9282 97.668 27.9282ZM115.621 27.4751H115.762C116.72 27.4751 117.533 28.0688 118.199 29.2563C119.543 31.2668 120.246 32.3032 120.309 32.3657H120.34C122.236 30.1157 123.314 28.8553 123.574 28.5845C124.095 28.1991 124.605 28.0063 125.105 28.0063H125.23C126.074 28.0063 126.777 28.4334 127.34 29.2876C127.517 29.6834 127.605 30.0428 127.605 30.3657V30.5376C127.605 31.2251 127.251 31.923 126.543 32.6313C126.48 32.7251 125.361 34.0584 123.184 36.6313V36.6938C125.194 39.6626 126.267 41.2824 126.402 41.5532C126.517 41.8761 126.574 42.1626 126.574 42.4126V42.6157C126.574 43.522 126.095 44.2459 125.137 44.7876C124.783 44.9126 124.475 44.9751 124.215 44.9751H124.074C123.116 44.9751 122.329 44.4178 121.715 43.3032C120.569 41.6157 119.949 40.7095 119.855 40.5845L116.559 44.4438C116.027 44.9438 115.46 45.1938 114.855 45.1938H114.746C113.902 45.1938 113.199 44.7563 112.637 43.8813C112.449 43.4959 112.355 43.1366 112.355 42.8032V42.6782C112.355 42.0011 112.71 41.3032 113.418 40.5845C115.616 37.9699 116.814 36.5428 117.012 36.3032C114.793 32.9907 113.626 31.2355 113.512 31.0376C113.345 30.6938 113.262 30.3553 113.262 30.022V29.8345C113.262 28.9282 113.741 28.2095 114.699 27.6782C115.053 27.5428 115.361 27.4751 115.621 27.4751Z" fill="#9DD93A"/>
<g clip-path="url(#clip0_268_3475)">
<path d="M228.518 118.619C226.973 123.456 223.002 125.588 218.608 127.218C214.084 128.895 209.552 130.56 204.989 132.132C203.821 132.534 203.394 133.032 203.409 134.296C203.48 141.489 203.456 148.686 203.441 155.883C203.421 165.011 201.292 173.588 196.235 181.306C188.693 192.818 178.097 199.896 164.329 202.206C162.083 202.584 159.805 202.751 157.336 203.036C157.336 203.589 157.336 204.192 157.336 204.79C157.336 210.446 157.344 216.098 157.328 221.75C157.328 222.569 157.285 223.403 157.112 224.199C156.697 226.119 155.313 227.181 153.365 227.189C149.002 227.2 147.806 226.003 147.806 221.614C147.806 215.449 147.806 209.287 147.806 202.998H132.133C132.133 203.566 132.133 204.11 132.133 204.659C132.133 210.62 132.176 216.585 132.094 222.545C132.078 223.615 131.741 224.786 131.208 225.717C130.385 227.146 127.178 227.78 125.242 227.112C123.909 226.656 122.744 224.786 122.74 222.978C122.725 216.913 122.733 210.848 122.733 204.783C122.733 204.222 122.733 203.662 122.733 202.878H120.824C105.335 202.878 89.8426 202.878 74.3541 202.87C73.4721 202.87 72.5548 202.913 71.7119 202.712C69.0815 202.082 67.5801 199.115 68.5836 196.624C68.8502 195.963 69.2226 195.333 69.6068 194.723C92.1437 158.8 114.688 122.876 137.241 86.9565C142.749 78.1833 150.554 72.5431 160.852 70.4106C162.824 70.0011 164.855 69.8505 166.854 69.5762C167.583 69.5762 168.316 69.5762 169.045 69.5762C169.547 69.6728 170.049 69.7693 170.554 69.862C173.201 70.3527 175.956 70.5342 178.481 71.3841C192.449 76.0972 200.606 85.7666 203.053 100.087C203.229 101.119 203.605 101.567 204.542 101.895C209.188 103.537 213.817 105.225 218.443 106.917C222.892 108.544 226.914 110.669 228.522 115.532V118.615L228.518 118.619ZM81.4927 193.51C81.9827 193.549 82.1905 193.579 82.3943 193.579C107.373 193.579 132.353 193.614 157.332 193.549C163.632 193.533 169.629 191.976 175.047 188.774C187.564 181.376 193.852 170.393 193.903 156.026C193.962 139.221 193.934 122.416 193.895 105.612C193.891 103.568 193.793 101.482 193.378 99.4886C189.524 80.9686 167.03 72.8405 151.902 84.43C145.681 89.1971 143 96.4212 138.57 102.413C156.293 116.432 158.543 139.198 149.962 154.909C145.846 162.442 140.048 168.361 132.361 172.324C119.847 178.78 107.056 178.795 94.1783 173.29C89.9288 180.062 85.7774 186.68 81.4927 193.51ZM133.513 110.622C122.082 128.837 110.698 146.974 99.3058 165.127C112.427 171.189 130.467 167.526 139.985 153.248C149.605 138.815 145.658 120.164 133.517 110.622H133.513ZM203.531 111.422V122.772C208.502 120.944 213.319 119.171 218.137 117.398L218.145 116.811C213.323 115.034 208.505 113.257 203.527 111.422H203.531Z" fill="#9DD93A"/>
<path d="M177.547 107.319C174.305 108.639 171.915 102.069 174.456 98.821C176.16 96.6413 179.799 99.0201 179.799 102.314C179.799 104.256 178.617 106.883 177.547 107.319Z" fill="#9DD93A"/>
</g>
<defs>
<clipPath id="clip0_268_3475">
<rect width="150.786" height="143.456" fill="white" transform="translate(68.2622 69.5762)"/>
</clipPath>
</defs>
</svg>
