<svg width="24" height="29" viewBox="0 0 24 29" fill="none" xmlns="http://www.w3.org/2000/svg">
<path fill-rule="evenodd" clip-rule="evenodd" d="M8.19941 1.30731C6.69072 2.53485 6.15883 6.52924 7.23799 8.52955C8.39276 10.67 9.47511 10.8889 10.8721 9.26346C14.0399 5.57807 11.6601 -1.5065 8.19941 1.30731ZM15.3971 3.54306C13.659 5.56454 13.3005 9.06087 14.6621 10.7122C16.1353 12.4983 17.6432 12.1581 18.995 9.73488C21.3849 5.44844 18.3093 0.154553 15.3971 3.54306ZM1.31312 7.33406C0.0414977 8.90737 0.080207 11.4679 1.40564 13.488C2.70423 15.4665 5.10286 14.3047 5.57909 11.4659C6.26917 7.35235 3.48109 4.65158 1.31312 7.33406ZM19.9457 11.5312C18.1469 13.1566 17.8166 16.7178 19.3393 18.0698C21.6918 20.1586 24.8792 16.4222 23.7412 12.9092C23.0088 10.6494 21.5198 10.1088 19.9457 11.5312ZM8.45351 12.4979C5.90494 13.7123 2.75163 17.8918 2.28497 20.6736C2.08805 21.8474 2.32137 23.3766 2.82545 24.2164C3.62036 25.5404 4.02008 25.6744 6.6715 25.5016C8.9992 25.3501 10.211 25.6315 12.3528 26.821C14.2482 27.8734 15.4386 28.199 16.2692 27.8918C20.8736 26.1895 17.2495 13.0976 11.8188 11.8134C11.1093 11.6454 9.59458 11.9531 8.45351 12.4979Z" fill="white"/>
</svg>
