<svg width="220" height="214" viewBox="0 0 220 214" fill="none" xmlns="http://www.w3.org/2000/svg">
<rect x="0.758789" y="0.5" width="218.259" height="212.75" rx="17.5" fill="white" stroke="#DEDEDE"/>
<path d="M27.6572 26.0459C29.5322 26.0459 31.2562 26.7751 32.8291 28.2334C34.1729 29.5563 34.8447 30.6813 34.8447 31.6084C34.8447 32.4313 34.4645 33.1136 33.7041 33.6553C33.277 33.9157 32.8343 34.0459 32.376 34.0459C31.4176 34.0459 30.6416 33.5199 30.0479 32.4678C29.3083 31.4574 28.4958 30.9521 27.6104 30.9521C26.9645 30.9521 26.2354 31.1917 25.4229 31.6709C25.0062 32.0042 24.6885 32.3532 24.4697 32.7178C23.7406 33.9886 23.376 35.5199 23.376 37.3115C23.376 39.3949 23.8656 41.1136 24.8447 42.4678C25.1989 42.999 25.8499 43.3896 26.7979 43.6396C27.402 43.7959 27.9229 43.874 28.3604 43.874C29.2249 43.874 29.8135 43.5824 30.126 42.999C30.6572 42.3844 31.3031 42.0771 32.0635 42.0771C32.8864 42.0771 33.5687 42.4574 34.1104 43.2178C34.3708 43.6449 34.501 44.0876 34.501 44.5459C34.501 45.5563 33.7874 46.5824 32.3604 47.624C31.1729 48.3949 29.8447 48.7803 28.376 48.7803C26.6989 48.7803 25.0062 48.3584 23.2979 47.5146C21.5583 46.5251 20.2301 44.8167 19.3135 42.3896C18.751 40.7334 18.4697 39.0876 18.4697 37.4521V37.1553C18.4697 34.1761 19.2562 31.5876 20.8291 29.3896C21.7041 28.3688 22.3812 27.7438 22.8604 27.5146C24.4437 26.5355 26.0426 26.0459 27.6572 26.0459ZM39.1104 26.0303H39.2354C40.0791 26.0303 40.777 26.4574 41.3291 27.3115C41.5166 27.7074 41.6156 28.0459 41.626 28.3271C41.626 28.6813 41.652 29.9626 41.7041 32.1709H41.7197C42.6468 31.7021 43.5114 31.4678 44.3135 31.4678H45.001C46.1364 31.4678 47.3239 31.9313 48.5635 32.8584C51.2197 35.1709 52.5479 39.624 52.5479 46.2178C52.5479 47.3949 51.9645 48.2178 50.7979 48.6865C50.5479 48.749 50.3343 48.7803 50.1572 48.7803H50.001C49.1051 48.7803 48.3916 48.3115 47.8604 47.374C47.7145 47.0303 47.6416 46.7021 47.6416 46.3896C47.6416 42.2855 47.0947 39.2751 46.001 37.3584C45.6051 36.7021 45.1468 36.374 44.626 36.374H44.6104C44.1624 36.374 43.7926 36.6605 43.501 37.2334C43.2301 37.6917 43.001 38.2282 42.8135 38.8428C42.251 40.7699 41.9697 43.1396 41.9697 45.9521V46.2959C41.9697 47.2021 41.4906 47.9261 40.5322 48.4678C40.1781 48.5928 39.8708 48.6553 39.6104 48.6553H39.4541C38.6729 48.6553 38.0166 48.2855 37.4854 47.5459C37.2145 47.0876 37.0791 46.6657 37.0791 46.2803L36.7197 28.3271C36.7197 27.6709 37.0739 27.0459 37.7822 26.4521C38.2301 26.1709 38.6729 26.0303 39.1104 26.0303ZM62.8135 30.6553C64.5531 30.6553 66.3916 31.0251 68.3291 31.7646C69.277 32.2959 69.751 33.0563 69.751 34.0459L69.7354 34.2803C70.152 34.7178 70.3604 35.4365 70.3604 36.4365C70.3812 36.4365 70.3916 36.7751 70.3916 37.4521C70.3916 38.1188 70.3864 38.7959 70.376 39.4834C70.4593 43.4105 70.501 45.6344 70.501 46.1553C70.501 46.874 70.1624 47.5146 69.4854 48.0771C69.027 48.3896 68.5426 48.5459 68.0322 48.5459C67.3343 48.5459 66.7145 48.2594 66.1729 47.6865L66.1416 47.6709C64.652 48.4105 63.2301 48.7803 61.876 48.7803H61.4541C59.8291 48.7803 58.3239 48.2594 56.9385 47.2178C55.0635 45.6344 54.126 43.3949 54.126 40.499C54.126 37.1761 55.0635 34.598 56.9385 32.7646C58.501 31.3584 60.4593 30.6553 62.8135 30.6553ZM59.0322 40.4521C59.0322 42.1084 59.4697 43.1605 60.3447 43.6084C60.6989 43.7855 61.1312 43.874 61.6416 43.874H61.6729C62.7145 43.874 63.626 43.5667 64.4072 42.9521C64.5739 42.7751 64.7458 42.4626 64.9229 42.0146C65.277 40.9105 65.4541 39.9105 65.4541 39.0146C65.4541 38.5876 65.4437 37.5667 65.4229 35.9521C64.4645 35.6917 63.5843 35.5615 62.7822 35.5615C61.1676 35.5615 60.1051 36.1501 59.5947 37.3271C59.2197 38.2542 59.0322 39.2959 59.0322 40.4521ZM76.9541 28.0771H77.0791C77.9958 28.0771 78.7249 28.5667 79.2666 29.5459C79.4645 29.9834 79.5635 30.8949 79.5635 32.2803C79.5739 32.2803 79.5895 32.473 79.6104 32.8584L79.7822 32.874C81.7614 32.874 82.9072 32.9365 83.2197 33.0615C83.8551 33.3219 84.3187 33.723 84.6104 34.2646C84.7874 34.6292 84.876 34.9834 84.876 35.3271V35.4521C84.876 36.2959 84.4385 36.999 83.5635 37.5615C83.1572 37.749 82.8291 37.8428 82.5791 37.8428L79.6416 37.7803V39.3896C79.6416 39.9938 79.6364 40.7386 79.626 41.624C79.626 42.5511 79.7874 43.2386 80.1104 43.6865C80.2874 43.8115 80.527 43.874 80.8291 43.874C81.5687 43.874 82.6051 43.5615 83.9385 42.9365C84.1989 42.874 84.4124 42.8428 84.5791 42.8428H84.7822C85.6885 42.8428 86.4124 43.3219 86.9541 44.2803C87.0791 44.6344 87.1416 44.9417 87.1416 45.2021V45.3428C87.1416 46.1761 86.7145 46.8792 85.8604 47.4521C84.0687 48.3376 82.3812 48.7803 80.7979 48.7803C78.7354 48.7803 77.126 47.973 75.9697 46.3584C75.1364 45.0667 74.7197 43.5824 74.7197 41.9053C74.7301 40.5719 74.7354 39.473 74.7354 38.6084V37.6709H74.501C73.7406 37.6709 73.0843 37.3324 72.5322 36.6553C72.2197 36.2074 72.0635 35.749 72.0635 35.2803V35.124C72.0635 34.2178 72.5479 33.4938 73.5166 32.9521C73.8604 32.8271 74.1624 32.7646 74.4229 32.7646H74.6885L74.5635 30.4365C74.5635 29.7699 74.8968 29.1396 75.5635 28.5459C76.0426 28.2334 76.5062 28.0771 76.9541 28.0771ZM94.626 31.0928L94.9385 31.0771C95.0947 31.0667 95.251 31.0615 95.4072 31.0615C97.0426 31.0615 98.9697 31.4105 101.188 32.1084C102.188 32.598 102.715 33.3324 102.767 34.3115V34.4365C102.767 35.2699 102.35 35.9678 101.517 36.5303C101.121 36.7178 100.746 36.8219 100.392 36.8428H100.36C100.048 36.8428 99.3083 36.6709 98.1416 36.3271C97.0895 36.0876 96.1572 35.9678 95.3447 35.9678C95.2197 35.9678 95.0999 35.973 94.9854 35.9834C94.1937 36.0251 93.6885 36.1761 93.4697 36.4365C93.9697 36.7699 95.4489 37.2855 97.9072 37.9834C101.209 39.0251 102.912 40.6501 103.017 42.8584V43.1396C103.017 44.098 102.683 45.0876 102.017 46.1084C100.777 47.7542 98.8656 48.6344 96.2822 48.749L95.9854 48.7646C95.777 48.7751 95.5635 48.7803 95.3447 48.7803C93.751 48.7803 91.9385 48.5094 89.9072 47.9678C89.4176 47.749 89.0218 47.4053 88.7197 46.9365C88.501 46.5407 88.3864 46.1605 88.376 45.7959V45.6709C88.376 44.9105 88.7249 44.249 89.4229 43.6865C89.8395 43.4157 90.277 43.2699 90.7354 43.249H90.7666C90.9854 43.249 91.6104 43.3584 92.6416 43.5771C93.6416 43.7751 94.5687 43.874 95.4229 43.874C95.6104 43.874 95.7926 43.8688 95.9697 43.8584C96.9593 43.8167 97.6208 43.6396 97.9541 43.3271V43.2959C97.5479 43.0251 96.2406 42.5719 94.0322 41.9365C90.4281 40.874 88.5739 39.1865 88.4697 36.874V36.5771C88.4697 35.4313 88.8916 34.3271 89.7354 33.2646C90.9124 31.9105 92.5426 31.1865 94.626 31.0928Z" fill="#BE88FF"/>
<g clip-path="url(#clip0_268_9388)">
<path d="M140.342 217.336C137.922 216.984 135.498 216.68 133.088 216.276C105.437 211.621 85.454 197.079 73.8932 171.706C72.5652 168.791 71.3144 165.847 70.0734 162.894C68.7937 159.851 69.4939 157.493 72.2947 155.662C77.1673 152.481 82.0833 149.361 85.6955 144.692C85.8404 144.502 85.9949 144.321 86.1543 144.145C88.9793 141.002 89.9016 138.015 88.0569 133.569C83.9425 123.664 83.392 113.084 84.2033 102.461C84.7683 95.0383 86.2605 87.82 89.3753 80.9868C91.1669 77.0591 93.4558 73.4642 96.8072 70.6111C102.96 65.3804 110.691 65.4137 116.776 70.7537C121.609 74.9906 124.348 80.5113 126.183 86.4695C127.342 90.2451 128.114 94.1396 129.061 97.9723C141.655 94.1824 153.293 94.3441 165.211 97.9342C166.568 93.1125 167.727 88.2194 169.345 83.4785C170.968 78.7234 173.527 74.4247 177.366 70.9867C183.673 65.3376 191.54 65.2615 197.875 70.8441C202.458 74.8812 205.143 80.1071 206.901 85.7753C211.967 102.119 212.044 118.486 206.012 134.573C204.723 138.015 205.312 140.236 207.273 142.87C210.745 147.55 215.125 151.159 220.026 154.273C225.648 157.844 225.971 159.143 223.387 165.186C220.089 172.89 216.694 180.527 211.503 187.241C199.855 202.315 184.479 211.544 165.767 215.491C162.314 216.219 158.76 216.495 155.254 216.994C154.853 217.051 154.471 217.217 154.085 217.332H140.351L140.342 217.336ZM141.79 105.894C137.864 106.964 134.296 107.963 130.712 108.9C129.698 109.166 129.462 109.713 129.471 110.688C129.524 114.782 129.505 118.871 129.486 122.965C129.486 123.607 129.447 124.278 129.264 124.886C128.467 127.502 126.028 129.023 123.29 128.681C120.663 128.353 118.693 126.123 118.664 123.374C118.635 120.811 118.659 118.248 118.659 115.4C117.862 115.994 117.374 116.327 116.916 116.703C110.222 122.152 105.355 128.881 102.404 136.922C99.2218 145.6 94.1126 152.923 86.8352 158.748C85.2126 160.046 83.4886 161.216 81.866 162.4C81.866 162.566 81.8467 162.633 81.866 162.685C82.5711 164.321 83.2665 165.957 83.986 167.583C91.0558 183.56 102.723 194.973 119.156 201.459C133.03 206.937 147.411 207.969 162.034 205.23C180.819 201.711 195.731 192.31 205.858 176.161C208.572 171.829 210.586 167.069 212.918 162.509C202.506 155.961 195.722 147.202 191.713 136.228C188.816 128.296 183.813 121.772 177.192 116.446C176.806 116.137 176.362 115.899 175.768 115.519C175.768 118.21 175.777 120.635 175.768 123.06C175.748 126.38 173.527 128.695 170.374 128.705C167.211 128.714 164.946 126.403 164.931 123.113C164.917 118.962 164.946 114.81 164.902 110.659C164.897 110.15 164.68 109.328 164.337 109.19C160.624 107.716 156.775 106.717 152.825 106.346C152.723 106.536 152.675 106.589 152.675 106.646C152.661 109.313 152.661 111.981 152.636 114.653C152.607 117.839 150.367 120.141 147.291 120.169C144.118 120.198 141.824 117.892 141.8 114.62C141.781 111.9 141.8 109.18 141.8 105.899L141.79 105.894ZM198.238 123.988C198.648 120.298 199.092 117.036 199.363 113.755C200.077 105.157 199.213 96.6931 196.262 88.5666C195.147 85.4995 193.457 82.5323 191.52 79.8789C189.178 76.6644 186.541 76.731 183.934 79.7315C182.698 81.1533 181.654 82.7938 180.785 84.4629C177.979 89.86 176.869 95.7373 176.217 101.696C176.159 102.228 176.787 103.06 177.328 103.388C182.852 106.75 187.821 110.754 191.94 115.7C194.031 118.21 195.895 120.897 198.233 123.983L198.238 123.988ZM96.2954 123.712C96.6382 123.531 96.7155 123.517 96.7396 123.474C102.018 115.058 108.87 108.205 117.539 103.136C117.925 102.908 118.277 102.176 118.224 101.724C117.534 95.7659 116.409 89.8932 113.608 84.4961C112.661 82.6702 111.488 80.8917 110.107 79.3653C107.827 76.8451 105.625 76.8166 103.389 79.3463C101.873 81.0629 100.492 83.0268 99.5743 85.1048C94.0788 97.5395 93.9098 110.445 96.3002 123.712H96.2954Z" fill="#BE88FF"/>
<path d="M152.632 187.588C152.632 189.024 152.665 190.446 152.627 191.863C152.545 194.845 150.169 197.075 147.141 197.046C144.214 197.018 141.631 194.768 141.872 191.901C142.128 188.858 141.307 187.032 138.386 185.567C135.184 183.96 133.088 180.993 131.601 177.726C128.665 171.283 130.519 164.859 136.454 160.916C142.872 156.651 152.453 156.87 158.687 161.421C163.753 165.115 165.511 170.907 163.256 176.708C161.29 181.768 157.668 185.32 152.636 187.588H152.632ZM146.658 168.501C145.716 168.796 144.292 169.076 143.017 169.671C141.013 170.608 140.641 171.796 141.756 173.66C142.413 174.759 143.273 175.805 144.253 176.628C146.02 178.111 147.885 178.192 149.72 176.97C151.613 175.705 153.433 173.988 153.187 171.715C152.95 169.495 150.516 169.143 148.57 168.715C148.107 168.61 147.619 168.601 146.658 168.496V168.501Z" fill="#BE88FF"/>
<path d="M124.425 144.991C124.425 143.627 124.391 142.262 124.43 140.902C124.517 137.944 126.984 135.576 129.891 135.624C132.74 135.667 135.189 137.982 135.261 140.831C135.329 143.617 135.324 146.404 135.261 149.19C135.198 152.2 132.818 154.407 129.78 154.392C126.82 154.373 124.536 152.205 124.434 149.266C124.386 147.845 124.425 146.418 124.425 144.996V144.991Z" fill="#BE88FF"/>
<path d="M169.997 145.163C169.997 146.527 170.036 147.892 169.987 149.252C169.881 152.196 167.602 154.364 164.642 154.383C161.609 154.402 159.223 152.186 159.161 149.186C159.103 146.399 159.098 143.608 159.161 140.826C159.228 137.987 161.686 135.657 164.53 135.614C167.433 135.572 169.905 137.935 169.992 140.893C170.036 142.314 170.002 143.741 169.997 145.163Z" fill="#BE88FF"/>
</g>
<defs>
<clipPath id="clip0_268_9388">
<rect width="150.058" height="145.608" fill="white" transform="translate(69.46 66.7073)"/>
</clipPath>
</defs>
</svg>
