<svg width="486" height="447" viewBox="0 0 486 447" fill="none" xmlns="http://www.w3.org/2000/svg">
<rect width="361" height="6" rx="3" transform="matrix(-1 0 0 1 486 415)" fill="#272626"/>
<rect width="87" height="6" rx="3" transform="matrix(-1 0 0 1 87 415)" fill="#272626"/>
<path d="M110.823 439.346H98.248V161.621H100.532C130.873 161.621 161.22 161.621 191.562 161.621C195.458 161.621 196.309 160.733 196.309 156.688C196.309 154.978 196.346 153.268 196.298 151.558C196.235 149.47 194.939 148.171 193.063 148.226C191.255 148.281 190.082 149.519 190.002 151.536C189.96 152.621 189.997 153.707 189.997 154.934H133.088C133.056 154.326 132.998 153.729 132.998 153.137C132.998 133.098 132.966 113.065 132.998 93.0267C133.03 75.5807 146.213 62.4812 163.017 63.2101C168.409 63.4458 173.32 65.2765 177.797 68.4226C179.806 69.8367 181.471 69.5626 182.607 67.7977C183.707 66.0986 183.316 64.4434 181.434 63.0841C175.825 59.0336 169.577 56.7042 162.758 56.6658C140.198 56.5398 117.637 56.5946 95.0817 56.6001C92.8615 56.6001 91.5823 57.8443 91.5823 59.8613C91.5823 61.9385 92.8932 63.1334 95.2719 63.1334C109.782 63.1444 124.297 63.1334 138.807 63.1334C139.495 63.1334 140.187 63.1334 140.874 63.1334L140.108 62.5908C138.522 64.679 137.005 66.8221 135.345 68.8391C129.578 75.8219 126.655 83.8844 126.655 93.076C126.655 112.84 126.655 132.605 126.655 152.364V154.929H25.3276C25.3276 154.162 25.3276 153.427 25.3276 152.698C25.3276 133.005 25.3223 113.306 25.3276 93.6132C25.3329 75.9151 37.5435 63.1882 54.5697 63.1389C62.6732 63.1115 70.7819 63.1389 79.0334 63.1389C79.0809 63.835 79.1497 64.4269 79.1497 65.0134C79.1549 72.6703 79.1179 80.3327 79.1866 87.9897C79.1972 89.3709 78.8008 89.9628 77.5533 90.4945C71.4268 93.0925 68.3345 99.8725 70.2005 106.296C72.003 112.479 78.1559 116.568 84.1238 115.537C90.726 114.397 95.3618 108.642 94.9442 101.796C94.6218 96.4907 91.9523 92.6704 87.2478 90.5767C85.8734 89.9628 85.4453 89.2996 85.4506 87.765C85.5034 65.8136 85.4876 43.8623 85.4876 21.9109C85.4876 18.14 84.5731 17.1973 80.9363 17.1973C72.2303 17.1973 63.5242 17.1973 54.8129 17.1973C51.71 17.1973 50.6634 18.2825 50.6581 21.4998C50.6475 27.4467 50.6423 33.3991 50.6581 39.3459C50.6634 42.2947 51.7734 43.4402 54.612 43.4512C59.4276 43.4676 64.2431 43.4676 69.0587 43.4512C71.4797 43.4402 72.78 42.3002 72.8117 40.2338C72.8487 38.0963 71.5061 36.9069 68.9741 36.8959C65.0836 36.8795 61.1931 36.8959 57.1493 36.8959V23.895H79.0492V56.5836C78.3885 56.5836 77.696 56.5836 77.0035 56.5836C69.4816 56.5836 61.9649 56.5617 54.4429 56.5836C34.2398 56.6494 19.0161 72.4346 19.0002 93.3336C18.9844 114.534 19.0002 135.735 19.0002 156.93C19.0002 160.668 19.9253 161.61 23.5885 161.61C45.4884 161.61 67.3883 161.61 89.2882 161.61C90.0652 161.61 90.8423 161.61 91.8308 161.61V163.978C91.8308 179.16 91.8308 426.197 91.8308 441.38C91.8308 445.008 92.7875 446 96.2816 446C101.89 446 107.493 446.011 113.102 446C116.083 445.995 117.156 444.882 117.156 441.796C117.167 429.283 117.156 184.91 117.156 172.397C117.156 172.331 117.156 172.26 117.156 172.194C117.124 169.569 115.998 168.171 113.947 168.204C111.896 168.237 110.845 169.607 110.829 172.298C110.813 174.282 110.829 176.266 110.829 178.245C110.829 187.201 110.829 428.017 110.829 436.973V439.335L110.823 439.346ZM82.3107 95.9864C85.773 95.97 88.601 98.8311 88.6592 102.416C88.7173 106.088 85.8946 109.091 82.3635 109.102C78.8325 109.119 75.9728 106.132 76.0045 102.47C76.0362 98.9078 78.8642 96.0029 82.3107 95.9864Z" fill="#272626"/>
<path d="M115.054 3.92731C116.572 4.48243 117.69 1.71929 116.501 0.353437C115.703 -0.563274 114 0.437197 114 1.82229C114 2.63926 114.553 3.74408 115.054 3.92731Z" fill="#9DD93A"/>
<path d="M197.175 82.6515C186.09 92.3748 175.439 101.72 164.677 111.158C162.071 108.884 159.56 106.691 157.049 104.493C152.968 100.92 148.909 97.3132 144.807 93.7724C142.883 92.1117 140.689 92.5118 139.674 94.6165C138.855 96.3156 139.457 97.642 140.742 98.7711C143.961 101.599 147.185 104.427 150.399 107.261C150.949 107.743 151.483 108.237 152.223 108.905C150.098 110.791 148.068 112.594 146.028 114.392C144.32 115.899 142.587 117.374 140.9 118.903C139.087 120.542 138.823 122.306 140.092 123.874C141.355 125.436 143.147 125.485 144.96 123.912C148.998 120.41 153.011 116.869 157.176 113.224C158.841 114.677 160.432 116.091 162.044 117.472C164.085 119.221 165.258 119.221 167.283 117.472C168.853 116.118 170.407 114.748 172.156 113.224C180.36 120.426 188.543 127.601 197.175 135.176H194.654C177.569 135.176 160.485 135.176 143.395 135.176C142.735 135.176 142.069 135.132 141.418 135.214C139.774 135.422 138.67 136.732 138.654 138.415C138.638 140.081 139.732 141.43 141.355 141.687C141.741 141.748 142.143 141.737 142.539 141.737C161.669 141.737 180.799 141.753 199.929 141.726C204.343 141.72 207.795 139.029 208.746 134.962C208.947 134.113 208.989 133.203 208.989 132.326C209 116.732 209 101.139 208.995 85.5455C208.995 79.8343 205.379 76.1017 199.786 76.0908C182.834 76.0689 165.877 76.0798 148.924 76.0908C146.366 76.0908 144.997 77.2418 144.981 79.341C144.965 81.4457 146.345 82.646 148.877 82.6515C164.249 82.6625 179.615 82.6515 194.987 82.6515C195.51 82.6515 196.039 82.6515 197.17 82.6515H197.175ZM202.562 131.301C193.945 123.742 185.583 116.409 177.046 108.922C185.599 101.424 193.961 94.0849 202.562 86.543V131.301V131.301Z" fill="#FFBC10"/>
<path fill-rule="evenodd" clip-rule="evenodd" d="M157.258 119.255C158.108 119.848 158.407 121.777 157.8 122.743C157.15 123.777 156.54 123.882 155.754 123.097C153.971 121.318 155.31 117.896 157.258 119.255ZM153.207 120.335C154.185 121.311 154.387 123 153.621 123.797C152.791 124.66 151.942 124.495 151.182 123.325C149.836 121.255 151.568 118.698 153.207 120.335ZM161.135 122.166C161.85 122.925 161.829 124.162 161.083 125.138C160.352 126.093 159.001 125.532 158.733 124.161C158.345 122.174 159.914 120.87 161.135 122.166ZM150.646 124.193C151.659 124.978 151.845 126.697 150.988 127.35C149.664 128.359 147.869 126.555 148.51 124.858C148.922 123.767 149.76 123.506 150.646 124.193ZM157.115 124.659C158.55 125.246 160.325 127.264 160.588 128.608C160.698 129.175 160.567 129.913 160.283 130.319C159.836 130.958 159.611 131.023 158.118 130.939C156.808 130.866 156.126 131.002 154.92 131.577C153.854 132.085 153.183 132.242 152.716 132.094C150.124 131.272 152.164 124.949 155.221 124.329C155.62 124.248 156.473 124.396 157.115 124.659Z" fill="#E2168C"/>
</svg>
