<svg width="220" height="214" viewBox="0 0 220 214" fill="none" xmlns="http://www.w3.org/2000/svg">
<g filter="url(#filter0_d_268_9368)">
<rect width="219.259" height="213.75" rx="18" fill="white"/>
<rect x="0.5" y="0.5" width="218.259" height="212.75" rx="17.5" stroke="#DEDEDE"/>
</g>
<g clip-path="url(#clip0_268_9368)">
<path d="M204.763 154.621C204.982 160.92 205.621 166.933 205.319 172.9C204.411 190.747 195.414 203.279 178.727 210.338C170.879 213.656 162.577 215.083 154.085 215.661C145.17 216.27 136.26 216.29 127.386 215.229C114.932 213.736 103.203 210.353 93.7367 201.661C86.241 194.784 82.34 186.127 81.135 176.218C80.3231 169.512 80.6244 162.831 81.8549 156.19C81.9009 155.954 81.86 155.697 81.86 155.315C80.5529 155.029 79.2661 154.787 77.9998 154.471C67.4609 151.841 56.8199 140.932 61.446 126.097C66.4295 110.121 76.3404 97.3416 90.8824 88.5641C98.3832 84.0346 106.594 83.4515 114.718 87.7346C115.187 87.981 116.096 87.8854 116.566 87.5888C126.63 81.2345 137.715 79.7716 149.352 80.8273C156.5 81.4758 163.148 83.5671 169.26 87.3023C169.694 87.5687 170.532 87.6592 170.951 87.4229C180.106 82.3204 188.909 83.924 197.282 89.0769C206.167 94.5465 212.427 102.575 218.044 111.096C221.526 116.375 224.161 122.01 225.325 128.294C227.643 140.817 218.524 151.364 208.051 153.887C206.826 154.184 205.59 154.435 204.763 154.616V154.621ZM148.872 204.546C159.712 204.094 170.047 202.742 179.355 197.287C186.887 192.873 191.456 186.318 193.121 177.882C194.699 169.879 194.587 161.78 192.008 154.088C187.632 141.043 182.812 128.138 177.767 115.329C176.184 111.312 173.59 107.572 170.92 104.108C164.752 96.115 156.184 92.4853 146.145 91.9575C134.315 91.3341 123.628 93.9482 115.917 103.465C112.782 107.336 109.984 111.694 108.054 116.249C103.888 126.107 100.369 136.232 96.6063 146.256C93.2159 155.295 91.4747 164.57 92.5521 174.242C93.4508 182.336 96.494 189.394 103.081 194.592C113.053 202.46 124.976 203.893 137.21 204.576C137.271 204.139 137.332 203.898 137.332 203.662C137.337 196.262 137.373 188.862 137.281 181.461C137.271 180.818 136.571 179.928 135.949 179.581C131.435 177.058 127.958 173.604 125.767 168.959C121.922 160.81 125.976 152.279 134.835 150.187C140.278 148.9 145.849 148.895 151.297 150.162C160.269 152.254 164.359 160.79 160.478 169.029C158.522 173.182 155.561 176.58 151.512 178.757C149.321 179.938 148.765 181.275 148.821 183.583C148.984 190.465 148.877 197.357 148.877 204.546H148.872ZM179.498 96.0999C179.804 96.5825 179.968 96.9092 180.193 97.1857C183.997 101.861 187.065 106.994 189.261 112.549C193.101 122.261 196.685 132.074 200.331 141.867C200.719 142.918 201.081 143.531 202.404 143.421C210.14 142.757 216.175 136.332 213.499 128.374C209.307 115.912 201.485 106.024 190.685 98.4375C187.499 96.2004 183.762 95.3709 179.503 96.0999H179.498ZM106.635 96.4518C104.924 96.4518 103.586 96.1552 102.463 96.5121C99.7159 97.3868 96.6472 98.0404 94.4669 99.7345C90.5046 102.806 86.818 106.335 83.5144 110.101C78.6432 115.661 74.6554 121.809 72.5261 129.003C69.9272 137.775 77.3361 144.401 85.1585 143.893C85.3475 143.401 85.5466 142.883 85.7406 142.36C88.7073 134.256 91.5922 126.117 94.6609 118.049C97.5407 110.478 101.115 103.238 106.64 96.4518H106.635ZM143.23 160.563C141.443 160.744 139.661 160.855 137.909 161.121C136.801 161.287 135.821 161.73 135.979 163.183C136.245 165.626 140.529 169.879 142.964 170.025C143.388 170.05 143.858 169.924 144.246 169.748C146.886 168.547 148.867 166.672 150.031 164.037C150.751 162.403 150.297 161.488 148.535 161.167C146.794 160.85 145.007 160.76 143.235 160.568L143.23 160.563Z" fill="#88E1DB"/>
<path d="M121.539 128.412C121.539 126.906 121.501 125.4 121.544 123.9C121.64 120.636 124.368 118.024 127.581 118.076C130.73 118.123 133.436 120.678 133.516 123.821C133.591 126.896 133.586 129.97 133.516 133.045C133.447 136.366 130.815 138.801 127.458 138.785C124.186 138.764 121.661 136.371 121.549 133.129C121.496 131.56 121.539 129.986 121.539 128.417V128.412Z" fill="#88E1DB"/>
<path d="M165.531 128.606C165.531 130.112 165.574 131.618 165.52 133.118C165.403 136.366 162.884 138.758 159.612 138.779C156.26 138.8 153.623 136.355 153.553 133.045C153.489 129.97 153.484 126.89 153.553 123.821C153.628 120.689 156.345 118.118 159.489 118.07C162.697 118.023 165.43 120.631 165.526 123.894C165.574 125.463 165.536 127.037 165.531 128.606Z" fill="#88E1DB"/>
</g>
<path d="M26.6699 26.0459C28.5449 26.0459 30.2689 26.7751 31.8418 28.2334C33.1855 29.5563 33.8574 30.6813 33.8574 31.6084C33.8574 32.4313 33.4772 33.1136 32.7168 33.6553C32.2897 33.9157 31.847 34.0459 31.3887 34.0459C30.4303 34.0459 29.6543 33.5199 29.0605 32.4678C28.321 31.4574 27.5085 30.9521 26.623 30.9521C25.9772 30.9521 25.248 31.1917 24.4355 31.6709C24.0189 32.0042 23.7012 32.3532 23.4824 32.7178C22.7533 33.9886 22.3887 35.5199 22.3887 37.3115C22.3887 39.3949 22.8783 41.1136 23.8574 42.4678C24.2116 42.999 24.8626 43.3896 25.8105 43.6396C26.4147 43.7959 26.9355 43.874 27.373 43.874C28.2376 43.874 28.8262 43.5824 29.1387 42.999C29.6699 42.3844 30.3158 42.0771 31.0762 42.0771C31.8991 42.0771 32.5814 42.4574 33.123 43.2178C33.3835 43.6449 33.5137 44.0876 33.5137 44.5459C33.5137 45.5563 32.8001 46.5824 31.373 47.624C30.1855 48.3949 28.8574 48.7803 27.3887 48.7803C25.7116 48.7803 24.0189 48.3584 22.3105 47.5146C20.571 46.5251 19.2428 44.8167 18.3262 42.3896C17.7637 40.7334 17.4824 39.0876 17.4824 37.4521V37.1553C17.4824 34.1761 18.2689 31.5876 19.8418 29.3896C20.7168 28.3688 21.3939 27.7438 21.873 27.5146C23.4564 26.5355 25.0553 26.0459 26.6699 26.0459ZM38.123 26.0303H38.248C39.0918 26.0303 39.7897 26.4574 40.3418 27.3115C40.5293 27.7074 40.6283 28.0459 40.6387 28.3271C40.6387 28.6813 40.6647 29.9626 40.7168 32.1709H40.7324C41.6595 31.7021 42.5241 31.4678 43.3262 31.4678H44.0137C45.1491 31.4678 46.3366 31.9313 47.5762 32.8584C50.2324 35.1709 51.5605 39.624 51.5605 46.2178C51.5605 47.3949 50.9772 48.2178 49.8105 48.6865C49.5605 48.749 49.347 48.7803 49.1699 48.7803H49.0137C48.1178 48.7803 47.4043 48.3115 46.873 47.374C46.7272 47.0303 46.6543 46.7021 46.6543 46.3896C46.6543 42.2855 46.1074 39.2751 45.0137 37.3584C44.6178 36.7021 44.1595 36.374 43.6387 36.374H43.623C43.1751 36.374 42.8053 36.6605 42.5137 37.2334C42.2428 37.6917 42.0137 38.2282 41.8262 38.8428C41.2637 40.7699 40.9824 43.1396 40.9824 45.9521V46.2959C40.9824 47.2021 40.5033 47.9261 39.5449 48.4678C39.1908 48.5928 38.8835 48.6553 38.623 48.6553H38.4668C37.6855 48.6553 37.0293 48.2855 36.498 47.5459C36.2272 47.0876 36.0918 46.6657 36.0918 46.2803L35.7324 28.3271C35.7324 27.6709 36.0866 27.0459 36.7949 26.4521C37.2428 26.1709 37.6855 26.0303 38.123 26.0303ZM55.5137 25.3271H55.7168C56.5501 25.3271 57.2741 25.7334 57.8887 26.5459C58.2012 27.0459 58.3574 27.5251 58.3574 27.9834V28.2959C58.3574 28.8688 58.1283 29.4417 57.6699 30.0146C57.0241 30.6917 56.3105 31.0303 55.5293 31.0303H55.3262C54.7324 31.0303 54.1543 30.7959 53.5918 30.3271C53.0189 29.7438 52.7324 29.124 52.7324 28.4678V28.1709C52.7324 27.5355 52.9928 26.9053 53.5137 26.2803C54.1283 25.6449 54.7949 25.3271 55.5137 25.3271ZM55.7793 31.6553H55.9512C56.8262 31.6553 57.5397 32.1136 58.0918 33.0303C58.248 33.3011 58.3262 33.7803 58.3262 34.4678C58.5033 41.2594 58.597 45.2594 58.6074 46.4678C58.6074 47.1344 58.2585 47.7594 57.5605 48.3428C57.1022 48.6344 56.6595 48.7803 56.2324 48.7803H56.1074C55.3053 48.7803 54.6283 48.3896 54.0762 47.6084C53.8158 47.2855 53.6855 46.6553 53.6855 45.7178C53.5085 38.2907 53.4199 34.3636 53.4199 33.9365C53.4199 33.3011 53.7428 32.6969 54.3887 32.124C54.8678 31.8115 55.3314 31.6553 55.7793 31.6553ZM68.4199 30.999H68.8105C72.0918 30.999 74.5553 32.1449 76.2012 34.4365C77.0762 35.7699 77.5137 37.2907 77.5137 38.999C77.5137 40.374 76.873 41.2646 75.5918 41.6709C75.5918 41.7334 72.5345 41.848 66.4199 42.0146C66.6595 42.5251 67.1283 43.0146 67.8262 43.4834C68.2428 43.7334 68.7272 43.8584 69.2793 43.8584H69.5605C70.9251 43.8584 72.0137 43.5146 72.8262 42.8271C73.2533 42.598 73.6491 42.4834 74.0137 42.4834H74.1699C75.0762 42.4834 75.8001 42.9678 76.3418 43.9365C76.4668 44.2907 76.5293 44.598 76.5293 44.8584V45.0146C76.5293 46.4001 75.2689 47.5042 72.748 48.3271C71.7064 48.6292 70.6178 48.7803 69.4824 48.7803C67.2116 48.7803 65.321 48.0459 63.8105 46.5771C63.0918 45.8688 62.5866 45.2594 62.2949 44.749C61.347 43.2803 60.7689 41.6605 60.5605 39.8896C60.5293 39.5563 60.5137 39.2907 60.5137 39.0928V38.4678C60.5137 36.7074 61.0814 35.0876 62.2168 33.6084C63.6855 31.8688 65.7533 30.999 68.4199 30.999ZM65.7949 37.124H65.8105C66.3001 37.124 68.3158 37.0615 71.8574 36.9365V36.8896C71.2116 36.2334 70.1283 35.9053 68.6074 35.9053C67.1283 35.9053 66.2064 36.2646 65.8418 36.9834C65.821 36.9834 65.8053 37.0303 65.7949 37.124ZM86.7637 31.4678H87.4512C88.3678 31.4678 89.3626 31.7959 90.4355 32.4521C90.7793 32.6501 91.2324 33.0511 91.7949 33.6553C92.4303 34.3532 92.9876 35.2855 93.4668 36.4521C94.4876 38.9938 94.998 42.1761 94.998 45.999C94.998 47.1761 94.571 47.9938 93.7168 48.4521C93.373 48.6709 92.998 48.7803 92.5918 48.7803H92.4512C91.5449 48.7803 90.821 48.2959 90.2793 47.3271C90.1439 46.9626 90.0762 46.6657 90.0762 46.4365C90.0762 46.2282 90.0814 46.0407 90.0918 45.874C90.0918 43.2074 89.7533 40.8167 89.0762 38.7021C88.5137 37.1501 87.847 36.374 87.0762 36.374H87.0605C86.623 36.374 86.2741 36.6292 86.0137 37.1396C85.7741 37.4521 85.5137 38.0563 85.2324 38.9521C84.6908 40.9001 84.4199 43.1709 84.4199 45.7646V46.2959C84.4199 47.2021 83.9408 47.9261 82.9824 48.4678C82.6283 48.5928 82.321 48.6553 82.0605 48.6553H81.9043C81.0293 48.6553 80.3158 48.1969 79.7637 47.2803C79.5866 46.9886 79.498 46.3636 79.498 45.4053C79.2793 38.3844 79.1699 34.5303 79.1699 33.8428C79.1699 33.1136 79.5501 32.4678 80.3105 31.9053C80.7168 31.6449 81.1335 31.5146 81.5605 31.5146H81.6855C82.4043 31.5146 83.0501 31.8532 83.623 32.5303H83.6699C84.6699 31.8219 85.7012 31.4678 86.7637 31.4678ZM102.482 31.0928L102.795 31.0771C102.951 31.0667 103.107 31.0615 103.264 31.0615C104.899 31.0615 106.826 31.4105 109.045 32.1084C110.045 32.598 110.571 33.3324 110.623 34.3115V34.4365C110.623 35.2699 110.206 35.9678 109.373 36.5303C108.977 36.7178 108.602 36.8219 108.248 36.8428H108.217C107.904 36.8428 107.165 36.6709 105.998 36.3271C104.946 36.0876 104.014 35.9678 103.201 35.9678C103.076 35.9678 102.956 35.973 102.842 35.9834C102.05 36.0251 101.545 36.1761 101.326 36.4365C101.826 36.7699 103.305 37.2855 105.764 37.9834C109.066 39.0251 110.769 40.6501 110.873 42.8584V43.1396C110.873 44.098 110.54 45.0876 109.873 46.1084C108.633 47.7542 106.722 48.6344 104.139 48.749L103.842 48.7646C103.633 48.7751 103.42 48.7803 103.201 48.7803C101.607 48.7803 99.7949 48.5094 97.7637 47.9678C97.2741 47.749 96.8783 47.4053 96.5762 46.9365C96.3574 46.5407 96.2428 46.1605 96.2324 45.7959V45.6709C96.2324 44.9105 96.5814 44.249 97.2793 43.6865C97.696 43.4157 98.1335 43.2699 98.5918 43.249H98.623C98.8418 43.249 99.4668 43.3584 100.498 43.5771C101.498 43.7751 102.425 43.874 103.279 43.874C103.467 43.874 103.649 43.8688 103.826 43.8584C104.816 43.8167 105.477 43.6396 105.811 43.3271V43.2959C105.404 43.0251 104.097 42.5719 101.889 41.9365C98.2845 40.874 96.4303 39.1865 96.3262 36.874V36.5771C96.3262 35.4313 96.748 34.3271 97.5918 33.2646C98.7689 31.9105 100.399 31.1865 102.482 31.0928Z" fill="#88E1DB"/>
<defs>
<filter id="filter0_d_268_9368" x="-20" y="-20" width="259.259" height="253.75" filterUnits="userSpaceOnUse" color-interpolation-filters="sRGB">
<feFlood flood-opacity="0" result="BackgroundImageFix"/>
<feColorMatrix in="SourceAlpha" type="matrix" values="0 0 0 0 0 0 0 0 0 0 0 0 0 0 0 0 0 0 127 0" result="hardAlpha"/>
<feOffset/>
<feGaussianBlur stdDeviation="10"/>
<feComposite in2="hardAlpha" operator="out"/>
<feColorMatrix type="matrix" values="0 0 0 0 0.870833 0 0 0 0 0.870833 0 0 0 0 0.870833 0 0 0 0.3 0"/>
<feBlend mode="normal" in2="BackgroundImageFix" result="effect1_dropShadow_268_9368"/>
<feBlend mode="normal" in="SourceGraphic" in2="effect1_dropShadow_268_9368" result="shape"/>
</filter>
<clipPath id="clip0_268_9368">
<rect width="158.673" height="136.284" fill="white" transform="translate(60.46 77.4661)"/>
</clipPath>
</defs>
</svg>
