<svg width="221" height="214" viewBox="0 0 221 214" fill="none" xmlns="http://www.w3.org/2000/svg">
<rect x="1.27637" y="0.5" width="218.259" height="212.75" rx="17.5" fill="white" stroke="#DEDEDE"/>
<g clip-path="url(#clip0_268_3469)">
<path d="M220.3 146.453C211.039 159.111 199.879 169.831 186.269 177.878C181.76 180.542 176.778 182.437 171.97 184.593C170.994 185.028 170.422 185.378 170.301 186.565C169.711 192.354 168.35 197.947 165.544 203.133C161.755 210.147 155.871 214.703 148.362 217.332C139.474 220.449 130.316 220.675 121.064 219.667C118.376 219.373 116.459 217.512 116.156 214.916C115.128 206.041 115.254 197.217 118.267 188.687C119.425 185.404 121.194 182.326 122.777 178.958C113.68 173.873 105.559 167.056 98.2451 159.696C97.0527 164.025 96.1812 168.469 94.6074 172.665C90.6402 183.248 82.4196 189.11 71.5803 191.761C63.9928 193.613 56.3142 193.81 48.5836 192.802C45.9258 192.457 44.0874 191.005 43.7449 188.465C42.2274 177.182 42.8084 166.151 48.3538 155.837C50.8078 151.277 54.3804 147.7 58.8029 145.04C56.7694 143.32 54.6276 141.779 52.8109 139.93C47.4433 134.457 44.9849 127.618 43.7752 120.271C42.8214 114.465 42.8257 108.629 43.4587 102.785C43.888 98.8021 45.3665 97.2866 49.8193 96.8042C58.3216 95.8821 66.7156 96.3517 74.9188 98.9857C86.5212 102.713 93.3847 110.67 96.32 122.12C96.9964 124.749 97.3953 127.447 97.9676 130.355C105.499 122.786 113.594 115.942 122.742 110.849C121.138 107.34 119.325 104.057 118.111 100.569C115.393 92.7614 115.159 84.6715 115.996 76.5262C116.048 76.0182 116.061 75.5059 116.126 74.9979C116.433 72.5133 118.094 70.5196 120.574 70.2165C130.286 69.0255 139.885 69.2901 149.181 72.7523C160.151 76.8378 166.355 84.9106 169.013 95.8821C169.624 98.4093 169.876 101.022 170.409 103.571C170.517 104.091 171.042 104.766 171.536 104.941C191.273 111.981 206.001 125.343 218.787 141.16C219.351 141.855 219.789 142.641 220.287 143.388V146.458L220.3 146.453ZM148.422 112.745C147.954 112.745 147.672 112.706 147.404 112.749C141.68 113.671 136.265 115.515 131.123 118.137C119.152 124.241 109.418 133.014 100.625 142.91C100.062 143.542 99.5414 144.208 99.0342 144.814C99.1426 145.036 99.1686 145.155 99.2423 145.237C99.9533 146.056 100.673 146.867 101.388 147.687C109.67 157.134 119.078 165.267 130.282 171.214C144.767 178.902 159.505 179.654 174.493 172.524C185.406 167.333 194.49 159.803 202.78 151.252C204.752 149.22 206.586 147.059 208.689 144.729C204.575 140.562 200.742 136.391 196.588 132.549C189.369 125.872 181.443 120.143 172.256 116.288C168.063 114.529 163.736 113.24 158.976 112.659V114.423C158.976 117.603 158.976 120.783 158.976 123.964C158.976 130.722 158.997 137.48 158.967 144.242C158.95 148.238 156.01 150.697 152.364 149.851C149.871 149.271 148.436 147.183 148.431 143.977C148.414 134.265 148.427 124.553 148.422 114.841C148.422 114.175 148.422 113.509 148.422 112.749V112.745ZM87.6659 150.509C84.6482 150.509 81.895 150.825 79.2502 150.432C75.3741 149.86 71.8144 150.671 68.2895 151.952C63.6546 153.634 59.9562 156.404 57.5499 160.793C54.5625 166.24 53.7561 172.14 53.4656 178.172C53.3919 179.73 53.4526 181.297 53.4526 182.911C56.583 182.911 59.3535 183.052 62.1067 182.868C64.3917 182.719 66.6896 182.347 68.9095 181.792C73.5964 180.627 78.0232 178.851 81.2013 175.039C87.1282 167.931 87.5792 159.414 87.6659 150.509ZM87.371 139.239C87.371 136.378 87.5488 133.702 87.332 131.059C86.9115 125.932 85.6281 121.01 82.7448 116.63C80.5076 113.24 77.3035 110.999 73.5401 109.483C67.1709 106.913 60.5329 106.525 53.7041 106.896C53.2792 111.895 53.6434 116.655 54.6579 121.402C56.7954 131.383 62.9565 137.501 73.0848 139.11C77.711 139.845 82.5584 139.234 87.371 139.234V139.239ZM126.154 209.78C131.509 210.028 136.634 209.819 141.724 208.585C152.403 205.994 158.122 199.389 159.47 187.671C158.958 187.671 158.447 187.641 157.939 187.675C150.495 188.162 143.228 187.257 136.161 184.905C132.398 183.654 132.289 183.675 130.364 187.15C130.338 187.201 130.316 187.253 130.286 187.304C126.375 194.275 125.816 201.844 126.154 209.78ZM125.963 80.0097C126.141 83.711 126.137 87.2799 126.531 90.8062C127.086 95.7583 128.634 100.416 131.596 104.548C132.402 105.671 133.139 106.038 134.587 105.496C139.989 103.464 145.583 102.2 151.397 102.111C154.089 102.072 156.786 102.102 159.817 102.102C159.054 99.3613 158.512 96.6975 157.571 94.1787C155.516 88.6844 151.661 84.838 146.094 82.6395C139.747 80.1335 133.139 79.6767 125.963 80.0097Z" fill="#88B0FF"/>
<path d="M181.656 144.532C178.82 144.489 176.505 142.18 176.514 139.405C176.522 136.592 179.011 134.171 181.829 134.239C184.596 134.308 186.993 136.707 186.997 139.409C186.997 142.227 184.548 144.579 181.656 144.532Z" fill="#88B0FF"/>
</g>
<path d="M24.4932 22.4751H24.9619C27.5036 22.4751 29.6182 23.1574 31.3057 24.522C33.0348 26.0845 33.8994 28.1105 33.8994 30.6001V30.7407C33.8994 33.4282 32.7223 35.4855 30.3682 36.9126C28.7744 37.7668 26.8525 38.1938 24.6025 38.1938H24.5869C24.1286 38.1938 23.7171 38.1834 23.3525 38.1626V38.1782C23.3525 39.8449 23.4307 41.3761 23.5869 42.772C23.5869 43.6261 23.1807 44.3241 22.3682 44.8657C21.9619 45.0845 21.5505 45.1938 21.1338 45.1938C20.2067 45.1938 19.4723 44.7303 18.9307 43.8032C18.6807 43.2303 18.5557 42.4022 18.5557 41.3188C18.4411 39.4334 18.3421 34.1053 18.2588 25.3345C18.2588 24.8136 18.4827 24.2928 18.9307 23.772C19.3682 23.3553 19.764 23.1105 20.1182 23.0376C21.7223 22.6626 23.1807 22.4751 24.4932 22.4751ZM23.1807 27.4907L23.2432 32.9907L23.2588 33.2251C23.665 33.2772 24.1234 33.3032 24.6338 33.3032C26.9359 33.2616 28.3265 32.7563 28.8057 31.7876C28.9411 31.4751 29.0088 31.1001 29.0088 30.6626C29.0088 29.2147 28.4932 28.2772 27.4619 27.8501C26.7744 27.5376 25.863 27.3813 24.7275 27.3813H24.6807C23.7432 27.4022 23.2432 27.4386 23.1807 27.4907ZM42.5713 27.8501H43.1494C44.7952 27.8501 46.3265 28.4595 47.7432 29.6782C48.5244 30.4699 49.0973 31.2355 49.4619 31.9751C50.1807 33.4334 50.54 34.9959 50.54 36.6626C50.54 39.0168 49.8525 41.0376 48.4775 42.7251C47.6859 43.5584 47.139 44.0272 46.8369 44.1313C45.7223 44.8397 44.5348 45.1938 43.2744 45.1938H42.915C41.238 45.1938 39.639 44.6782 38.1182 43.647C37.8994 43.5532 37.3942 43.0845 36.6025 42.2407C35.29 40.6157 34.6338 38.7095 34.6338 36.522C34.6338 34.1886 35.4046 32.1418 36.9463 30.3813C37.7484 29.6001 38.3265 29.1313 38.6807 28.9751C39.9827 28.2251 41.2796 27.8501 42.5713 27.8501ZM39.54 36.5376C39.54 37.7459 39.9515 38.7303 40.7744 39.4907C41.4515 40.022 42.2223 40.2876 43.0869 40.2876C44.2119 40.2876 44.988 39.5897 45.415 38.1938C45.5505 37.6834 45.6182 37.2043 45.6182 36.7563V36.5376C45.6182 35.1938 45.2015 34.1001 44.3682 33.2563C43.9723 32.923 43.4775 32.7563 42.8838 32.7563C41.4255 32.7563 40.3994 33.4959 39.8057 34.9751C39.6286 35.5793 39.54 36.1001 39.54 36.5376ZM54.3213 21.7407H54.5244C55.3577 21.7407 56.0817 22.147 56.6963 22.9595C57.0088 23.4595 57.165 23.9386 57.165 24.397V24.7095C57.165 25.2824 56.9359 25.8553 56.4775 26.4282C55.8317 27.1053 55.1182 27.4438 54.3369 27.4438H54.1338C53.54 27.4438 52.9619 27.2095 52.3994 26.7407C51.8265 26.1574 51.54 25.5376 51.54 24.8813V24.5845C51.54 23.9491 51.8005 23.3188 52.3213 22.6938C52.9359 22.0584 53.6025 21.7407 54.3213 21.7407ZM54.5869 28.0688H54.7588C55.6338 28.0688 56.3473 28.5272 56.8994 29.4438C57.0557 29.7147 57.1338 30.1938 57.1338 30.8813C57.3109 37.673 57.4046 41.673 57.415 42.8813C57.415 43.548 57.0661 44.173 56.3682 44.7563C55.9098 45.048 55.4671 45.1938 55.04 45.1938H54.915C54.113 45.1938 53.4359 44.8032 52.8838 44.022C52.6234 43.6991 52.4932 43.0688 52.4932 42.1313C52.3161 34.7043 52.2275 30.7772 52.2275 30.3501C52.2275 29.7147 52.5505 29.1105 53.1963 28.5376C53.6755 28.2251 54.139 28.0688 54.5869 28.0688ZM65.4463 27.5063L65.7588 27.4907C65.915 27.4803 66.0713 27.4751 66.2275 27.4751C67.863 27.4751 69.79 27.8241 72.0088 28.522C73.0088 29.0116 73.5348 29.7459 73.5869 30.7251V30.8501C73.5869 31.6834 73.1702 32.3813 72.3369 32.9438C71.9411 33.1313 71.5661 33.2355 71.2119 33.2563H71.1807C70.8682 33.2563 70.1286 33.0845 68.9619 32.7407C67.9098 32.5011 66.9775 32.3813 66.165 32.3813C66.04 32.3813 65.9202 32.3866 65.8057 32.397C65.014 32.4386 64.5088 32.5897 64.29 32.8501C64.79 33.1834 66.2692 33.6991 68.7275 34.397C72.0296 35.4386 73.7327 37.0636 73.8369 39.272V39.5532C73.8369 40.5116 73.5036 41.5011 72.8369 42.522C71.5973 44.1678 69.6859 45.048 67.1025 45.1626L66.8057 45.1782C66.5973 45.1886 66.3838 45.1938 66.165 45.1938C64.5713 45.1938 62.7588 44.923 60.7275 44.3813C60.238 44.1626 59.8421 43.8188 59.54 43.3501C59.3213 42.9543 59.2067 42.5741 59.1963 42.2095V42.0845C59.1963 41.3241 59.5452 40.6626 60.2432 40.1001C60.6598 39.8293 61.0973 39.6834 61.5557 39.6626H61.5869C61.8057 39.6626 62.4307 39.772 63.4619 39.9907C64.4619 40.1886 65.389 40.2876 66.2432 40.2876C66.4307 40.2876 66.613 40.2824 66.79 40.272C67.7796 40.2303 68.4411 40.0532 68.7744 39.7407V39.7095C68.3682 39.4386 67.0609 38.9855 64.8525 38.3501C61.2484 37.2876 59.3942 35.6001 59.29 33.2876V32.9907C59.29 31.8449 59.7119 30.7407 60.5557 29.6782C61.7327 28.3241 63.363 27.6001 65.4463 27.5063ZM81.0713 27.5063L81.3838 27.4907C81.54 27.4803 81.6963 27.4751 81.8525 27.4751C83.488 27.4751 85.415 27.8241 87.6338 28.522C88.6338 29.0116 89.1598 29.7459 89.2119 30.7251V30.8501C89.2119 31.6834 88.7952 32.3813 87.9619 32.9438C87.5661 33.1313 87.1911 33.2355 86.8369 33.2563H86.8057C86.4932 33.2563 85.7536 33.0845 84.5869 32.7407C83.5348 32.5011 82.6025 32.3813 81.79 32.3813C81.665 32.3813 81.5452 32.3866 81.4307 32.397C80.639 32.4386 80.1338 32.5897 79.915 32.8501C80.415 33.1834 81.8942 33.6991 84.3525 34.397C87.6546 35.4386 89.3577 37.0636 89.4619 39.272V39.5532C89.4619 40.5116 89.1286 41.5011 88.4619 42.522C87.2223 44.1678 85.3109 45.048 82.7275 45.1626L82.4307 45.1782C82.2223 45.1886 82.0088 45.1938 81.79 45.1938C80.1963 45.1938 78.3838 44.923 76.3525 44.3813C75.863 44.1626 75.4671 43.8188 75.165 43.3501C74.9463 42.9543 74.8317 42.5741 74.8213 42.2095V42.0845C74.8213 41.3241 75.1702 40.6626 75.8682 40.1001C76.2848 39.8293 76.7223 39.6834 77.1807 39.6626H77.2119C77.4307 39.6626 78.0557 39.772 79.0869 39.9907C80.0869 40.1886 81.014 40.2876 81.8682 40.2876C82.0557 40.2876 82.238 40.2824 82.415 40.272C83.4046 40.2303 84.0661 40.0532 84.3994 39.7407V39.7095C83.9932 39.4386 82.6859 38.9855 80.4775 38.3501C76.8734 37.2876 75.0192 35.6001 74.915 33.2876V32.9907C74.915 31.8449 75.3369 30.7407 76.1807 29.6782C77.3577 28.3241 78.988 27.6001 81.0713 27.5063ZM98.915 27.8501H99.4932C101.139 27.8501 102.67 28.4595 104.087 29.6782C104.868 30.4699 105.441 31.2355 105.806 31.9751C106.524 33.4334 106.884 34.9959 106.884 36.6626C106.884 39.0168 106.196 41.0376 104.821 42.7251C104.03 43.5584 103.483 44.0272 103.181 44.1313C102.066 44.8397 100.879 45.1938 99.6182 45.1938H99.2588C97.5817 45.1938 95.9827 44.6782 94.4619 43.647C94.2432 43.5532 93.738 43.0845 92.9463 42.2407C91.6338 40.6157 90.9775 38.7095 90.9775 36.522C90.9775 34.1886 91.7484 32.1418 93.29 30.3813C94.0921 29.6001 94.6702 29.1313 95.0244 28.9751C96.3265 28.2251 97.6234 27.8501 98.915 27.8501ZM95.8838 36.5376C95.8838 37.7459 96.2952 38.7303 97.1182 39.4907C97.7952 40.022 98.5661 40.2876 99.4307 40.2876C100.556 40.2876 101.332 39.5897 101.759 38.1938C101.894 37.6834 101.962 37.2043 101.962 36.7563V36.5376C101.962 35.1938 101.545 34.1001 100.712 33.2563C100.316 32.923 99.8213 32.7563 99.2275 32.7563C97.7692 32.7563 96.7432 33.4959 96.1494 34.9751C95.9723 35.5793 95.8838 36.1001 95.8838 36.5376ZM116.134 27.8813H116.821C117.738 27.8813 118.733 28.2095 119.806 28.8657C120.149 29.0636 120.603 29.4647 121.165 30.0688C121.8 30.7668 122.358 31.6991 122.837 32.8657C123.858 35.4074 124.368 38.5897 124.368 42.4126C124.368 43.5897 123.941 44.4074 123.087 44.8657C122.743 45.0845 122.368 45.1938 121.962 45.1938H121.821C120.915 45.1938 120.191 44.7095 119.649 43.7407C119.514 43.3761 119.446 43.0793 119.446 42.8501C119.446 42.6418 119.451 42.4543 119.462 42.2876C119.462 39.6209 119.123 37.2303 118.446 35.1157C117.884 33.5636 117.217 32.7876 116.446 32.7876H116.431C115.993 32.7876 115.644 33.0428 115.384 33.5532C115.144 33.8657 114.884 34.4699 114.603 35.3657C114.061 37.3136 113.79 39.5845 113.79 42.1782V42.7095C113.79 43.6157 113.311 44.3397 112.353 44.8813C111.998 45.0063 111.691 45.0688 111.431 45.0688H111.274C110.399 45.0688 109.686 44.6105 109.134 43.6938C108.957 43.4022 108.868 42.7772 108.868 41.8188C108.649 34.798 108.54 30.9438 108.54 30.2563C108.54 29.5272 108.92 28.8813 109.681 28.3188C110.087 28.0584 110.504 27.9282 110.931 27.9282H111.056C111.774 27.9282 112.42 28.2668 112.993 28.9438H113.04C114.04 28.2355 115.071 27.8813 116.134 27.8813ZM131.853 27.5063L132.165 27.4907C132.321 27.4803 132.478 27.4751 132.634 27.4751C134.269 27.4751 136.196 27.8241 138.415 28.522C139.415 29.0116 139.941 29.7459 139.993 30.7251V30.8501C139.993 31.6834 139.576 32.3813 138.743 32.9438C138.347 33.1313 137.972 33.2355 137.618 33.2563H137.587C137.274 33.2563 136.535 33.0845 135.368 32.7407C134.316 32.5011 133.384 32.3813 132.571 32.3813C132.446 32.3813 132.326 32.3866 132.212 32.397C131.42 32.4386 130.915 32.5897 130.696 32.8501C131.196 33.1834 132.675 33.6991 135.134 34.397C138.436 35.4386 140.139 37.0636 140.243 39.272V39.5532C140.243 40.5116 139.91 41.5011 139.243 42.522C138.004 44.1678 136.092 45.048 133.509 45.1626L133.212 45.1782C133.004 45.1886 132.79 45.1938 132.571 45.1938C130.978 45.1938 129.165 44.923 127.134 44.3813C126.644 44.1626 126.248 43.8188 125.946 43.3501C125.728 42.9543 125.613 42.5741 125.603 42.2095V42.0845C125.603 41.3241 125.951 40.6626 126.649 40.1001C127.066 39.8293 127.504 39.6834 127.962 39.6626H127.993C128.212 39.6626 128.837 39.772 129.868 39.9907C130.868 40.1886 131.795 40.2876 132.649 40.2876C132.837 40.2876 133.019 40.2824 133.196 40.272C134.186 40.2303 134.847 40.0532 135.181 39.7407V39.7095C134.774 39.4386 133.467 38.9855 131.259 38.3501C127.655 37.2876 125.8 35.6001 125.696 33.2876V32.9907C125.696 31.8449 126.118 30.7407 126.962 29.6782C128.139 28.3241 129.769 27.6001 131.853 27.5063Z" fill="#88B0FF"/>
<defs>
<clipPath id="clip0_268_3469">
<rect width="176.281" height="143.456" fill="white" transform="translate(43.0254 69.5762)"/>
</clipPath>
</defs>
</svg>
