<svg width="22" height="23" viewBox="0 0 22 23" fill="none" xmlns="http://www.w3.org/2000/svg">
<path d="M12.9668 3.17525C14.0805 1.66097 15.407 0.615026 16.7377 0.201685C17.6251 -0.0739788 18.42 -0.0673748 19.3357 0.22344C20.0677 0.455828 20.9298 0.952536 21.2179 1.30799C22.3641 2.72205 22.2535 5.0666 20.8659 8.76468C19.9184 11.2897 19.1575 12.8809 16.1764 18.5713C15.1802 20.4729 14.1296 22.5144 14.1296 22.5144C14.1296 22.5144 13.8672 23 13.8344 23C13.6758 23 10.0236 19.4785 7.99223 17.3671C3.90307 13.1166 1.0637 9.35097 0.291226 7.15382C0.0356645 6.42697 -0.0588928 5.50317 0.0362612 4.6639C0.295997 2.37476 1.69613 0.819444 3.48063 0.837857C4.53593 0.848735 6.07024 1.42042 7.2862 2.2558C8.46919 3.06842 9.99421 4.66196 10.8175 5.94541C10.9957 6.22341 11.1647 6.45083 11.193 6.45083C11.2212 6.45083 11.2914 6.28355 11.3488 6.07905C11.5132 5.494 12.3003 4.08126 12.9668 3.17525Z" fill="#E2168C"/>
</svg>
