<svg width="1437" height="312" viewBox="0 0 1437 312" fill="none" xmlns="http://www.w3.org/2000/svg">
<rect width="1437" height="312" fill="#1E1E1E"/>
<g clip-path="url(#clip0_268_3431)">
<rect width="1440" height="3376" transform="translate(0 -2772)" fill="#FDFDFF"/>
<rect x="-3" width="1440" height="312" fill="white"/>
<path d="M699.599 64.355C712.06 64.5503 718.29 64.674 718.29 64.7261C719.162 64.9604 719.8 65.3576 720.204 65.9175C720.595 66.5295 720.79 67.1414 720.79 67.7534C720.79 68.8602 720.256 69.7456 719.188 70.4097C718.681 70.6701 718.225 70.8003 717.821 70.8003C714.215 70.7352 712.183 70.7026 711.728 70.7026V89.6284C711.728 90.9435 711.083 91.9136 709.794 92.5386C709.377 92.6818 708.993 92.7534 708.642 92.7534C707.496 92.7534 706.584 92.1805 705.907 91.0347C705.699 90.5789 705.595 90.1102 705.595 89.6284V70.5854C701.142 70.5334 698.915 70.4683 698.915 70.3901C698.069 70.1167 697.463 69.674 697.099 69.062C696.773 68.5282 696.61 67.9748 696.61 67.4019C696.61 66.2951 697.151 65.4032 698.231 64.7261C698.661 64.5047 699.117 64.381 699.599 64.355ZM725.653 71.269H726.376C727.86 71.269 729.351 71.8354 730.849 72.9683C732.073 73.9709 732.685 74.967 732.685 75.9565V76.1714C732.685 77.3042 732.079 78.2091 730.868 78.8862C730.438 79.0425 730.061 79.1206 729.735 79.1206H729.54C728.642 79.1206 727.782 78.6584 726.962 77.7339C726.662 77.5125 726.337 77.4019 725.985 77.4019C725.478 77.4019 725.067 77.6688 724.755 78.2026C724.429 78.6193 724.084 79.381 723.72 80.4878C723.017 83.0008 722.665 85.8263 722.665 88.9644C722.691 89.4461 722.704 89.7651 722.704 89.9214C722.704 90.4162 722.463 90.9956 721.981 91.6597C721.304 92.3888 720.556 92.7534 719.735 92.7534H719.521C718.388 92.7534 717.483 92.1479 716.806 90.937C716.597 90.5854 716.493 89.4787 716.493 87.6167C716.233 79.3094 716.103 74.8368 716.103 74.1987C716.103 73.3654 716.545 72.5841 717.431 71.855C717.991 71.4904 718.544 71.3081 719.091 71.3081H719.228C720.152 71.3081 720.966 71.7443 721.669 72.6167C722.984 71.7183 724.312 71.269 725.653 71.269ZM743.368 71.0737H744.091C746.148 71.0737 748.062 71.8354 749.833 73.3589C750.81 74.3485 751.526 75.3055 751.981 76.23C752.88 78.0529 753.329 80.006 753.329 82.0894C753.329 85.0321 752.47 87.5581 750.751 89.6675C749.761 90.7091 749.078 91.2951 748.7 91.4253C747.307 92.3107 745.823 92.7534 744.247 92.7534H743.798C741.701 92.7534 739.703 92.1089 737.802 90.8198C737.528 90.7026 736.897 90.1167 735.907 89.062C734.267 87.0308 733.446 84.6479 733.446 81.9136C733.446 78.9969 734.41 76.4383 736.337 74.2378C737.34 73.2612 738.062 72.6753 738.505 72.48C740.132 71.5425 741.754 71.0737 743.368 71.0737ZM739.579 81.9331C739.579 83.4435 740.093 84.674 741.122 85.6245C741.968 86.2886 742.932 86.6206 744.013 86.6206C745.419 86.6206 746.389 85.7482 746.923 84.0034C747.092 83.3654 747.177 82.7664 747.177 82.2065V81.9331C747.177 80.2534 746.656 78.8862 745.614 77.8315C745.119 77.4149 744.501 77.2065 743.759 77.2065C741.936 77.2065 740.653 78.131 739.911 79.98C739.69 80.7352 739.579 81.3862 739.579 81.9331ZM758.642 71.1714C759.709 71.1714 760.588 71.6922 761.278 72.7339C761.552 73.2547 761.688 73.7365 761.688 74.1792C761.61 75.3771 761.571 76.3993 761.571 77.2456C761.571 81.3211 762.138 84.2183 763.271 85.937C763.583 86.3667 763.974 86.5815 764.442 86.5815C765.172 86.5815 765.836 85.9956 766.435 84.8237C766.734 84.3159 767.073 83.4565 767.45 82.2456C767.815 81.243 768.166 79.5112 768.505 77.0503C768.622 76.0086 768.713 74.967 768.778 73.9253C768.935 73.1831 769.201 72.6297 769.579 72.2651C770.23 71.6141 770.979 71.2886 771.825 71.2886C772.828 71.2886 773.681 71.7703 774.384 72.7339C774.722 73.1375 774.892 74.0099 774.892 75.3511C775.178 84.2313 775.321 89.0229 775.321 89.7261C775.321 90.7938 774.807 91.6662 773.778 92.3433C773.284 92.6167 772.769 92.7534 772.235 92.7534C771.05 92.7534 770.113 92.1284 769.423 90.8784H769.384C767.925 92.0894 766.272 92.6948 764.423 92.6948C761.832 92.6948 759.716 91.5164 758.075 89.1597C756.317 86.5034 755.438 82.5321 755.438 77.2456C755.438 74.9019 755.562 73.4956 755.81 73.0269C756.461 71.7899 757.405 71.1714 758.642 71.1714ZM794.54 70.5659C795.647 70.5659 796.545 71.1258 797.235 72.2456C797.457 72.7404 797.567 73.2091 797.567 73.6519C797.567 74.1987 797.287 75.0386 796.728 76.1714C793.069 84.674 790.894 89.6935 790.204 91.23C789.514 92.2456 788.629 92.7534 787.548 92.7534C786.129 92.7534 785.061 91.8745 784.345 90.1167C779.306 80.4552 776.715 75.4422 776.571 75.0776C776.467 74.661 776.415 74.3289 776.415 74.0815C776.415 73.0529 776.89 72.1935 777.841 71.5034C778.375 71.1779 778.928 71.0151 779.501 71.0151C780.569 71.0151 781.448 71.536 782.138 72.5776C785.523 79.1141 787.248 82.4214 787.313 82.4995C787.379 82.4214 788.668 79.4396 791.181 73.5542C791.675 72.2912 792.19 71.4904 792.724 71.1519C793.297 70.7612 793.902 70.5659 794.54 70.5659ZM808.095 70.5269H808.583C812.685 70.5269 815.764 71.9591 817.821 74.8237C818.915 76.4904 819.462 78.3914 819.462 80.5269C819.462 82.2456 818.661 83.3589 817.06 83.8667C817.06 83.9448 813.238 84.0881 805.595 84.2964C805.894 84.9344 806.48 85.5464 807.353 86.1323C807.873 86.4448 808.479 86.6011 809.169 86.6011H809.521C811.226 86.6011 812.587 86.1714 813.603 85.312C814.136 85.0256 814.631 84.8823 815.087 84.8823H815.282C816.415 84.8823 817.32 85.4878 817.997 86.6987C818.153 87.1414 818.231 87.5256 818.231 87.8511V88.0464C818.231 89.7782 816.656 91.1584 813.505 92.187C812.203 92.5646 810.842 92.7534 809.423 92.7534C806.584 92.7534 804.221 91.8354 802.333 89.9995C801.435 89.1141 800.803 88.3524 800.438 87.7144C799.254 85.8784 798.531 83.8537 798.271 81.6401C798.231 81.2235 798.212 80.8914 798.212 80.644V79.8628C798.212 77.6623 798.922 75.6375 800.341 73.7886C802.177 71.6141 804.761 70.5269 808.095 70.5269ZM804.813 78.1831H804.833C805.445 78.1831 807.965 78.105 812.392 77.9487V77.8901C811.584 77.0698 810.23 76.6597 808.329 76.6597C806.48 76.6597 805.328 77.1089 804.872 78.0073C804.846 78.0073 804.826 78.0659 804.813 78.1831ZM837.45 70.605C838.049 70.605 838.687 70.8979 839.364 71.4839C839.976 72.1479 840.282 72.8576 840.282 73.6128V73.73C840.282 74.6154 839.833 75.4878 838.935 76.3472L830.048 86.4058V86.4448C833.954 86.3537 836.07 86.3081 836.396 86.3081C837.047 86.3081 837.711 86.6141 838.388 87.2261C838.974 87.8641 839.267 88.5477 839.267 89.2769V89.4526C839.267 90.4292 838.785 91.269 837.821 91.9722C837.405 92.2977 836.617 92.4604 835.458 92.4604C827.554 92.6558 823.355 92.7534 822.86 92.7534C822.079 92.7534 821.343 92.3693 820.653 91.6011C820.198 90.9891 819.97 90.3706 819.97 89.7456V89.6284C819.97 88.756 820.419 87.8836 821.317 87.0112L830.321 76.8159C830.321 76.7899 830.315 76.7769 830.302 76.7769C829.39 76.7769 827.405 76.7899 824.345 76.8159C823.759 76.8159 823.14 76.5425 822.489 75.9956C821.838 75.3576 821.513 74.6414 821.513 73.8472V73.6519C821.513 72.6102 822.047 71.7443 823.114 71.0542C823.622 70.8068 824.039 70.6831 824.364 70.6831L837.45 70.605ZM854.774 64.3745C855.92 64.3745 856.832 64.9474 857.509 66.0933C857.73 66.4058 857.841 67.2651 857.841 68.6714C857.919 81.1974 857.958 88.2157 857.958 89.7261C857.958 90.7938 857.45 91.6662 856.435 92.3433C855.927 92.6167 855.412 92.7534 854.892 92.7534C853.772 92.7534 852.867 92.1935 852.177 91.0737C851.955 90.5138 851.845 89.993 851.845 89.5112C851.845 87.0373 851.793 79.6284 851.688 67.2847C851.688 66.7378 851.936 66.1258 852.431 65.4487C853.095 64.7326 853.876 64.3745 854.774 64.3745ZM862.411 64.5112H862.548C863.603 64.5112 864.481 65.0516 865.185 66.1323C865.432 66.6532 865.556 67.174 865.556 67.6948C865.556 69.1662 865.582 71.7573 865.634 75.4683C865.582 75.9761 865.386 76.5034 865.048 77.0503C864.345 77.8836 863.55 78.3003 862.665 78.3003H862.45C861.448 78.3003 860.601 77.8055 859.911 76.8159C859.625 76.4253 859.481 75.644 859.481 74.4722C859.442 70.7743 859.423 68.411 859.423 67.3823C859.423 66.562 859.866 65.7808 860.751 65.0386C861.311 64.687 861.864 64.5112 862.411 64.5112ZM877.978 70.0972C880.152 70.0972 882.45 70.5594 884.872 71.4839C886.057 72.1479 886.649 73.0985 886.649 74.3354L886.63 74.6284C887.151 75.1753 887.411 76.0737 887.411 77.3237C887.437 77.3237 887.45 77.7469 887.45 78.5933C887.45 79.4266 887.444 80.2729 887.431 81.1323C887.535 86.0412 887.587 88.8211 887.587 89.4722C887.587 90.3706 887.164 91.1714 886.317 91.8745C885.744 92.2651 885.139 92.4604 884.501 92.4604C883.629 92.4604 882.854 92.1024 882.177 91.3862L882.138 91.3667C880.276 92.2912 878.498 92.7534 876.806 92.7534H876.278C874.247 92.7534 872.366 92.1024 870.634 90.8003C868.29 88.8211 867.118 86.0216 867.118 82.4019C867.118 78.2482 868.29 75.0256 870.634 72.7339C872.587 70.9761 875.035 70.0972 877.978 70.0972ZM873.251 82.3433C873.251 84.4136 873.798 85.7287 874.892 86.2886C875.334 86.5099 875.875 86.6206 876.513 86.6206H876.552C877.854 86.6206 878.993 86.2365 879.97 85.4683C880.178 85.2469 880.393 84.8563 880.614 84.2964C881.057 82.9162 881.278 81.6662 881.278 80.5464C881.278 80.0125 881.265 78.7365 881.239 76.7183C880.041 76.3927 878.941 76.23 877.938 76.23C875.92 76.23 874.592 76.9657 873.954 78.437C873.485 79.5959 873.251 80.8979 873.251 82.3433ZM900.438 71.1128H901.298C902.444 71.1128 903.687 71.5229 905.028 72.3433C905.458 72.5907 906.024 73.092 906.728 73.8472C907.522 74.7196 908.218 75.8849 908.817 77.3433C910.093 80.5203 910.731 84.4982 910.731 89.2769C910.731 90.7482 910.198 91.7703 909.13 92.3433C908.7 92.6167 908.231 92.7534 907.724 92.7534H907.548C906.415 92.7534 905.51 92.1479 904.833 90.937C904.664 90.4813 904.579 90.1102 904.579 89.8237C904.579 89.5633 904.586 89.3289 904.599 89.1206C904.599 85.7873 904.175 82.799 903.329 80.1558C902.626 78.2157 901.793 77.2456 900.829 77.2456H900.81C900.263 77.2456 899.826 77.5646 899.501 78.2026C899.201 78.5933 898.876 79.3485 898.524 80.4683C897.847 82.9032 897.509 85.7417 897.509 88.9839V89.6479C897.509 90.7808 896.91 91.6857 895.712 92.3628C895.269 92.519 894.885 92.5972 894.56 92.5972H894.364C893.271 92.5972 892.379 92.0243 891.688 90.8784C891.467 90.5138 891.356 89.7326 891.356 88.5347C891.083 79.7586 890.946 74.9409 890.946 74.0815C890.946 73.1701 891.422 72.3628 892.372 71.6597C892.88 71.3341 893.401 71.1714 893.935 71.1714H894.091C894.989 71.1714 895.797 71.5946 896.513 72.4409H896.571C897.821 71.5555 899.11 71.1128 900.438 71.1128ZM915.673 63.437H915.927C916.968 63.437 917.873 63.9448 918.642 64.9604C919.032 65.5854 919.228 66.1844 919.228 66.7573V67.1479C919.228 67.8641 918.941 68.5802 918.368 69.2964C917.561 70.1427 916.669 70.5659 915.692 70.5659H915.438C914.696 70.5659 913.974 70.2729 913.271 69.687C912.554 68.9578 912.196 68.1831 912.196 67.3628V66.9917C912.196 66.1974 912.522 65.4097 913.173 64.6284C913.941 63.8341 914.774 63.437 915.673 63.437ZM916.005 71.3472H916.22C917.313 71.3472 918.205 71.9201 918.896 73.0659C919.091 73.4045 919.188 74.0034 919.188 74.8628C919.41 83.3524 919.527 88.3524 919.54 89.8628C919.54 90.6961 919.104 91.4774 918.231 92.2065C917.659 92.5711 917.105 92.7534 916.571 92.7534H916.415C915.412 92.7534 914.566 92.2651 913.876 91.2886C913.55 90.8849 913.388 90.0972 913.388 88.9253C913.166 79.6414 913.056 74.7326 913.056 74.1987C913.056 73.4045 913.459 72.6493 914.267 71.9331C914.866 71.5425 915.445 71.3472 916.005 71.3472ZM945.087 70.6245H945.614C946.968 70.6245 948.31 71.1714 949.638 72.2651C950.484 73.1115 951.103 73.8862 951.493 74.5894C951.91 75.3576 952.307 76.2495 952.685 77.2651C952.984 78.0985 953.316 79.4331 953.681 81.269C954.162 84.1336 954.403 86.7508 954.403 89.1206V89.6479C954.403 90.7808 953.798 91.6857 952.587 92.3628C952.144 92.519 951.76 92.5972 951.435 92.5972H951.239C950.106 92.5972 949.208 91.9982 948.544 90.8003C948.362 90.3185 948.271 89.9084 948.271 89.5698V89.5503C948.271 86.0086 947.841 82.6883 946.981 79.5894C946.591 78.3654 946.116 77.4539 945.556 76.855C945.451 76.8029 945.386 76.7769 945.36 76.7769H945.282C944.944 76.7769 944.514 77.4604 943.993 78.8276C943.733 79.4917 943.472 80.618 943.212 82.2065C942.965 84.2508 942.841 85.7743 942.841 86.7769C942.867 87.9487 942.88 88.9578 942.88 89.8042C942.88 90.8328 942.333 91.6987 941.239 92.4019C940.757 92.6362 940.308 92.7534 939.892 92.7534H939.716C938.648 92.7534 937.763 92.1935 937.06 91.0737C936.838 90.7222 936.728 89.9735 936.728 88.8276C936.728 84.7 936.122 81.3667 934.911 78.8276C934.351 77.7729 933.707 77.2456 932.978 77.2456H932.958C932.372 77.2456 931.877 77.6688 931.474 78.5151C931.2 78.9318 930.881 79.7782 930.517 81.0542C929.97 83.437 929.696 85.9045 929.696 88.4565C929.696 88.6258 929.683 88.756 929.657 88.8472C929.683 88.9383 929.696 89.0685 929.696 89.2378V89.6284C929.696 90.6831 929.156 91.562 928.075 92.2651C927.593 92.4865 927.144 92.5972 926.728 92.5972H926.513C925.51 92.5972 924.67 92.1089 923.993 91.1323C923.668 90.7677 923.505 89.8237 923.505 88.3003C923.231 79.0815 923.095 74.3224 923.095 74.0229C923.095 73.3719 923.407 72.7144 924.032 72.0503C924.657 71.4644 925.341 71.1714 926.083 71.1714H926.239C927.138 71.1714 927.945 71.5946 928.661 72.4409H928.72C929.996 71.5555 931.285 71.1128 932.587 71.1128H933.466C934.755 71.1128 936.142 71.6206 937.626 72.6362C938.199 73.118 938.759 73.6779 939.306 74.3159C939.631 73.8472 939.918 73.4565 940.165 73.144C941.181 72.0503 942.066 71.3862 942.821 71.1519C943.603 70.8003 944.358 70.6245 945.087 70.6245ZM967.235 70.0972C969.41 70.0972 971.708 70.5594 974.13 71.4839C975.315 72.1479 975.907 73.0985 975.907 74.3354L975.888 74.6284C976.409 75.1753 976.669 76.0737 976.669 77.3237C976.695 77.3237 976.708 77.7469 976.708 78.5933C976.708 79.4266 976.701 80.2729 976.688 81.1323C976.793 86.0412 976.845 88.8211 976.845 89.4722C976.845 90.3706 976.422 91.1714 975.575 91.8745C975.002 92.2651 974.397 92.4604 973.759 92.4604C972.886 92.4604 972.112 92.1024 971.435 91.3862L971.396 91.3667C969.534 92.2912 967.756 92.7534 966.063 92.7534H965.536C963.505 92.7534 961.623 92.1024 959.892 90.8003C957.548 88.8211 956.376 86.0216 956.376 82.4019C956.376 78.2482 957.548 75.0256 959.892 72.7339C961.845 70.9761 964.293 70.0972 967.235 70.0972ZM962.509 82.3433C962.509 84.4136 963.056 85.7287 964.149 86.2886C964.592 86.5099 965.132 86.6206 965.771 86.6206H965.81C967.112 86.6206 968.251 86.2365 969.228 85.4683C969.436 85.2469 969.651 84.8563 969.872 84.2964C970.315 82.9162 970.536 81.6662 970.536 80.5464C970.536 80.0125 970.523 78.7365 970.497 76.7183C969.299 76.3927 968.199 76.23 967.196 76.23C965.178 76.23 963.85 76.9657 963.212 78.437C962.743 79.5959 962.509 80.8979 962.509 82.3433ZM983.485 64.3745C984.631 64.3745 985.543 64.9474 986.22 66.0933C986.441 66.4058 986.552 67.2651 986.552 68.6714C986.63 81.1974 986.669 88.2157 986.669 89.7261C986.669 90.7938 986.161 91.6662 985.146 92.3433C984.638 92.6167 984.123 92.7534 983.603 92.7534C982.483 92.7534 981.578 92.1935 980.888 91.0737C980.666 90.5138 980.556 89.993 980.556 89.5112C980.556 87.0373 980.504 79.6284 980.399 67.2847C980.399 66.7378 980.647 66.1258 981.142 65.4487C981.806 64.7326 982.587 64.3745 983.485 64.3745ZM1011.22 70.8198C1013.67 70.8198 1015.15 71.0347 1015.65 71.4644C1016.25 71.7769 1016.71 72.3758 1017.02 73.2612C1017.11 73.6388 1017.16 73.8341 1017.16 73.8472C1017.16 74.0946 1017.14 74.9019 1017.12 76.269C1017.09 87.0894 1017.08 93.6714 1017.08 96.0151C1017.08 97.7078 1016.31 98.8016 1014.77 99.2964C1014.54 99.3615 1014.31 99.394 1014.09 99.394H1013.9C1012.76 99.394 1011.86 98.7886 1011.2 97.5776C1011.03 97.1479 1010.95 96.7703 1010.95 96.4448V92.9487C1010.95 92.9097 1010.52 92.8446 1009.68 92.7534C1007.85 92.4019 1006.49 92.0243 1005.58 91.6206C1004.65 91.256 1003.73 90.7677 1002.82 90.1558C1000.78 88.7886 999.351 86.894 998.544 84.4722C998.218 83.3524 998.056 82.3498 998.056 81.4644V80.3901C998.056 78.8927 998.518 77.3563 999.442 75.7808C1001.67 72.4735 1005.59 70.8198 1011.22 70.8198ZM1004.19 80.8589V81.0151C1004.19 83.7235 1005.87 85.5008 1009.25 86.3472C1010.07 86.5815 1010.64 86.6987 1010.97 86.6987C1010.99 82.0373 1011 78.7951 1011 76.9722H1010.95C1008.6 76.9722 1006.74 77.4214 1005.36 78.3198C1004.58 78.8927 1004.19 79.7391 1004.19 80.8589ZM1023.45 71.1714C1024.51 71.1714 1025.39 71.6922 1026.08 72.7339C1026.36 73.2547 1026.49 73.7365 1026.49 74.1792C1026.42 75.3771 1026.38 76.3993 1026.38 77.2456C1026.38 81.3211 1026.94 84.2183 1028.08 85.937C1028.39 86.3667 1028.78 86.5815 1029.25 86.5815C1029.98 86.5815 1030.64 85.9956 1031.24 84.8237C1031.54 84.3159 1031.88 83.4565 1032.25 82.2456C1032.62 81.243 1032.97 79.5112 1033.31 77.0503C1033.43 76.0086 1033.52 74.967 1033.58 73.9253C1033.74 73.1831 1034.01 72.6297 1034.38 72.2651C1035.03 71.6141 1035.78 71.2886 1036.63 71.2886C1037.63 71.2886 1038.49 71.7703 1039.19 72.7339C1039.53 73.1375 1039.7 74.0099 1039.7 75.3511C1039.98 84.2313 1040.13 89.0229 1040.13 89.7261C1040.13 90.7938 1039.61 91.6662 1038.58 92.3433C1038.09 92.6167 1037.57 92.7534 1037.04 92.7534C1035.86 92.7534 1034.92 92.1284 1034.23 90.8784H1034.19C1032.73 92.0894 1031.08 92.6948 1029.23 92.6948C1026.64 92.6948 1024.52 91.5164 1022.88 89.1597C1021.12 86.5034 1020.24 82.5321 1020.24 77.2456C1020.24 74.9019 1020.37 73.4956 1020.61 73.0269C1021.27 71.7899 1022.21 71.1714 1023.45 71.1714ZM1046.22 63.437H1046.47C1047.52 63.437 1048.42 63.9448 1049.19 64.9604C1049.58 65.5854 1049.77 66.1844 1049.77 66.7573V67.1479C1049.77 67.8641 1049.49 68.5802 1048.92 69.2964C1048.11 70.1427 1047.22 70.5659 1046.24 70.5659H1045.99C1045.24 70.5659 1044.52 70.2729 1043.82 69.687C1043.1 68.9578 1042.74 68.1831 1042.74 67.3628V66.9917C1042.74 66.1974 1043.07 65.4097 1043.72 64.6284C1044.49 63.8341 1045.32 63.437 1046.22 63.437ZM1046.55 71.3472H1046.77C1047.86 71.3472 1048.75 71.9201 1049.44 73.0659C1049.64 73.4045 1049.74 74.0034 1049.74 74.8628C1049.96 83.3524 1050.07 88.3524 1050.09 89.8628C1050.09 90.6961 1049.65 91.4774 1048.78 92.2065C1048.21 92.5711 1047.65 92.7534 1047.12 92.7534H1046.96C1045.96 92.7534 1045.11 92.2651 1044.42 91.2886C1044.1 90.8849 1043.93 90.0972 1043.93 88.9253C1043.71 79.6414 1043.6 74.7326 1043.6 74.1987C1043.6 73.4045 1044.01 72.6493 1044.81 71.9331C1045.41 71.5425 1045.99 71.3472 1046.55 71.3472ZM1079.62 70.5659C1080.72 70.5659 1081.62 71.1258 1082.31 72.2456C1082.53 72.7404 1082.65 73.2091 1082.65 73.6519C1082.65 74.1987 1082.37 75.0386 1081.81 76.1714C1078.15 84.674 1075.97 89.6935 1075.28 91.23C1074.59 92.2456 1073.71 92.7534 1072.63 92.7534C1071.21 92.7534 1070.14 91.8745 1069.42 90.1167C1064.38 80.4552 1061.79 75.4422 1061.65 75.0776C1061.55 74.661 1061.49 74.3289 1061.49 74.0815C1061.49 73.0529 1061.97 72.1935 1062.92 71.5034C1063.45 71.1779 1064.01 71.0151 1064.58 71.0151C1065.65 71.0151 1066.53 71.536 1067.22 72.5776C1070.6 79.1141 1072.33 82.4214 1072.39 82.4995C1072.46 82.4214 1073.75 79.4396 1076.26 73.5542C1076.75 72.2912 1077.27 71.4904 1077.8 71.1519C1078.37 70.7612 1078.98 70.5659 1079.62 70.5659ZM1092.9 71.0737H1093.62C1095.68 71.0737 1097.59 71.8354 1099.36 73.3589C1100.34 74.3485 1101.06 75.3055 1101.51 76.23C1102.41 78.0529 1102.86 80.006 1102.86 82.0894C1102.86 85.0321 1102 87.5581 1100.28 89.6675C1099.29 90.7091 1098.61 91.2951 1098.23 91.4253C1096.84 92.3107 1095.35 92.7534 1093.78 92.7534H1093.33C1091.23 92.7534 1089.23 92.1089 1087.33 90.8198C1087.06 90.7026 1086.43 90.1167 1085.44 89.062C1083.8 87.0308 1082.98 84.6479 1082.98 81.9136C1082.98 78.9969 1083.94 76.4383 1085.87 74.2378C1086.87 73.2612 1087.59 72.6753 1088.04 72.48C1089.66 71.5425 1091.28 71.0737 1092.9 71.0737ZM1089.11 81.9331C1089.11 83.4435 1089.62 84.674 1090.65 85.6245C1091.5 86.2886 1092.46 86.6206 1093.54 86.6206C1094.95 86.6206 1095.92 85.7482 1096.45 84.0034C1096.62 83.3654 1096.71 82.7664 1096.71 82.2065V81.9331C1096.71 80.2534 1096.19 78.8862 1095.15 77.8315C1094.65 77.4149 1094.03 77.2065 1093.29 77.2065C1091.47 77.2065 1090.18 78.131 1089.44 79.98C1089.22 80.7352 1089.11 81.3862 1089.11 81.9331ZM1108.17 71.1714C1109.24 71.1714 1110.12 71.6922 1110.81 72.7339C1111.08 73.2547 1111.22 73.7365 1111.22 74.1792C1111.14 75.3771 1111.1 76.3993 1111.1 77.2456C1111.1 81.3211 1111.67 84.2183 1112.8 85.937C1113.11 86.3667 1113.5 86.5815 1113.97 86.5815C1114.7 86.5815 1115.37 85.9956 1115.97 84.8237C1116.27 84.3159 1116.6 83.4565 1116.98 82.2456C1117.35 81.243 1117.7 79.5112 1118.04 77.0503C1118.15 76.0086 1118.24 74.967 1118.31 73.9253C1118.47 73.1831 1118.73 72.6297 1119.11 72.2651C1119.76 71.6141 1120.51 71.2886 1121.36 71.2886C1122.36 71.2886 1123.21 71.7703 1123.92 72.7339C1124.25 73.1375 1124.42 74.0099 1124.42 75.3511C1124.71 84.2313 1124.85 89.0229 1124.85 89.7261C1124.85 90.7938 1124.34 91.6662 1123.31 92.3433C1122.81 92.6167 1122.3 92.7534 1121.77 92.7534C1120.58 92.7534 1119.64 92.1284 1118.95 90.8784H1118.92C1117.46 92.0894 1115.8 92.6948 1113.95 92.6948C1111.36 92.6948 1109.25 91.5164 1107.61 89.1597C1105.85 86.5034 1104.97 82.5321 1104.97 77.2456C1104.97 74.9019 1105.09 73.4956 1105.34 73.0269C1105.99 71.7899 1106.94 71.1714 1108.17 71.1714ZM1134.85 70.644L1135.24 70.6245C1135.44 70.6115 1135.63 70.605 1135.83 70.605C1137.87 70.605 1140.28 71.0412 1143.06 71.9136C1144.31 72.5256 1144.96 73.4435 1145.03 74.6675V74.8237C1145.03 75.8654 1144.51 76.7378 1143.47 77.4409C1142.97 77.6753 1142.5 77.8055 1142.06 77.8315H1142.02C1141.63 77.8315 1140.71 77.6167 1139.25 77.187C1137.93 76.8875 1136.77 76.7378 1135.75 76.7378C1135.59 76.7378 1135.44 76.7443 1135.3 76.7573C1134.31 76.8094 1133.68 76.9982 1133.41 77.3237C1134.03 77.7404 1135.88 78.3849 1138.95 79.2573C1143.08 80.5594 1145.21 82.5907 1145.34 85.3511V85.7026C1145.34 86.9006 1144.92 88.1375 1144.09 89.4136C1142.54 91.4709 1140.15 92.5711 1136.92 92.7144L1136.55 92.7339C1136.29 92.7469 1136.02 92.7534 1135.75 92.7534C1133.76 92.7534 1131.49 92.4149 1128.95 91.7378C1128.34 91.4644 1127.85 91.0347 1127.47 90.4487C1127.2 89.9539 1127.05 89.4787 1127.04 89.0229V88.8667C1127.04 87.9162 1127.48 87.0894 1128.35 86.3862C1128.87 86.0477 1129.42 85.8654 1129.99 85.8394H1130.03C1130.3 85.8394 1131.08 85.9761 1132.37 86.2495C1133.62 86.4969 1134.78 86.6206 1135.85 86.6206C1136.08 86.6206 1136.31 86.6141 1136.53 86.6011C1137.77 86.549 1138.6 86.3276 1139.01 85.937V85.8979C1138.5 85.5594 1136.87 84.993 1134.11 84.1987C1129.61 82.8706 1127.29 80.7612 1127.16 77.8706V77.4995C1127.16 76.0672 1127.68 74.687 1128.74 73.3589C1130.21 71.6662 1132.25 70.7612 1134.85 70.644ZM708.212 122.078H708.427C710.966 122.078 713.505 122.924 716.044 124.617C716.994 125.32 717.47 126.186 717.47 127.214C717.47 128.334 716.903 129.239 715.771 129.929C715.276 130.138 714.807 130.242 714.364 130.242C713.648 130.242 712.925 129.962 712.196 129.402C710.868 128.595 709.573 128.191 708.31 128.191C706.708 128.191 705.276 128.855 704.013 130.183C703.166 131.173 702.743 132.279 702.743 133.503V133.621C702.743 135.326 703.472 136.694 704.931 137.722C706.05 138.321 707.209 138.621 708.407 138.621C709.696 138.621 710.927 138.204 712.099 137.371C712.606 137.084 713.134 136.941 713.681 136.941C714.735 136.941 715.608 137.455 716.298 138.484C716.571 138.979 716.708 139.486 716.708 140.007C716.708 141.44 715.738 142.592 713.798 143.464C712.079 144.324 710.315 144.753 708.505 144.753H708.192C705.953 144.753 703.726 144.102 701.513 142.8C701.005 142.488 700.276 141.85 699.325 140.886C698.713 140.131 698.231 139.434 697.88 138.796C697.034 137.039 696.61 135.417 696.61 133.933V133.171C696.61 131.544 697.099 129.819 698.075 127.996C698.427 127.306 699.097 126.459 700.087 125.457C701.129 124.493 702.06 123.822 702.88 123.445C704.612 122.533 706.389 122.078 708.212 122.078ZM728.212 123.074H728.935C730.992 123.074 732.906 123.835 734.677 125.359C735.653 126.348 736.369 127.306 736.825 128.23C737.724 130.053 738.173 132.006 738.173 134.089C738.173 137.032 737.313 139.558 735.595 141.667C734.605 142.709 733.922 143.295 733.544 143.425C732.151 144.311 730.666 144.753 729.091 144.753H728.642C726.545 144.753 724.547 144.109 722.646 142.82C722.372 142.703 721.741 142.117 720.751 141.062C719.11 139.031 718.29 136.648 718.29 133.914C718.29 130.997 719.254 128.438 721.181 126.238C722.183 125.261 722.906 124.675 723.349 124.48C724.976 123.542 726.597 123.074 728.212 123.074ZM724.423 133.933C724.423 135.444 724.937 136.674 725.966 137.625C726.812 138.289 727.776 138.621 728.856 138.621C730.263 138.621 731.233 137.748 731.767 136.003C731.936 135.365 732.021 134.766 732.021 134.207V133.933C732.021 132.253 731.5 130.886 730.458 129.832C729.963 129.415 729.345 129.207 728.603 129.207C726.78 129.207 725.497 130.131 724.755 131.98C724.534 132.735 724.423 133.386 724.423 133.933ZM749.735 123.113H750.595C751.741 123.113 752.984 123.523 754.325 124.343C754.755 124.591 755.321 125.092 756.024 125.847C756.819 126.72 757.515 127.885 758.114 129.343C759.39 132.52 760.028 136.498 760.028 141.277C760.028 142.748 759.494 143.77 758.427 144.343C757.997 144.617 757.528 144.753 757.021 144.753H756.845C755.712 144.753 754.807 144.148 754.13 142.937C753.961 142.481 753.876 142.11 753.876 141.824C753.876 141.563 753.882 141.329 753.896 141.121C753.896 137.787 753.472 134.799 752.626 132.156C751.923 130.216 751.09 129.246 750.126 129.246H750.106C749.56 129.246 749.123 129.565 748.798 130.203C748.498 130.593 748.173 131.348 747.821 132.468C747.144 134.903 746.806 137.742 746.806 140.984V141.648C746.806 142.781 746.207 143.686 745.009 144.363C744.566 144.519 744.182 144.597 743.856 144.597H743.661C742.567 144.597 741.675 144.024 740.985 142.878C740.764 142.514 740.653 141.733 740.653 140.535C740.38 131.759 740.243 126.941 740.243 126.082C740.243 125.17 740.718 124.363 741.669 123.66C742.177 123.334 742.698 123.171 743.231 123.171H743.388C744.286 123.171 745.093 123.595 745.81 124.441H745.868C747.118 123.556 748.407 123.113 749.735 123.113ZM777.392 122.566C778.498 122.566 779.397 123.126 780.087 124.246C780.308 124.74 780.419 125.209 780.419 125.652C780.419 126.199 780.139 127.039 779.579 128.171C775.92 136.674 773.746 141.694 773.056 143.23C772.366 144.246 771.48 144.753 770.399 144.753C768.98 144.753 767.912 143.875 767.196 142.117C762.157 132.455 759.566 127.442 759.423 127.078C759.319 126.661 759.267 126.329 759.267 126.082C759.267 125.053 759.742 124.194 760.692 123.503C761.226 123.178 761.78 123.015 762.353 123.015C763.42 123.015 764.299 123.536 764.989 124.578C768.375 131.114 770.1 134.421 770.165 134.5C770.23 134.421 771.519 131.44 774.032 125.554C774.527 124.291 775.041 123.49 775.575 123.152C776.148 122.761 776.754 122.566 777.392 122.566ZM784.618 115.437H784.872C785.914 115.437 786.819 115.945 787.587 116.96C787.978 117.585 788.173 118.184 788.173 118.757V119.148C788.173 119.864 787.886 120.58 787.313 121.296C786.506 122.143 785.614 122.566 784.638 122.566H784.384C783.642 122.566 782.919 122.273 782.216 121.687C781.5 120.958 781.142 120.183 781.142 119.363V118.992C781.142 118.197 781.467 117.41 782.118 116.628C782.886 115.834 783.72 115.437 784.618 115.437ZM784.95 123.347H785.165C786.259 123.347 787.151 123.92 787.841 125.066C788.036 125.404 788.134 126.003 788.134 126.863C788.355 135.352 788.472 140.352 788.485 141.863C788.485 142.696 788.049 143.477 787.177 144.207C786.604 144.571 786.05 144.753 785.517 144.753H785.36C784.358 144.753 783.511 144.265 782.821 143.289C782.496 142.885 782.333 142.097 782.333 140.925C782.112 131.641 782.001 126.733 782.001 126.199C782.001 125.404 782.405 124.649 783.212 123.933C783.811 123.542 784.39 123.347 784.95 123.347ZM800.751 122.527H801.239C805.341 122.527 808.42 123.959 810.478 126.824C811.571 128.49 812.118 130.391 812.118 132.527C812.118 134.246 811.317 135.359 809.716 135.867C809.716 135.945 805.894 136.088 798.251 136.296C798.55 136.934 799.136 137.546 800.009 138.132C800.53 138.445 801.135 138.601 801.825 138.601H802.177C803.882 138.601 805.243 138.171 806.259 137.312C806.793 137.026 807.287 136.882 807.743 136.882H807.938C809.071 136.882 809.976 137.488 810.653 138.699C810.81 139.141 810.888 139.526 810.888 139.851V140.046C810.888 141.778 809.312 143.158 806.161 144.187C804.859 144.565 803.498 144.753 802.079 144.753C799.241 144.753 796.877 143.835 794.989 142C794.091 141.114 793.459 140.352 793.095 139.714C791.91 137.878 791.187 135.854 790.927 133.64C790.888 133.223 790.868 132.891 790.868 132.644V131.863C790.868 129.662 791.578 127.638 792.997 125.789C794.833 123.614 797.418 122.527 800.751 122.527ZM797.47 130.183H797.489C798.101 130.183 800.621 130.105 805.048 129.949V129.89C804.241 129.07 802.886 128.66 800.985 128.66C799.136 128.66 797.984 129.109 797.528 130.007C797.502 130.007 797.483 130.066 797.47 130.183ZM823.681 123.113H824.54C825.686 123.113 826.929 123.523 828.271 124.343C828.7 124.591 829.267 125.092 829.97 125.847C830.764 126.72 831.461 127.885 832.06 129.343C833.336 132.52 833.974 136.498 833.974 141.277C833.974 142.748 833.44 143.77 832.372 144.343C831.942 144.617 831.474 144.753 830.966 144.753H830.79C829.657 144.753 828.752 144.148 828.075 142.937C827.906 142.481 827.821 142.11 827.821 141.824C827.821 141.563 827.828 141.329 827.841 141.121C827.841 137.787 827.418 134.799 826.571 132.156C825.868 130.216 825.035 129.246 824.071 129.246H824.052C823.505 129.246 823.069 129.565 822.743 130.203C822.444 130.593 822.118 131.348 821.767 132.468C821.09 134.903 820.751 137.742 820.751 140.984V141.648C820.751 142.781 820.152 143.686 818.954 144.363C818.511 144.519 818.127 144.597 817.802 144.597H817.606C816.513 144.597 815.621 144.024 814.931 142.878C814.709 142.514 814.599 141.733 814.599 140.535C814.325 131.759 814.188 126.941 814.188 126.082C814.188 125.17 814.664 124.363 815.614 123.66C816.122 123.334 816.643 123.171 817.177 123.171H817.333C818.231 123.171 819.039 123.595 819.755 124.441H819.813C821.063 123.556 822.353 123.113 823.681 123.113ZM839.911 118.875H840.067C841.213 118.875 842.125 119.486 842.802 120.71C843.049 121.257 843.173 122.397 843.173 124.128C843.186 124.128 843.205 124.369 843.231 124.851L843.446 124.871C845.92 124.871 847.353 124.949 847.743 125.105C848.537 125.431 849.117 125.932 849.481 126.609C849.703 127.065 849.813 127.507 849.813 127.937V128.093C849.813 129.148 849.267 130.027 848.173 130.73C847.665 130.964 847.255 131.082 846.942 131.082L843.271 131.003V133.015C843.271 133.77 843.264 134.701 843.251 135.808C843.251 136.967 843.453 137.826 843.856 138.386C844.078 138.542 844.377 138.621 844.755 138.621C845.679 138.621 846.975 138.23 848.642 137.449C848.967 137.371 849.234 137.332 849.442 137.332H849.696C850.829 137.332 851.734 137.931 852.411 139.128C852.567 139.571 852.646 139.955 852.646 140.281V140.457C852.646 141.498 852.112 142.377 851.044 143.093C848.804 144.2 846.695 144.753 844.716 144.753C842.138 144.753 840.126 143.744 838.681 141.726C837.639 140.111 837.118 138.256 837.118 136.16C837.131 134.493 837.138 133.119 837.138 132.039V130.867H836.845C835.894 130.867 835.074 130.444 834.384 129.597C833.993 129.037 833.798 128.464 833.798 127.878V127.683C833.798 126.55 834.403 125.645 835.614 124.968C836.044 124.812 836.422 124.734 836.747 124.734H837.079L836.923 121.824C836.923 120.99 837.34 120.203 838.173 119.46C838.772 119.07 839.351 118.875 839.911 118.875ZM873.915 122.527H874.403C878.505 122.527 881.584 123.959 883.642 126.824C884.735 128.49 885.282 130.391 885.282 132.527C885.282 134.246 884.481 135.359 882.88 135.867C882.88 135.945 879.058 136.088 871.415 136.296C871.715 136.934 872.3 137.546 873.173 138.132C873.694 138.445 874.299 138.601 874.989 138.601H875.341C877.047 138.601 878.407 138.171 879.423 137.312C879.957 137.026 880.451 136.882 880.907 136.882H881.103C882.235 136.882 883.14 137.488 883.817 138.699C883.974 139.141 884.052 139.526 884.052 139.851V140.046C884.052 141.778 882.476 143.158 879.325 144.187C878.023 144.565 876.662 144.753 875.243 144.753C872.405 144.753 870.041 143.835 868.153 142C867.255 141.114 866.623 140.352 866.259 139.714C865.074 137.878 864.351 135.854 864.091 133.64C864.052 133.223 864.032 132.891 864.032 132.644V131.863C864.032 129.662 864.742 127.638 866.161 125.789C867.997 123.614 870.582 122.527 873.915 122.527ZM870.634 130.183H870.653C871.265 130.183 873.785 130.105 878.212 129.949V129.89C877.405 129.07 876.05 128.66 874.149 128.66C872.3 128.66 871.148 129.109 870.692 130.007C870.666 130.007 870.647 130.066 870.634 130.183ZM892.216 118.875H892.372C893.518 118.875 894.429 119.486 895.106 120.71C895.354 121.257 895.478 122.397 895.478 124.128C895.491 124.128 895.51 124.369 895.536 124.851L895.751 124.871C898.225 124.871 899.657 124.949 900.048 125.105C900.842 125.431 901.422 125.932 901.786 126.609C902.007 127.065 902.118 127.507 902.118 127.937V128.093C902.118 129.148 901.571 130.027 900.478 130.73C899.97 130.964 899.56 131.082 899.247 131.082L895.575 131.003V133.015C895.575 133.77 895.569 134.701 895.556 135.808C895.556 136.967 895.757 137.826 896.161 138.386C896.382 138.542 896.682 138.621 897.06 138.621C897.984 138.621 899.28 138.23 900.946 137.449C901.272 137.371 901.539 137.332 901.747 137.332H902.001C903.134 137.332 904.039 137.931 904.716 139.128C904.872 139.571 904.95 139.955 904.95 140.281V140.457C904.95 141.498 904.416 142.377 903.349 143.093C901.109 144.2 899 144.753 897.021 144.753C894.442 144.753 892.431 143.744 890.985 141.726C889.944 140.111 889.423 138.256 889.423 136.16C889.436 134.493 889.442 133.119 889.442 132.039V130.867H889.149C888.199 130.867 887.379 130.444 886.688 129.597C886.298 129.037 886.103 128.464 886.103 127.878V127.683C886.103 126.55 886.708 125.645 887.919 124.968C888.349 124.812 888.726 124.734 889.052 124.734H889.384L889.228 121.824C889.228 120.99 889.644 120.203 890.478 119.46C891.076 119.07 891.656 118.875 892.216 118.875ZM924.228 122.644L924.618 122.625C924.813 122.611 925.009 122.605 925.204 122.605C927.248 122.605 929.657 123.041 932.431 123.914C933.681 124.526 934.338 125.444 934.403 126.667V126.824C934.403 127.865 933.882 128.738 932.841 129.441C932.346 129.675 931.877 129.806 931.435 129.832H931.396C931.005 129.832 930.08 129.617 928.622 129.187C927.307 128.888 926.142 128.738 925.126 128.738C924.97 128.738 924.82 128.744 924.677 128.757C923.687 128.809 923.056 128.998 922.782 129.324C923.407 129.74 925.256 130.385 928.329 131.257C932.457 132.559 934.586 134.591 934.716 137.351V137.703C934.716 138.901 934.299 140.138 933.466 141.414C931.916 143.471 929.527 144.571 926.298 144.714L925.927 144.734C925.666 144.747 925.399 144.753 925.126 144.753C923.134 144.753 920.868 144.415 918.329 143.738C917.717 143.464 917.222 143.035 916.845 142.449C916.571 141.954 916.428 141.479 916.415 141.023V140.867C916.415 139.916 916.851 139.089 917.724 138.386C918.244 138.048 918.791 137.865 919.364 137.839H919.403C919.677 137.839 920.458 137.976 921.747 138.25C922.997 138.497 924.156 138.621 925.224 138.621C925.458 138.621 925.686 138.614 925.907 138.601C927.144 138.549 927.971 138.328 928.388 137.937V137.898C927.88 137.559 926.246 136.993 923.485 136.199C918.98 134.871 916.662 132.761 916.532 129.871V129.5C916.532 128.067 917.06 126.687 918.114 125.359C919.586 123.666 921.623 122.761 924.228 122.644ZM947.47 122.097C949.644 122.097 951.942 122.559 954.364 123.484C955.549 124.148 956.142 125.098 956.142 126.335L956.122 126.628C956.643 127.175 956.903 128.074 956.903 129.324C956.929 129.324 956.942 129.747 956.942 130.593C956.942 131.427 956.936 132.273 956.923 133.132C957.027 138.041 957.079 140.821 957.079 141.472C957.079 142.371 956.656 143.171 955.81 143.875C955.237 144.265 954.631 144.46 953.993 144.46C953.121 144.46 952.346 144.102 951.669 143.386L951.63 143.367C949.768 144.291 947.991 144.753 946.298 144.753H945.771C943.739 144.753 941.858 144.102 940.126 142.8C937.782 140.821 936.61 138.022 936.61 134.402C936.61 130.248 937.782 127.026 940.126 124.734C942.079 122.976 944.527 122.097 947.47 122.097ZM942.743 134.343C942.743 136.414 943.29 137.729 944.384 138.289C944.826 138.51 945.367 138.621 946.005 138.621H946.044C947.346 138.621 948.485 138.236 949.462 137.468C949.67 137.247 949.885 136.856 950.106 136.296C950.549 134.916 950.771 133.666 950.771 132.546C950.771 132.013 950.757 130.736 950.731 128.718C949.534 128.393 948.433 128.23 947.431 128.23C945.412 128.23 944.084 128.966 943.446 130.437C942.978 131.596 942.743 132.898 942.743 134.343ZM962.938 123.171C964.006 123.171 964.885 123.692 965.575 124.734C965.849 125.255 965.985 125.736 965.985 126.179C965.907 127.377 965.868 128.399 965.868 129.246C965.868 133.321 966.435 136.218 967.567 137.937C967.88 138.367 968.271 138.582 968.739 138.582C969.468 138.582 970.132 137.996 970.731 136.824C971.031 136.316 971.369 135.457 971.747 134.246C972.112 133.243 972.463 131.511 972.802 129.05C972.919 128.009 973.01 126.967 973.075 125.925C973.231 125.183 973.498 124.63 973.876 124.265C974.527 123.614 975.276 123.289 976.122 123.289C977.125 123.289 977.978 123.77 978.681 124.734C979.019 125.138 979.188 126.01 979.188 127.351C979.475 136.231 979.618 141.023 979.618 141.726C979.618 142.794 979.104 143.666 978.075 144.343C977.58 144.617 977.066 144.753 976.532 144.753C975.347 144.753 974.41 144.128 973.72 142.878H973.681C972.222 144.089 970.569 144.695 968.72 144.695C966.129 144.695 964.013 143.516 962.372 141.16C960.614 138.503 959.735 134.532 959.735 129.246C959.735 126.902 959.859 125.496 960.106 125.027C960.757 123.79 961.701 123.171 962.938 123.171ZM998.837 122.566C999.944 122.566 1000.84 123.126 1001.53 124.246C1001.75 124.74 1001.86 125.209 1001.86 125.652C1001.86 126.199 1001.58 127.039 1001.02 128.171C997.366 136.674 995.191 141.694 994.501 143.23C993.811 144.246 992.925 144.753 991.845 144.753C990.425 144.753 989.358 143.875 988.642 142.117C983.603 132.455 981.011 127.442 980.868 127.078C980.764 126.661 980.712 126.329 980.712 126.082C980.712 125.053 981.187 124.194 982.138 123.503C982.672 123.178 983.225 123.015 983.798 123.015C984.866 123.015 985.744 123.536 986.435 124.578C989.82 131.114 991.545 134.421 991.61 134.5C991.675 134.421 992.965 131.44 995.478 125.554C995.972 124.291 996.487 123.49 997.021 123.152C997.593 122.761 998.199 122.566 998.837 122.566ZM1012.39 122.527H1012.88C1016.98 122.527 1020.06 123.959 1022.12 126.824C1023.21 128.49 1023.76 130.391 1023.76 132.527C1023.76 134.246 1022.96 135.359 1021.36 135.867C1021.36 135.945 1017.53 136.088 1009.89 136.296C1010.19 136.934 1010.78 137.546 1011.65 138.132C1012.17 138.445 1012.78 138.601 1013.47 138.601H1013.82C1015.52 138.601 1016.88 138.171 1017.9 137.312C1018.43 137.026 1018.93 136.882 1019.38 136.882H1019.58C1020.71 136.882 1021.62 137.488 1022.29 138.699C1022.45 139.141 1022.53 139.526 1022.53 139.851V140.046C1022.53 141.778 1020.95 143.158 1017.8 144.187C1016.5 144.565 1015.14 144.753 1013.72 144.753C1010.88 144.753 1008.52 143.835 1006.63 142C1005.73 141.114 1005.1 140.352 1004.74 139.714C1003.55 137.878 1002.83 135.854 1002.57 133.64C1002.53 133.223 1002.51 132.891 1002.51 132.644V131.863C1002.51 129.662 1003.22 127.638 1004.64 125.789C1006.47 123.614 1009.06 122.527 1012.39 122.527ZM1009.11 130.183H1009.13C1009.74 130.183 1012.26 130.105 1016.69 129.949V129.89C1015.88 129.07 1014.53 128.66 1012.63 128.66C1010.78 128.66 1009.62 129.109 1009.17 130.007C1009.14 130.007 1009.12 130.066 1009.11 130.183ZM1041.75 122.605C1042.35 122.605 1042.98 122.898 1043.66 123.484C1044.27 124.148 1044.58 124.858 1044.58 125.613V125.73C1044.58 126.615 1044.13 127.488 1043.23 128.347L1034.34 138.406V138.445C1038.25 138.354 1040.37 138.308 1040.69 138.308C1041.34 138.308 1042.01 138.614 1042.68 139.226C1043.27 139.864 1043.56 140.548 1043.56 141.277V141.453C1043.56 142.429 1043.08 143.269 1042.12 143.972C1041.7 144.298 1040.91 144.46 1039.75 144.46C1031.85 144.656 1027.65 144.753 1027.16 144.753C1026.38 144.753 1025.64 144.369 1024.95 143.601C1024.49 142.989 1024.27 142.371 1024.27 141.746V141.628C1024.27 140.756 1024.72 139.884 1025.61 139.011L1034.62 128.816C1034.62 128.79 1034.61 128.777 1034.6 128.777C1033.69 128.777 1031.7 128.79 1028.64 128.816C1028.06 128.816 1027.44 128.542 1026.79 127.996C1026.14 127.358 1025.81 126.641 1025.81 125.847V125.652C1025.81 124.61 1026.34 123.744 1027.41 123.054C1027.92 122.807 1028.34 122.683 1028.66 122.683L1041.75 122.605ZM1059.19 123.171C1060.26 123.171 1061.14 123.692 1061.83 124.734C1062.1 125.255 1062.24 125.736 1062.24 126.179C1062.16 127.377 1062.12 128.399 1062.12 129.246C1062.12 133.321 1062.68 136.218 1063.82 137.937C1064.13 138.367 1064.52 138.582 1064.99 138.582C1065.72 138.582 1066.38 137.996 1066.98 136.824C1067.28 136.316 1067.62 135.457 1068 134.246C1068.36 133.243 1068.71 131.511 1069.05 129.05C1069.17 128.009 1069.26 126.967 1069.33 125.925C1069.48 125.183 1069.75 124.63 1070.13 124.265C1070.78 123.614 1071.53 123.289 1072.37 123.289C1073.37 123.289 1074.23 123.77 1074.93 124.734C1075.27 125.138 1075.44 126.01 1075.44 127.351C1075.72 136.231 1075.87 141.023 1075.87 141.726C1075.87 142.794 1075.35 143.666 1074.33 144.343C1073.83 144.617 1073.32 144.753 1072.78 144.753C1071.6 144.753 1070.66 144.128 1069.97 142.878H1069.93C1068.47 144.089 1066.82 144.695 1064.97 144.695C1062.38 144.695 1060.26 143.516 1058.62 141.16C1056.86 138.503 1055.99 134.532 1055.99 129.246C1055.99 126.902 1056.11 125.496 1056.36 125.027C1057.01 123.79 1057.95 123.171 1059.19 123.171ZM1088.72 123.113H1089.58C1090.72 123.113 1091.97 123.523 1093.31 124.343C1093.74 124.591 1094.31 125.092 1095.01 125.847C1095.8 126.72 1096.5 127.885 1097.1 129.343C1098.37 132.52 1099.01 136.498 1099.01 141.277C1099.01 142.748 1098.48 143.77 1097.41 144.343C1096.98 144.617 1096.51 144.753 1096 144.753H1095.83C1094.7 144.753 1093.79 144.148 1093.11 142.937C1092.94 142.481 1092.86 142.11 1092.86 141.824C1092.86 141.563 1092.87 141.329 1092.88 141.121C1092.88 137.787 1092.46 134.799 1091.61 132.156C1090.91 130.216 1090.07 129.246 1089.11 129.246H1089.09C1088.54 129.246 1088.11 129.565 1087.78 130.203C1087.48 130.593 1087.16 131.348 1086.81 132.468C1086.13 134.903 1085.79 137.742 1085.79 140.984V141.648C1085.79 142.781 1085.19 143.686 1083.99 144.363C1083.55 144.519 1083.17 144.597 1082.84 144.597H1082.65C1081.55 144.597 1080.66 144.024 1079.97 142.878C1079.75 142.514 1079.64 141.733 1079.64 140.535C1079.36 131.759 1079.23 126.941 1079.23 126.082C1079.23 125.17 1079.7 124.363 1080.65 123.66C1081.16 123.334 1081.68 123.171 1082.22 123.171H1082.37C1083.27 123.171 1084.08 123.595 1084.79 124.441H1084.85C1086.1 123.556 1087.39 123.113 1088.72 123.113ZM1110.36 122.527H1110.85C1114.95 122.527 1118.03 123.959 1120.09 126.824C1121.18 128.49 1121.73 130.391 1121.73 132.527C1121.73 134.246 1120.93 135.359 1119.33 135.867C1119.33 135.945 1115.5 136.088 1107.86 136.296C1108.16 136.934 1108.75 137.546 1109.62 138.132C1110.14 138.445 1110.74 138.601 1111.43 138.601H1111.79C1113.49 138.601 1114.85 138.171 1115.87 137.312C1116.4 137.026 1116.9 136.882 1117.35 136.882H1117.55C1118.68 136.882 1119.59 137.488 1120.26 138.699C1120.42 139.141 1120.5 139.526 1120.5 139.851V140.046C1120.5 141.778 1118.92 143.158 1115.77 144.187C1114.47 144.565 1113.11 144.753 1111.69 144.753C1108.85 144.753 1106.49 143.835 1104.6 142C1103.7 141.114 1103.07 140.352 1102.7 139.714C1101.52 137.878 1100.8 135.854 1100.54 133.64C1100.5 133.223 1100.48 132.891 1100.48 132.644V131.863C1100.48 129.662 1101.19 127.638 1102.61 125.789C1104.44 123.614 1107.03 122.527 1110.36 122.527ZM1107.08 130.183H1107.1C1107.71 130.183 1110.23 130.105 1114.66 129.949V129.89C1113.85 129.07 1112.5 128.66 1110.59 128.66C1108.75 128.66 1107.59 129.109 1107.14 130.007C1107.11 130.007 1107.09 130.066 1107.08 130.183ZM1151.22 122.566C1152.33 122.566 1153.22 123.126 1153.92 124.246C1154.14 124.74 1154.25 125.209 1154.25 125.652C1154.25 126.199 1153.97 127.039 1153.41 128.171C1149.75 136.674 1147.57 141.694 1146.88 143.23C1146.19 144.246 1145.31 144.753 1144.23 144.753C1142.81 144.753 1141.74 143.875 1141.02 142.117C1135.99 132.455 1133.39 127.442 1133.25 127.078C1133.15 126.661 1133.09 126.329 1133.09 126.082C1133.09 125.053 1133.57 124.194 1134.52 123.503C1135.05 123.178 1135.61 123.015 1136.18 123.015C1137.25 123.015 1138.13 123.536 1138.82 124.578C1142.2 131.114 1143.93 134.421 1143.99 134.5C1144.06 134.421 1145.35 131.44 1147.86 125.554C1148.36 124.291 1148.87 123.49 1149.4 123.152C1149.98 122.761 1150.58 122.566 1151.22 122.566ZM1158.45 115.437H1158.7C1159.74 115.437 1160.65 115.945 1161.42 116.96C1161.81 117.585 1162 118.184 1162 118.757V119.148C1162 119.864 1161.71 120.58 1161.14 121.296C1160.33 122.143 1159.44 122.566 1158.47 122.566H1158.21C1157.47 122.566 1156.75 122.273 1156.04 121.687C1155.33 120.958 1154.97 120.183 1154.97 119.363V118.992C1154.97 118.197 1155.3 117.41 1155.95 116.628C1156.71 115.834 1157.55 115.437 1158.45 115.437ZM1158.78 123.347H1158.99C1160.09 123.347 1160.98 123.92 1161.67 125.066C1161.86 125.404 1161.96 126.003 1161.96 126.863C1162.18 135.352 1162.3 140.352 1162.31 141.863C1162.31 142.696 1161.88 143.477 1161 144.207C1160.43 144.571 1159.88 144.753 1159.34 144.753H1159.19C1158.19 144.753 1157.34 144.265 1156.65 143.289C1156.32 142.885 1156.16 142.097 1156.16 140.925C1155.94 131.641 1155.83 126.733 1155.83 126.199C1155.83 125.404 1156.23 124.649 1157.04 123.933C1157.64 123.542 1158.22 123.347 1158.78 123.347ZM1174.58 122.527H1175.07C1179.17 122.527 1182.25 123.959 1184.31 126.824C1185.4 128.49 1185.95 130.391 1185.95 132.527C1185.95 134.246 1185.15 135.359 1183.54 135.867C1183.54 135.945 1179.72 136.088 1172.08 136.296C1172.38 136.934 1172.96 137.546 1173.84 138.132C1174.36 138.445 1174.96 138.601 1175.65 138.601H1176C1177.71 138.601 1179.07 138.171 1180.09 137.312C1180.62 137.026 1181.12 136.882 1181.57 136.882H1181.77C1182.9 136.882 1183.8 137.488 1184.48 138.699C1184.64 139.141 1184.72 139.526 1184.72 139.851V140.046C1184.72 141.778 1183.14 143.158 1179.99 144.187C1178.69 144.565 1177.33 144.753 1175.91 144.753C1173.07 144.753 1170.71 143.835 1168.82 142C1167.92 141.114 1167.29 140.352 1166.92 139.714C1165.74 137.878 1165.02 135.854 1164.75 133.64C1164.72 133.223 1164.7 132.891 1164.7 132.644V131.863C1164.7 129.662 1165.41 127.638 1166.83 125.789C1168.66 123.614 1171.25 122.527 1174.58 122.527ZM1171.3 130.183H1171.32C1171.93 130.183 1174.45 130.105 1178.88 129.949V129.89C1178.07 129.07 1176.71 128.66 1174.81 128.66C1172.96 128.66 1171.81 129.109 1171.36 130.007C1171.33 130.007 1171.31 130.066 1171.3 130.183ZM1200.46 116.375H1200.65C1201.79 116.375 1202.69 116.98 1203.37 118.191C1203.54 118.634 1203.62 119.018 1203.62 119.343V133.23C1203.62 134.285 1203.08 135.164 1201.98 135.867C1201.5 136.088 1201.05 136.199 1200.63 136.199H1200.46C1199.39 136.199 1198.51 135.645 1197.82 134.539C1197.6 134.057 1197.49 133.614 1197.49 133.21V119.363C1197.49 118.308 1198.04 117.429 1199.13 116.726C1199.61 116.492 1200.05 116.375 1200.46 116.375ZM1200.73 137.937H1200.95C1201.97 137.937 1202.88 138.425 1203.66 139.402C1204.09 140.027 1204.31 140.652 1204.31 141.277V141.472C1204.31 142.527 1203.79 143.432 1202.76 144.187C1202.16 144.565 1201.58 144.753 1201 144.753H1200.56C1199.51 144.753 1198.62 144.259 1197.88 143.269C1197.5 142.696 1197.31 142.123 1197.31 141.55V141.277C1197.31 140.261 1197.83 139.343 1198.88 138.523C1199.51 138.132 1200.13 137.937 1200.73 137.937Z" fill="#272626"/>
<rect x="697" y="172" width="247" height="58" rx="10" fill="#E2168C"/>
<path d="M724.033 195.217C724.97 195.217 725.832 195.582 726.619 196.311C727.291 196.973 727.627 197.535 727.627 197.999C727.627 198.41 727.436 198.751 727.056 199.022C726.843 199.152 726.621 199.217 726.392 199.217C725.913 199.217 725.525 198.954 725.228 198.428C724.858 197.923 724.452 197.671 724.009 197.671C723.686 197.671 723.322 197.79 722.916 198.03C722.707 198.197 722.548 198.371 722.439 198.553C722.074 199.189 721.892 199.954 721.892 200.85C721.892 201.892 722.137 202.751 722.627 203.428C722.804 203.694 723.129 203.889 723.603 204.014C723.905 204.092 724.166 204.131 724.384 204.131C724.817 204.131 725.111 203.986 725.267 203.694C725.533 203.387 725.856 203.233 726.236 203.233C726.647 203.233 726.989 203.423 727.259 203.803C727.39 204.017 727.455 204.238 727.455 204.467C727.455 204.973 727.098 205.486 726.384 206.006C725.791 206.392 725.127 206.585 724.392 206.585C723.554 206.585 722.707 206.374 721.853 205.952C720.983 205.457 720.319 204.603 719.861 203.389C719.58 202.561 719.439 201.738 719.439 200.921V200.772C719.439 199.283 719.832 197.988 720.619 196.889C721.056 196.379 721.395 196.066 721.634 195.952C722.426 195.462 723.226 195.217 724.033 195.217ZM732.067 197.913H732.356C733.179 197.913 733.945 198.217 734.653 198.827C735.044 199.223 735.33 199.605 735.513 199.975C735.872 200.704 736.052 201.486 736.052 202.319C736.052 203.496 735.708 204.506 735.02 205.35C734.624 205.767 734.351 206.001 734.2 206.053C733.643 206.408 733.049 206.585 732.419 206.585H732.239C731.401 206.585 730.601 206.327 729.841 205.811C729.731 205.764 729.479 205.53 729.083 205.108C728.427 204.296 728.098 203.342 728.098 202.249C728.098 201.082 728.484 200.059 729.255 199.178C729.656 198.788 729.945 198.553 730.122 198.475C730.773 198.1 731.421 197.913 732.067 197.913ZM730.552 202.256C730.552 202.861 730.757 203.353 731.169 203.733C731.507 203.999 731.893 204.131 732.325 204.131C732.888 204.131 733.276 203.783 733.489 203.085C733.557 202.829 733.591 202.59 733.591 202.366V202.256C733.591 201.585 733.382 201.038 732.966 200.616C732.768 200.449 732.52 200.366 732.223 200.366C731.494 200.366 730.981 200.736 730.684 201.475C730.596 201.777 730.552 202.038 730.552 202.256ZM740.977 197.928H741.32C741.779 197.928 742.276 198.092 742.813 198.421C742.984 198.519 743.211 198.72 743.492 199.022C743.81 199.371 744.089 199.837 744.328 200.421C744.839 201.691 745.094 203.283 745.094 205.194C745.094 205.783 744.88 206.191 744.453 206.421C744.281 206.53 744.094 206.585 743.891 206.585H743.82C743.367 206.585 743.005 206.342 742.734 205.858C742.667 205.676 742.633 205.527 742.633 205.413C742.633 205.309 742.635 205.215 742.641 205.131C742.641 203.798 742.471 202.603 742.133 201.546C741.852 200.769 741.518 200.381 741.133 200.381H741.125C740.906 200.381 740.732 200.509 740.602 200.764C740.482 200.921 740.352 201.223 740.211 201.671C739.94 202.644 739.805 203.78 739.805 205.077V205.342C739.805 205.796 739.565 206.158 739.086 206.428C738.909 206.491 738.755 206.522 738.625 206.522H738.547C738.109 206.522 737.753 206.293 737.477 205.835C737.388 205.689 737.344 205.376 737.344 204.897C737.234 201.387 737.18 199.46 737.18 199.116C737.18 198.751 737.37 198.428 737.75 198.147C737.953 198.017 738.161 197.952 738.375 197.952H738.438C738.797 197.952 739.12 198.121 739.406 198.46H739.43C739.93 198.105 740.445 197.928 740.977 197.928ZM747.769 196.233H747.831C748.29 196.233 748.654 196.478 748.925 196.967C749.024 197.186 749.073 197.642 749.073 198.335C749.079 198.335 749.086 198.431 749.097 198.624L749.183 198.631C750.172 198.631 750.745 198.663 750.902 198.725C751.219 198.855 751.451 199.056 751.597 199.327C751.685 199.509 751.73 199.686 751.73 199.858V199.921C751.73 200.342 751.511 200.694 751.073 200.975C750.87 201.069 750.706 201.116 750.581 201.116L749.113 201.085V201.889C749.113 202.191 749.11 202.564 749.105 203.006C749.105 203.47 749.185 203.814 749.347 204.038C749.435 204.1 749.555 204.131 749.706 204.131C750.076 204.131 750.594 203.975 751.261 203.663C751.391 203.631 751.498 203.616 751.581 203.616H751.683C752.136 203.616 752.498 203.855 752.769 204.335C752.831 204.512 752.863 204.665 752.863 204.796V204.866C752.863 205.283 752.649 205.634 752.222 205.921C751.326 206.363 750.482 206.585 749.691 206.585C748.659 206.585 747.855 206.181 747.277 205.374C746.86 204.728 746.652 203.986 746.652 203.147C746.657 202.48 746.659 201.931 746.659 201.499V201.03H746.542C746.162 201.03 745.834 200.861 745.558 200.522C745.402 200.298 745.323 200.069 745.323 199.835V199.756C745.323 199.303 745.566 198.941 746.05 198.671C746.222 198.608 746.373 198.577 746.503 198.577H746.636L746.573 197.413C746.573 197.079 746.74 196.764 747.073 196.467C747.313 196.311 747.545 196.233 747.769 196.233ZM757.795 197.522C758.665 197.522 759.584 197.707 760.553 198.077C761.027 198.342 761.264 198.723 761.264 199.217L761.256 199.335C761.465 199.553 761.569 199.913 761.569 200.413C761.579 200.413 761.584 200.582 761.584 200.921C761.584 201.254 761.582 201.592 761.577 201.936C761.618 203.9 761.639 205.012 761.639 205.272C761.639 205.631 761.47 205.952 761.131 206.233C760.902 206.389 760.66 206.467 760.405 206.467C760.056 206.467 759.746 206.324 759.475 206.038L759.459 206.03C758.715 206.4 758.004 206.585 757.327 206.585H757.116C756.303 206.585 755.551 206.324 754.858 205.803C753.92 205.012 753.452 203.892 753.452 202.444C753.452 200.783 753.92 199.493 754.858 198.577C755.639 197.874 756.618 197.522 757.795 197.522ZM755.905 202.421C755.905 203.249 756.123 203.775 756.561 203.999C756.738 204.087 756.954 204.131 757.209 204.131H757.225C757.746 204.131 758.202 203.978 758.592 203.671C758.676 203.582 758.761 203.426 758.85 203.202C759.027 202.65 759.116 202.15 759.116 201.702C759.116 201.488 759.11 200.978 759.1 200.171C758.621 200.04 758.181 199.975 757.78 199.975C756.972 199.975 756.441 200.269 756.186 200.858C755.998 201.322 755.905 201.842 755.905 202.421ZM767.627 197.514H767.713C768.728 197.514 769.744 197.853 770.759 198.53C771.14 198.811 771.33 199.158 771.33 199.569C771.33 200.017 771.103 200.379 770.65 200.655C770.452 200.738 770.265 200.78 770.088 200.78C769.801 200.78 769.512 200.668 769.22 200.444C768.689 200.121 768.171 199.96 767.666 199.96C767.025 199.96 766.452 200.225 765.947 200.756C765.608 201.152 765.439 201.595 765.439 202.085V202.131C765.439 202.814 765.731 203.361 766.314 203.772C766.762 204.012 767.226 204.131 767.705 204.131C768.22 204.131 768.713 203.965 769.181 203.631C769.384 203.517 769.595 203.46 769.814 203.46C770.236 203.46 770.585 203.665 770.861 204.077C770.97 204.275 771.025 204.478 771.025 204.686C771.025 205.259 770.637 205.72 769.861 206.069C769.173 206.413 768.468 206.585 767.744 206.585H767.619C766.723 206.585 765.832 206.324 764.947 205.803C764.744 205.678 764.452 205.423 764.072 205.038C763.827 204.736 763.634 204.457 763.494 204.202C763.155 203.499 762.986 202.85 762.986 202.256V201.952C762.986 201.301 763.181 200.611 763.572 199.881C763.713 199.605 763.981 199.267 764.377 198.866C764.793 198.48 765.166 198.212 765.494 198.061C766.186 197.697 766.897 197.514 767.627 197.514ZM774.653 196.233H774.716C775.174 196.233 775.539 196.478 775.809 196.967C775.908 197.186 775.958 197.642 775.958 198.335C775.963 198.335 775.971 198.431 775.981 198.624L776.067 198.631C777.057 198.631 777.63 198.663 777.786 198.725C778.104 198.855 778.335 199.056 778.481 199.327C778.57 199.509 778.614 199.686 778.614 199.858V199.921C778.614 200.342 778.395 200.694 777.958 200.975C777.755 201.069 777.591 201.116 777.466 201.116L775.997 201.085V201.889C775.997 202.191 775.994 202.564 775.989 203.006C775.989 203.47 776.07 203.814 776.231 204.038C776.32 204.1 776.44 204.131 776.591 204.131C776.96 204.131 777.479 203.975 778.145 203.663C778.276 203.631 778.382 203.616 778.466 203.616H778.567C779.02 203.616 779.382 203.855 779.653 204.335C779.716 204.512 779.747 204.665 779.747 204.796V204.866C779.747 205.283 779.533 205.634 779.106 205.921C778.21 206.363 777.367 206.585 776.575 206.585C775.544 206.585 774.739 206.181 774.161 205.374C773.744 204.728 773.536 203.986 773.536 203.147C773.541 202.48 773.544 201.931 773.544 201.499V201.03H773.427C773.046 201.03 772.718 200.861 772.442 200.522C772.286 200.298 772.208 200.069 772.208 199.835V199.756C772.208 199.303 772.45 198.941 772.934 198.671C773.106 198.608 773.257 198.577 773.388 198.577H773.52L773.458 197.413C773.458 197.079 773.624 196.764 773.958 196.467C774.197 196.311 774.429 196.233 774.653 196.233ZM783.867 197.694H784.062C785.703 197.694 786.935 198.267 787.758 199.413C788.195 200.079 788.414 200.84 788.414 201.694C788.414 202.381 788.094 202.827 787.453 203.03C787.453 203.061 785.924 203.118 782.867 203.202C782.987 203.457 783.221 203.702 783.57 203.936C783.779 204.061 784.021 204.124 784.297 204.124H784.438C785.12 204.124 785.664 203.952 786.07 203.608C786.284 203.493 786.482 203.436 786.664 203.436H786.742C787.195 203.436 787.557 203.678 787.828 204.163C787.891 204.34 787.922 204.493 787.922 204.624V204.702C787.922 205.394 787.292 205.947 786.031 206.358C785.51 206.509 784.966 206.585 784.398 206.585C783.263 206.585 782.318 206.217 781.562 205.483C781.203 205.129 780.951 204.824 780.805 204.569C780.331 203.835 780.042 203.025 779.938 202.139C779.922 201.973 779.914 201.84 779.914 201.741V201.428C779.914 200.548 780.198 199.738 780.766 198.999C781.5 198.129 782.534 197.694 783.867 197.694ZM782.555 200.756H782.562C782.807 200.756 783.815 200.725 785.586 200.663V200.639C785.263 200.311 784.721 200.147 783.961 200.147C783.221 200.147 782.76 200.327 782.578 200.686C782.568 200.686 782.56 200.71 782.555 200.756ZM795.909 197.725C796.149 197.725 796.404 197.842 796.675 198.077C796.92 198.342 797.042 198.626 797.042 198.928V198.975C797.042 199.329 796.863 199.678 796.503 200.022L792.948 204.046V204.061C794.511 204.025 795.357 204.006 795.488 204.006C795.748 204.006 796.014 204.129 796.284 204.374C796.519 204.629 796.636 204.902 796.636 205.194V205.264C796.636 205.655 796.443 205.991 796.058 206.272C795.891 206.402 795.576 206.467 795.113 206.467C791.951 206.546 790.271 206.585 790.073 206.585C789.761 206.585 789.467 206.431 789.191 206.124C789.008 205.879 788.917 205.631 788.917 205.381V205.335C788.917 204.986 789.097 204.637 789.456 204.288L793.058 200.21C793.058 200.199 793.055 200.194 793.05 200.194C792.685 200.194 791.891 200.199 790.667 200.21C790.433 200.21 790.185 200.1 789.925 199.881C789.665 199.626 789.534 199.34 789.534 199.022V198.944C789.534 198.527 789.748 198.181 790.175 197.905C790.378 197.806 790.545 197.756 790.675 197.756L795.909 197.725ZM803.486 197.952C803.913 197.952 804.265 198.16 804.541 198.577C804.65 198.785 804.705 198.978 804.705 199.155C804.673 199.634 804.658 200.043 804.658 200.381C804.658 202.012 804.884 203.171 805.338 203.858C805.463 204.03 805.619 204.116 805.806 204.116C806.098 204.116 806.364 203.881 806.603 203.413C806.723 203.21 806.858 202.866 807.009 202.381C807.155 201.98 807.296 201.288 807.431 200.303C807.478 199.887 807.515 199.47 807.541 199.053C807.603 198.756 807.71 198.535 807.861 198.389C808.121 198.129 808.421 197.999 808.759 197.999C809.16 197.999 809.502 198.191 809.783 198.577C809.918 198.738 809.986 199.087 809.986 199.624C810.101 203.176 810.158 205.092 810.158 205.374C810.158 205.801 809.952 206.15 809.541 206.421C809.343 206.53 809.137 206.585 808.923 206.585C808.449 206.585 808.074 206.335 807.798 205.835H807.783C807.199 206.319 806.538 206.561 805.798 206.561C804.762 206.561 803.916 206.09 803.259 205.147C802.556 204.085 802.205 202.496 802.205 200.381C802.205 199.444 802.254 198.881 802.353 198.694C802.614 198.199 802.991 197.952 803.486 197.952ZM815.598 197.928H815.942C816.401 197.928 816.898 198.092 817.434 198.421C817.606 198.519 817.833 198.72 818.114 199.022C818.432 199.371 818.71 199.837 818.95 200.421C819.46 201.691 819.716 203.283 819.716 205.194C819.716 205.783 819.502 206.191 819.075 206.421C818.903 206.53 818.716 206.585 818.513 206.585H818.442C817.989 206.585 817.627 206.342 817.356 205.858C817.289 205.676 817.255 205.527 817.255 205.413C817.255 205.309 817.257 205.215 817.263 205.131C817.263 203.798 817.093 202.603 816.755 201.546C816.473 200.769 816.14 200.381 815.755 200.381H815.747C815.528 200.381 815.354 200.509 815.223 200.764C815.104 200.921 814.973 201.223 814.833 201.671C814.562 202.644 814.427 203.78 814.427 205.077V205.342C814.427 205.796 814.187 206.158 813.708 206.428C813.531 206.491 813.377 206.522 813.247 206.522H813.169C812.731 206.522 812.374 206.293 812.098 205.835C812.01 205.689 811.966 205.376 811.966 204.897C811.856 201.387 811.802 199.46 811.802 199.116C811.802 198.751 811.992 198.428 812.372 198.147C812.575 198.017 812.783 197.952 812.997 197.952H813.059C813.419 197.952 813.742 198.121 814.028 198.46H814.052C814.552 198.105 815.067 197.928 815.598 197.928ZM824.555 197.694H824.75C826.391 197.694 827.622 198.267 828.445 199.413C828.883 200.079 829.102 200.84 829.102 201.694C829.102 202.381 828.781 202.827 828.141 203.03C828.141 203.061 826.612 203.118 823.555 203.202C823.674 203.457 823.909 203.702 824.258 203.936C824.466 204.061 824.708 204.124 824.984 204.124H825.125C825.807 204.124 826.352 203.952 826.758 203.608C826.971 203.493 827.169 203.436 827.352 203.436H827.43C827.883 203.436 828.245 203.678 828.516 204.163C828.578 204.34 828.609 204.493 828.609 204.624V204.702C828.609 205.394 827.979 205.947 826.719 206.358C826.198 206.509 825.654 206.585 825.086 206.585C823.951 206.585 823.005 206.217 822.25 205.483C821.891 205.129 821.638 204.824 821.492 204.569C821.018 203.835 820.729 203.025 820.625 202.139C820.609 201.973 820.602 201.84 820.602 201.741V201.428C820.602 200.548 820.885 199.738 821.453 198.999C822.188 198.129 823.221 197.694 824.555 197.694ZM823.242 200.756H823.25C823.495 200.756 824.503 200.725 826.273 200.663V200.639C825.951 200.311 825.409 200.147 824.648 200.147C823.909 200.147 823.448 200.327 823.266 200.686C823.255 200.686 823.247 200.71 823.242 200.756ZM838.592 197.522C839.462 197.522 840.381 197.707 841.35 198.077C841.824 198.342 842.061 198.723 842.061 199.217L842.053 199.335C842.261 199.553 842.366 199.913 842.366 200.413C842.376 200.413 842.381 200.582 842.381 200.921C842.381 201.254 842.379 201.592 842.373 201.936C842.415 203.9 842.436 205.012 842.436 205.272C842.436 205.631 842.267 205.952 841.928 206.233C841.699 206.389 841.457 206.467 841.202 206.467C840.853 206.467 840.543 206.324 840.272 206.038L840.256 206.03C839.511 206.4 838.801 206.585 838.123 206.585H837.912C837.1 206.585 836.347 206.324 835.655 205.803C834.717 205.012 834.248 203.892 834.248 202.444C834.248 200.783 834.717 199.493 835.655 198.577C836.436 197.874 837.415 197.522 838.592 197.522ZM836.702 202.421C836.702 203.249 836.92 203.775 837.358 203.999C837.535 204.087 837.751 204.131 838.006 204.131H838.022C838.543 204.131 838.998 203.978 839.389 203.671C839.472 203.582 839.558 203.426 839.647 203.202C839.824 202.65 839.912 202.15 839.912 201.702C839.912 201.488 839.907 200.978 839.897 200.171C839.418 200.04 838.978 199.975 838.577 199.975C837.769 199.975 837.238 200.269 836.983 200.858C836.795 201.322 836.702 201.842 836.702 202.421ZM846.736 197.741L846.892 197.733C846.97 197.728 847.048 197.725 847.127 197.725C847.944 197.725 848.908 197.9 850.017 198.249C850.517 198.493 850.78 198.861 850.806 199.35V199.413C850.806 199.829 850.598 200.178 850.181 200.46C849.983 200.553 849.796 200.605 849.619 200.616H849.603C849.447 200.616 849.077 200.53 848.494 200.358C847.968 200.238 847.502 200.178 847.095 200.178C847.033 200.178 846.973 200.181 846.916 200.186C846.52 200.207 846.267 200.283 846.158 200.413C846.408 200.579 847.147 200.837 848.377 201.186C850.028 201.707 850.879 202.519 850.931 203.624V203.764C850.931 204.243 850.765 204.738 850.431 205.249C849.811 206.072 848.856 206.512 847.564 206.569L847.416 206.577C847.311 206.582 847.205 206.585 847.095 206.585C846.298 206.585 845.392 206.449 844.377 206.178C844.132 206.069 843.934 205.897 843.783 205.663C843.673 205.465 843.616 205.275 843.611 205.092V205.03C843.611 204.65 843.785 204.319 844.134 204.038C844.343 203.902 844.561 203.829 844.791 203.819H844.806C844.916 203.819 845.228 203.874 845.744 203.983C846.244 204.082 846.707 204.131 847.134 204.131C847.228 204.131 847.319 204.129 847.408 204.124C847.903 204.103 848.233 204.014 848.4 203.858V203.842C848.197 203.707 847.543 203.48 846.439 203.163C844.637 202.631 843.71 201.788 843.658 200.631V200.483C843.658 199.91 843.869 199.358 844.291 198.827C844.879 198.15 845.694 197.788 846.736 197.741ZM854.848 197.741L855.005 197.733C855.083 197.728 855.161 197.725 855.239 197.725C856.057 197.725 857.02 197.9 858.13 198.249C858.63 198.493 858.893 198.861 858.919 199.35V199.413C858.919 199.829 858.71 200.178 858.294 200.46C858.096 200.553 857.908 200.605 857.731 200.616H857.716C857.559 200.616 857.19 200.53 856.606 200.358C856.08 200.238 855.614 200.178 855.208 200.178C855.145 200.178 855.085 200.181 855.028 200.186C854.632 200.207 854.38 200.283 854.27 200.413C854.52 200.579 855.26 200.837 856.489 201.186C858.14 201.707 858.992 202.519 859.044 203.624V203.764C859.044 204.243 858.877 204.738 858.544 205.249C857.924 206.072 856.968 206.512 855.677 206.569L855.528 206.577C855.424 206.582 855.317 206.585 855.208 206.585C854.411 206.585 853.505 206.449 852.489 206.178C852.244 206.069 852.046 205.897 851.895 205.663C851.786 205.465 851.729 205.275 851.723 205.092V205.03C851.723 204.65 851.898 204.319 852.247 204.038C852.455 203.902 852.674 203.829 852.903 203.819H852.919C853.028 203.819 853.341 203.874 853.856 203.983C854.356 204.082 854.82 204.131 855.247 204.131C855.341 204.131 855.432 204.129 855.52 204.124C856.015 204.103 856.346 204.014 856.513 203.858V203.842C856.309 203.707 855.656 203.48 854.552 203.163C852.749 202.631 851.822 201.788 851.77 200.631V200.483C851.77 199.91 851.981 199.358 852.403 198.827C852.992 198.15 853.807 197.788 854.848 197.741ZM864.07 197.913H864.359C865.182 197.913 865.948 198.217 866.656 198.827C867.047 199.223 867.333 199.605 867.516 199.975C867.875 200.704 868.055 201.486 868.055 202.319C868.055 203.496 867.711 204.506 867.023 205.35C866.628 205.767 866.354 206.001 866.203 206.053C865.646 206.408 865.052 206.585 864.422 206.585H864.242C863.404 206.585 862.604 206.327 861.844 205.811C861.734 205.764 861.482 205.53 861.086 205.108C860.43 204.296 860.102 203.342 860.102 202.249C860.102 201.082 860.487 200.059 861.258 199.178C861.659 198.788 861.948 198.553 862.125 198.475C862.776 198.1 863.424 197.913 864.07 197.913ZM862.555 202.256C862.555 202.861 862.76 203.353 863.172 203.733C863.51 203.999 863.896 204.131 864.328 204.131C864.891 204.131 865.279 203.783 865.492 203.085C865.56 202.829 865.594 202.59 865.594 202.366V202.256C865.594 201.585 865.385 201.038 864.969 200.616C864.771 200.449 864.523 200.366 864.227 200.366C863.497 200.366 862.984 200.736 862.688 201.475C862.599 201.777 862.555 202.038 862.555 202.256ZM873.714 197.514H873.8C874.816 197.514 875.831 197.853 876.847 198.53C877.227 198.811 877.417 199.158 877.417 199.569C877.417 200.017 877.191 200.379 876.737 200.655C876.54 200.738 876.352 200.78 876.175 200.78C875.889 200.78 875.599 200.668 875.308 200.444C874.777 200.121 874.258 199.96 873.753 199.96C873.112 199.96 872.54 200.225 872.034 200.756C871.696 201.152 871.527 201.595 871.527 202.085V202.131C871.527 202.814 871.818 203.361 872.402 203.772C872.849 204.012 873.313 204.131 873.792 204.131C874.308 204.131 874.8 203.965 875.269 203.631C875.472 203.517 875.683 203.46 875.902 203.46C876.323 203.46 876.672 203.665 876.948 204.077C877.058 204.275 877.112 204.478 877.112 204.686C877.112 205.259 876.724 205.72 875.948 206.069C875.261 206.413 874.555 206.585 873.831 206.585H873.706C872.81 206.585 871.92 206.324 871.034 205.803C870.831 205.678 870.54 205.423 870.159 205.038C869.915 204.736 869.722 204.457 869.581 204.202C869.243 203.499 869.073 202.85 869.073 202.256V201.952C869.073 201.301 869.269 200.611 869.659 199.881C869.8 199.605 870.068 199.267 870.464 198.866C870.881 198.48 871.253 198.212 871.581 198.061C872.274 197.697 872.985 197.514 873.714 197.514ZM879.545 194.858H879.647C880.064 194.858 880.426 195.061 880.733 195.467C880.889 195.717 880.967 195.957 880.967 196.186V196.342C880.967 196.629 880.853 196.915 880.623 197.202C880.301 197.54 879.944 197.71 879.553 197.71H879.452C879.155 197.71 878.866 197.592 878.584 197.358C878.298 197.066 878.155 196.756 878.155 196.428V196.28C878.155 195.962 878.285 195.647 878.545 195.335C878.853 195.017 879.186 194.858 879.545 194.858ZM879.678 198.022H879.764C880.202 198.022 880.558 198.251 880.834 198.71C880.913 198.845 880.952 199.085 880.952 199.428C881.04 202.824 881.087 204.824 881.092 205.428C881.092 205.762 880.918 206.074 880.569 206.366C880.34 206.512 880.118 206.585 879.905 206.585H879.842C879.441 206.585 879.103 206.389 878.827 205.999C878.696 205.837 878.631 205.522 878.631 205.053C878.543 201.34 878.498 199.376 878.498 199.163C878.498 198.845 878.66 198.543 878.983 198.256C879.222 198.1 879.454 198.022 879.678 198.022ZM886.736 197.522C887.606 197.522 888.525 197.707 889.494 198.077C889.968 198.342 890.205 198.723 890.205 199.217L890.197 199.335C890.405 199.553 890.509 199.913 890.509 200.413C890.52 200.413 890.525 200.582 890.525 200.921C890.525 201.254 890.522 201.592 890.517 201.936C890.559 203.9 890.58 205.012 890.58 205.272C890.58 205.631 890.41 205.952 890.072 206.233C889.843 206.389 889.601 206.467 889.345 206.467C888.996 206.467 888.686 206.324 888.416 206.038L888.4 206.03C887.655 206.4 886.944 206.585 886.267 206.585H886.056C885.244 206.585 884.491 206.324 883.798 205.803C882.861 205.012 882.392 203.892 882.392 202.444C882.392 200.783 882.861 199.493 883.798 198.577C884.58 197.874 885.559 197.522 886.736 197.522ZM884.845 202.421C884.845 203.249 885.064 203.775 885.502 203.999C885.679 204.087 885.895 204.131 886.15 204.131H886.166C886.686 204.131 887.142 203.978 887.533 203.671C887.616 203.582 887.702 203.426 887.791 203.202C887.968 202.65 888.056 202.15 888.056 201.702C888.056 201.488 888.051 200.978 888.041 200.171C887.561 200.04 887.121 199.975 886.72 199.975C885.913 199.975 885.382 200.269 885.127 200.858C884.939 201.322 884.845 201.842 884.845 202.421ZM894.106 196.233H894.169C894.627 196.233 894.992 196.478 895.263 196.967C895.361 197.186 895.411 197.642 895.411 198.335C895.416 198.335 895.424 198.431 895.434 198.624L895.52 198.631C896.51 198.631 897.083 198.663 897.239 198.725C897.557 198.855 897.789 199.056 897.934 199.327C898.023 199.509 898.067 199.686 898.067 199.858V199.921C898.067 200.342 897.848 200.694 897.411 200.975C897.208 201.069 897.044 201.116 896.919 201.116L895.45 201.085V201.889C895.45 202.191 895.447 202.564 895.442 203.006C895.442 203.47 895.523 203.814 895.684 204.038C895.773 204.1 895.893 204.131 896.044 204.131C896.414 204.131 896.932 203.975 897.598 203.663C897.729 203.631 897.835 203.616 897.919 203.616H898.02C898.473 203.616 898.835 203.855 899.106 204.335C899.169 204.512 899.2 204.665 899.2 204.796V204.866C899.2 205.283 898.986 205.634 898.559 205.921C897.664 206.363 896.82 206.585 896.028 206.585C894.997 206.585 894.192 206.181 893.614 205.374C893.197 204.728 892.989 203.986 892.989 203.147C892.994 202.48 892.997 201.931 892.997 201.499V201.03H892.88C892.499 201.03 892.171 200.861 891.895 200.522C891.739 200.298 891.661 200.069 891.661 199.835V199.756C891.661 199.303 891.903 198.941 892.388 198.671C892.559 198.608 892.71 198.577 892.841 198.577H892.973L892.911 197.413C892.911 197.079 893.078 196.764 893.411 196.467C893.651 196.311 893.882 196.233 894.106 196.233ZM901.133 194.858H901.234C901.651 194.858 902.013 195.061 902.32 195.467C902.477 195.717 902.555 195.957 902.555 196.186V196.342C902.555 196.629 902.44 196.915 902.211 197.202C901.888 197.54 901.531 197.71 901.141 197.71H901.039C900.742 197.71 900.453 197.592 900.172 197.358C899.885 197.066 899.742 196.756 899.742 196.428V196.28C899.742 195.962 899.872 195.647 900.133 195.335C900.44 195.017 900.773 194.858 901.133 194.858ZM901.266 198.022H901.352C901.789 198.022 902.146 198.251 902.422 198.71C902.5 198.845 902.539 199.085 902.539 199.428C902.628 202.824 902.674 204.824 902.68 205.428C902.68 205.762 902.505 206.074 902.156 206.366C901.927 206.512 901.706 206.585 901.492 206.585H901.43C901.029 206.585 900.69 206.389 900.414 205.999C900.284 205.837 900.219 205.522 900.219 205.053C900.13 201.34 900.086 199.376 900.086 199.163C900.086 198.845 900.247 198.543 900.57 198.256C900.81 198.1 901.042 198.022 901.266 198.022ZM907.948 197.913H908.237C909.06 197.913 909.826 198.217 910.534 198.827C910.925 199.223 911.211 199.605 911.394 199.975C911.753 200.704 911.933 201.486 911.933 202.319C911.933 203.496 911.589 204.506 910.902 205.35C910.506 205.767 910.232 206.001 910.081 206.053C909.524 206.408 908.93 206.585 908.3 206.585H908.12C907.282 206.585 906.482 206.327 905.722 205.811C905.612 205.764 905.36 205.53 904.964 205.108C904.308 204.296 903.98 203.342 903.98 202.249C903.98 201.082 904.365 200.059 905.136 199.178C905.537 198.788 905.826 198.553 906.003 198.475C906.654 198.1 907.303 197.913 907.948 197.913ZM906.433 202.256C906.433 202.861 906.639 203.353 907.05 203.733C907.389 203.999 907.774 204.131 908.206 204.131C908.769 204.131 909.157 203.783 909.37 203.085C909.438 202.829 909.472 202.59 909.472 202.366V202.256C909.472 201.585 909.264 201.038 908.847 200.616C908.649 200.449 908.402 200.366 908.105 200.366C907.376 200.366 906.862 200.736 906.566 201.475C906.477 201.777 906.433 202.038 906.433 202.256ZM916.858 197.928H917.202C917.66 197.928 918.157 198.092 918.694 198.421C918.866 198.519 919.092 198.72 919.373 199.022C919.691 199.371 919.97 199.837 920.209 200.421C920.72 201.691 920.975 203.283 920.975 205.194C920.975 205.783 920.761 206.191 920.334 206.421C920.163 206.53 919.975 206.585 919.772 206.585H919.702C919.248 206.585 918.886 206.342 918.616 205.858C918.548 205.676 918.514 205.527 918.514 205.413C918.514 205.309 918.517 205.215 918.522 205.131C918.522 203.798 918.353 202.603 918.014 201.546C917.733 200.769 917.399 200.381 917.014 200.381H917.006C916.788 200.381 916.613 200.509 916.483 200.764C916.363 200.921 916.233 201.223 916.092 201.671C915.821 202.644 915.686 203.78 915.686 205.077V205.342C915.686 205.796 915.446 206.158 914.967 206.428C914.79 206.491 914.636 206.522 914.506 206.522H914.428C913.991 206.522 913.634 206.293 913.358 205.835C913.269 205.689 913.225 205.376 913.225 204.897C913.116 201.387 913.061 199.46 913.061 199.116C913.061 198.751 913.251 198.428 913.631 198.147C913.834 198.017 914.043 197.952 914.256 197.952H914.319C914.678 197.952 915.001 198.121 915.288 198.46H915.311C915.811 198.105 916.327 197.928 916.858 197.928Z" fill="white"/>
<rect width="733" height="8" rx="4" transform="matrix(-1 0 0 1 1246 251)" fill="#272626"/>
<rect width="149" height="8" rx="4" transform="matrix(-1 0 0 1 337 251)" fill="#272626"/>
<path d="M305 124.954C305 122.773 306.095 120.743 307.92 119.535C321.589 110.515 379.578 73.1067 409.212 54.1706C411.593 52.6495 413.559 52.5879 415.951 54.1203C449.73 75.696 483.548 97.2158 517.367 118.724C519.315 119.966 520.293 121.498 520.259 123.881C520.163 130.519 520.192 137.163 520.248 143.801C520.265 145.702 519.787 147.268 518.074 148.241C516.266 149.265 514.621 148.784 512.975 147.699C509.42 145.361 505.809 143.119 501.968 140.675C501.901 141.542 501.817 142.129 501.817 142.71C501.805 149.142 501.817 155.573 501.811 162.004C501.811 165.679 500.385 167.614 497.678 167.636C494.937 167.658 493.404 165.6 493.404 161.87C493.404 153.621 493.365 145.372 493.438 137.124C493.449 135.686 492.972 134.881 491.776 134.12C465.909 117.695 440.065 101.237 414.25 84.7334C412.975 83.9169 412.127 84.0343 410.925 84.7949C385.104 101.281 359.26 117.74 333.399 134.171C332.287 134.881 331.787 135.602 331.793 136.989C331.838 167.189 331.827 197.382 331.832 227.582C331.832 228.191 331.9 228.806 331.945 229.528H373.052C373.052 228.672 373.035 227.867 373.052 227.061C373.193 220.222 372.794 213.315 373.58 206.548C375.826 187.126 394.196 171.993 413.834 172.904C435.736 173.922 452.049 190.861 452.162 212.734C452.19 218.253 452.162 223.773 452.162 229.466H493.393C493.393 228.711 493.393 227.967 493.393 227.229C493.393 218.98 493.382 210.731 493.41 202.483C493.41 201.588 493.477 200.648 493.741 199.804C494.303 197.992 496.117 196.873 497.97 197.03C499.941 197.192 501.497 198.663 501.738 200.643C501.822 201.331 501.8 202.041 501.8 202.734C501.8 219.579 501.8 236.423 501.8 253.268C501.8 256.433 499.222 259 496.044 259C440.419 259 384.795 259 329.17 259C324.672 259 323.409 257.747 323.409 253.279C323.409 216.721 323.409 180.163 323.409 143.605V140.624C322.358 141.273 321.561 141.743 320.78 142.241C318.062 143.963 315.35 145.697 312.637 147.419C310.144 149.002 308.442 149.254 306.887 148.057C305.657 147.117 305 145.607 305 144.047C305 140.02 305 130.206 305 124.954ZM381.459 250.471H443.648C443.693 249.918 443.755 249.504 443.755 249.09C443.755 236.826 443.806 224.562 443.704 212.292C443.682 209.725 443.407 207.163 442.772 204.675C438.847 189.256 424.251 179.542 408.319 181.522C393.224 183.396 381.588 196.644 381.476 212.174C381.403 222.162 381.459 232.156 381.459 242.144C381.459 244.862 381.459 247.58 381.459 250.46V250.471ZM511.818 136.967C511.818 133.399 511.734 130.323 511.852 127.253C511.908 125.748 511.442 124.876 510.15 124.054C478.202 103.765 446.282 83.4359 414.384 63.0626C413.07 62.2237 412.205 62.2014 410.88 63.0514C395.397 72.9892 379.864 82.8431 364.348 92.7306C347.888 103.216 331.422 113.702 314.979 124.216C314.345 124.619 313.502 125.346 313.48 125.95C313.339 129.484 313.412 133.03 313.412 136.9C314.395 136.313 315.097 135.904 315.782 135.468C346.939 115.626 378.101 95.8009 409.223 75.9085C411.296 74.5831 413.958 74.5831 416.03 75.9085C443.356 93.3793 470.722 110.789 498.082 128.215C502.547 131.061 507.011 133.897 511.824 136.961L511.818 136.967ZM332.012 238.101V250.494H372.889V238.101H332.012ZM493.281 238.151H452.336V250.499H493.281V238.151Z" fill="#272626"/>
<path d="M501.805 182.736C501.826 185.234 500.08 187.204 497.883 187.169C495.807 187.133 494.04 185.152 494.014 182.836C493.982 180.449 495.849 178.374 497.993 178.403C500.122 178.438 501.789 180.332 501.805 182.736Z" fill="#272626"/>
<path fill-rule="evenodd" clip-rule="evenodd" d="M405.772 109.505C402.606 111.632 401.49 118.556 403.755 122.023C406.178 125.733 408.449 126.113 411.38 123.295C418.027 116.907 413.033 104.627 405.772 109.505ZM420.875 113.38C417.228 116.884 416.475 122.944 419.333 125.807C422.424 128.903 425.588 128.313 428.424 124.113C433.439 116.683 426.985 107.507 420.875 113.38ZM391.323 119.951C388.654 122.678 388.736 127.116 391.517 130.618C394.241 134.047 399.274 132.034 400.274 127.113C401.722 119.983 395.872 115.301 391.323 119.951ZM430.419 127.226C426.645 130.044 425.952 136.216 429.146 138.56C434.083 142.18 440.771 135.704 438.383 129.615C436.846 125.698 433.722 124.761 430.419 127.226ZM406.305 128.902C400.957 131.007 394.341 138.251 393.362 143.073C392.949 145.108 393.438 147.758 394.496 149.214C396.164 151.509 397.002 151.741 402.566 151.442C407.45 151.179 409.993 151.667 414.487 153.729C418.464 155.553 420.962 156.117 422.705 155.585C432.366 152.634 424.761 129.941 413.366 127.715C411.878 127.424 408.699 127.958 406.305 128.902Z" fill="#E2168C"/>
</g>
<defs>
<clipPath id="clip0_268_3431">
<rect width="1440" height="3376" fill="white" transform="translate(0 -2772)"/>
</clipPath>
</defs>
</svg>
