<svg width="1058" height="206" viewBox="0 0 1058 206" fill="none" xmlns="http://www.w3.org/2000/svg">
<rect width="733" height="8" rx="4" transform="matrix(-1 0 0 1 1058 198)" fill="#272626"/>
<rect width="149" height="8" rx="4" transform="matrix(-1 0 0 1 149 198)" fill="#272626"/>
<path d="M117 71.9544C117 69.7733 118.095 67.7432 119.92 66.5353C133.589 57.5146 191.578 20.1067 221.212 1.17061C223.593 -0.350543 225.559 -0.41206 227.951 1.12027C261.73 22.696 295.548 44.2158 329.367 65.7244C331.315 66.9659 332.293 68.4982 332.259 70.8806C332.163 77.5189 332.192 84.1627 332.248 90.8009C332.265 92.7024 331.787 94.2683 330.074 95.2414C328.266 96.2648 326.621 95.7838 324.975 94.6989C321.42 92.3612 317.809 90.1187 313.968 87.6748C313.901 88.5416 313.817 89.1288 313.817 89.7104C313.805 96.1417 313.817 102.573 313.811 109.004C313.811 112.679 312.385 114.614 309.678 114.636C306.937 114.658 305.404 112.6 305.404 108.87C305.404 100.621 305.365 92.3724 305.438 84.1236C305.449 82.6863 304.972 81.881 303.776 81.1204C277.909 64.6954 252.065 48.2367 226.25 31.7334C224.975 30.9169 224.127 31.0343 222.925 31.7949C197.104 48.2815 171.26 64.7401 145.399 81.1707C144.287 81.881 143.787 82.6024 143.793 83.9893C143.838 114.189 143.827 144.382 143.832 174.582C143.832 175.191 143.9 175.806 143.945 176.528H185.052C185.052 175.672 185.035 174.867 185.052 174.061C185.193 167.222 184.794 160.315 185.58 153.548C187.826 134.126 206.196 118.993 225.834 119.904C247.736 120.922 264.049 137.861 264.162 159.734C264.19 165.253 264.162 170.773 264.162 176.466H305.393C305.393 175.711 305.393 174.967 305.393 174.229C305.393 165.98 305.382 157.731 305.41 149.483C305.41 148.588 305.477 147.648 305.741 146.804C306.303 144.992 308.117 143.873 309.97 144.03C311.941 144.192 313.497 145.663 313.738 147.643C313.822 148.331 313.8 149.041 313.8 149.734C313.8 166.579 313.8 183.423 313.8 200.268C313.8 203.433 311.222 206 308.044 206C252.419 206 196.795 206 141.17 206C136.672 206 135.409 204.747 135.409 200.279C135.409 163.721 135.409 127.163 135.409 90.6052V87.6244C134.358 88.2731 133.561 88.7429 132.78 89.2407C130.062 90.9631 127.35 92.6968 124.637 94.4193C122.144 96.0019 120.442 96.2536 118.887 95.0568C117.657 94.1173 117 92.6073 117 91.047C117 87.0204 117 77.2057 117 71.9544ZM193.459 197.471H255.648C255.693 196.918 255.755 196.504 255.755 196.09C255.755 183.826 255.806 171.562 255.704 159.292C255.682 156.725 255.407 154.163 254.772 151.675C250.847 136.256 236.251 126.542 220.319 128.522C205.224 130.396 193.588 143.644 193.476 159.174C193.403 169.162 193.459 179.156 193.459 189.144C193.459 191.862 193.459 194.58 193.459 197.46V197.471ZM323.818 83.967C323.818 80.399 323.734 77.3231 323.852 74.2529C323.908 72.7485 323.442 71.8761 322.15 71.054C290.202 50.7645 258.282 30.4359 226.384 10.0626C225.07 9.22375 224.205 9.20138 222.88 10.0514C207.397 19.9892 191.864 29.8431 176.348 39.7306C159.888 50.2165 143.422 60.7023 126.979 71.2162C126.345 71.6188 125.502 72.3458 125.48 72.9498C125.339 76.4843 125.412 80.0299 125.412 83.8999C126.395 83.3126 127.097 82.9044 127.782 82.4682C158.939 62.6261 190.101 42.8009 221.223 22.9085C223.296 21.5831 225.958 21.5831 228.03 22.9085C255.356 40.3793 282.722 57.7887 310.082 75.2148C314.547 78.0613 319.011 80.8967 323.824 83.9614L323.818 83.967ZM144.012 185.101V197.494H184.889V185.101H144.012ZM305.281 185.151H264.336V197.499H305.281V185.151Z" fill="#272626"/>
<path d="M313.805 129.736C313.826 132.234 312.08 134.204 309.883 134.169C307.807 134.133 306.04 132.152 306.014 129.836C305.982 127.449 307.849 125.374 309.993 125.403C312.122 125.438 313.789 127.332 313.805 129.736Z" fill="#272626"/>
<path fill-rule="evenodd" clip-rule="evenodd" d="M217.772 56.5046C214.606 58.6324 213.49 65.556 215.755 69.0233C218.178 72.7335 220.449 73.1129 223.38 70.2954C230.027 63.9073 225.033 51.6273 217.772 56.5046ZM232.875 60.38C229.228 63.8839 228.475 69.9442 231.333 72.8066C234.424 75.9025 237.588 75.3129 240.424 71.1125C245.439 63.6826 238.985 54.5065 232.875 60.38ZM203.323 66.9511C200.654 69.6782 200.736 74.1165 203.517 77.618C206.241 81.0473 211.274 79.0335 212.274 74.113C213.722 66.9828 207.872 62.3014 203.323 66.9511ZM242.419 74.2262C238.645 77.0436 237.952 83.2164 241.146 85.5598C246.083 89.1804 252.771 82.704 250.383 76.6146C248.846 72.6976 245.722 71.7607 242.419 74.2262ZM218.305 75.9019C212.957 78.0067 206.341 85.2513 205.362 90.0731C204.949 92.1077 205.438 94.7584 206.496 96.214C208.164 98.5089 209.002 98.7412 214.566 98.4417C219.45 98.1791 221.993 98.6669 226.487 100.729C230.464 102.553 232.962 103.117 234.705 102.585C244.366 99.634 236.761 76.9413 225.366 74.7153C223.878 74.4241 220.699 74.9575 218.305 75.9019Z" fill="#E2168C"/>
</svg>
