<svg width="24" height="24" viewBox="0 0 24 24" fill="none" xmlns="http://www.w3.org/2000/svg">
<path fill-rule="evenodd" clip-rule="evenodd" d="M9.98438 0.0650849C15.1443 0.69812 18.6737 5.61439 17.6275 10.7117C17.4581 11.5373 17.0816 12.5517 16.6974 13.2183L16.5134 13.5374L17.1293 14.0219C20.4553 16.6385 21.4758 17.5 22.6033 18.6429C23.411 19.4617 23.5432 19.6172 23.6941 19.9263C24.2444 21.0534 24.0428 22.2892 23.1655 23.1666C22.4111 23.921 21.3556 24.1844 20.3477 23.8696C19.7793 23.6922 19.5255 23.4961 18.4351 22.3916C17.3001 21.2422 16.5742 20.3668 13.658 16.6305L13.5566 16.5008L13.2679 16.67C11.787 17.538 9.80966 17.9502 8.00814 17.7663C6.8044 17.6435 5.16297 17.1231 4.81695 16.7547C4.42492 16.3372 4.47622 15.7224 4.93343 15.3586C5.07875 15.243 5.16479 15.2138 5.40685 15.1984C5.66641 15.1819 5.74903 15.2 6.08127 15.3461C6.54504 15.55 7.10409 15.7211 7.66319 15.8302C8.26464 15.9476 9.51719 15.9469 10.1485 15.8288C13.0429 15.2876 15.2875 13.0427 15.8286 10.148C15.9497 9.50035 15.9497 8.31006 15.8286 7.6624C15.294 4.80225 13.1515 2.62344 10.2657 2.00504C9.55611 1.85299 8.25643 1.8529 7.54596 2.00485C6.08216 2.31794 5.01408 2.89855 3.95703 3.95578C2.89969 5.0132 2.31826 6.08323 2.00666 7.54515C1.92076 7.94824 1.90139 8.19071 1.89984 8.88175C1.89698 10.1528 2.0695 10.8905 2.65406 12.1067C3.04613 12.9225 3.06799 13.0571 2.87033 13.4398C2.65481 13.8569 2.09201 14.0382 1.66074 13.8294C1.38871 13.6978 1.23237 13.4879 0.909748 12.8212C-0.727043 9.43881 -0.122267 5.51384 2.45857 2.77009C4.36645 0.741735 7.19961 -0.27657 9.98438 0.0650849ZM9.22421 3.79604C9.44803 3.86536 9.73473 4.17236 9.79916 4.41172C9.90987 4.82288 9.74439 5.26767 9.40193 5.47932C9.28038 5.55445 9.1118 5.59408 8.77985 5.62546C8.1732 5.68286 7.84237 5.7729 7.40824 5.99881C6.78921 6.32091 6.32769 6.77813 6.01805 7.37589C5.7087 7.97324 5.42646 8.17898 4.96259 8.14545C4.24115 8.09325 3.90943 7.41895 4.2487 6.69427C4.75055 5.62227 5.79321 4.61817 6.8701 4.16978C7.63253 3.85232 8.80503 3.66618 9.22421 3.79604ZM15.1971 15.2052L15.0456 15.3615L16.2965 16.9522C18.5526 19.8209 19.0201 20.3737 20.0279 21.3641C20.5915 21.9179 20.7381 22.0372 20.912 22.0841C21.6531 22.2837 22.2827 21.654 22.0831 20.9128C22.0363 20.739 21.9165 20.5916 21.3632 20.0274C20.5118 19.1593 19.8481 18.5898 17.5776 16.7787C15.4636 15.0925 15.4096 15.0501 15.3745 15.0494C15.3603 15.0491 15.2804 15.1192 15.1971 15.2052Z" fill="#E2168C"/>
</svg>
