<svg width="220" height="214" viewBox="0 0 220 214" fill="none" xmlns="http://www.w3.org/2000/svg">
<rect x="0.535156" y="0.5" width="218.259" height="212.75" rx="17.5" fill="white" stroke="#DEDEDE"/>
<path d="M18.5293 22.4751C19.446 22.4751 20.1751 22.9334 20.7168 23.8501C20.8835 24.2147 20.9668 24.5897 20.9668 24.9751V40.2563L29.5762 40.0532C30.0241 40.0532 30.5137 40.2511 31.0449 40.647C31.6283 41.1886 31.9199 41.8188 31.9199 42.5376C31.9199 43.3709 31.5241 44.0584 30.7324 44.6001C30.4199 44.8501 29.7376 44.9751 28.6855 44.9751C22.6543 45.1209 19.2533 45.1938 18.4824 45.1938C17.6283 45.1938 16.9303 44.7824 16.3887 43.9595C16.1699 43.5741 16.0605 43.1522 16.0605 42.6938V24.9751C16.0605 23.923 16.5762 23.147 17.6074 22.647C17.9408 22.5324 18.248 22.4751 18.5293 22.4751ZM40.7168 27.0688C42.4564 27.0688 44.2949 27.4386 46.2324 28.1782C47.1803 28.7095 47.6543 29.4699 47.6543 30.4595L47.6387 30.6938C48.0553 31.1313 48.2637 31.8501 48.2637 32.8501C48.2845 32.8501 48.2949 33.1886 48.2949 33.8657C48.2949 34.5324 48.2897 35.2095 48.2793 35.897C48.3626 39.8241 48.4043 42.048 48.4043 42.5688C48.4043 43.2876 48.0658 43.9282 47.3887 44.4907C46.9303 44.8032 46.446 44.9595 45.9355 44.9595C45.2376 44.9595 44.6178 44.673 44.0762 44.1001L44.0449 44.0845C42.5553 44.8241 41.1335 45.1938 39.7793 45.1938H39.3574C37.7324 45.1938 36.2272 44.673 34.8418 43.6313C32.9668 42.048 32.0293 39.8084 32.0293 36.9126C32.0293 33.5897 32.9668 31.0116 34.8418 29.1782C36.4043 27.772 38.3626 27.0688 40.7168 27.0688ZM36.9355 36.8657C36.9355 38.522 37.373 39.5741 38.248 40.022C38.6022 40.1991 39.0345 40.2876 39.5449 40.2876H39.5762C40.6178 40.2876 41.5293 39.9803 42.3105 39.3657C42.4772 39.1886 42.6491 38.8761 42.8262 38.4282C43.1803 37.3241 43.3574 36.3241 43.3574 35.4282C43.3574 35.0011 43.347 33.9803 43.3262 32.3657C42.3678 32.1053 41.4876 31.9751 40.6855 31.9751C39.071 31.9751 38.0085 32.5636 37.498 33.7407C37.123 34.6678 36.9355 35.7095 36.9355 36.8657ZM56.0137 27.647C60.7533 27.647 63.9772 29.0949 65.6855 31.9907C66.2897 33.1886 66.5918 34.3188 66.5918 35.3813V36.0688C66.5918 37.6626 66.1074 39.2251 65.1387 40.7563C64.9512 41.1001 64.4095 41.6938 63.5137 42.5376C62.1699 43.7043 60.2793 44.548 57.8418 45.0688C57.2272 45.173 56.7064 45.2511 56.2793 45.3032V48.0063C56.2793 49.0584 55.7637 49.8345 54.7324 50.3345C54.3991 50.4491 54.0918 50.5063 53.8105 50.5063C52.998 50.5063 52.3158 50.1209 51.7637 49.3501C51.5033 48.9126 51.373 48.4855 51.373 48.0688C51.373 44.2876 51.3522 38.3032 51.3105 30.1157C51.3105 29.6886 51.5085 29.2043 51.9043 28.6626C52.2272 28.2668 52.7064 27.9907 53.3418 27.8345C54.1335 27.7095 55.0241 27.647 56.0137 27.647ZM56.2324 32.5532V33.0845C56.2324 34.6261 56.2376 37.048 56.248 40.3501C56.2793 40.3501 56.2949 40.3553 56.2949 40.3657C56.5449 40.3657 57.2324 40.2043 58.3574 39.8813C60.5762 39.1313 61.6855 37.772 61.6855 35.8032V35.6157C61.6855 34.3241 60.9355 33.4543 59.4355 33.0063C58.3939 32.7043 57.3262 32.5532 56.2324 32.5532ZM70.5293 21.7407H70.7324C71.5658 21.7407 72.2897 22.147 72.9043 22.9595C73.2168 23.4595 73.373 23.9386 73.373 24.397V24.7095C73.373 25.2824 73.1439 25.8553 72.6855 26.4282C72.0397 27.1053 71.3262 27.4438 70.5449 27.4438H70.3418C69.748 27.4438 69.1699 27.2095 68.6074 26.7407C68.0345 26.1574 67.748 25.5376 67.748 24.8813V24.5845C67.748 23.9491 68.0085 23.3188 68.5293 22.6938C69.1439 22.0584 69.8105 21.7407 70.5293 21.7407ZM70.7949 28.0688H70.9668C71.8418 28.0688 72.5553 28.5272 73.1074 29.4438C73.2637 29.7147 73.3418 30.1938 73.3418 30.8813C73.5189 37.673 73.6126 41.673 73.623 42.8813C73.623 43.548 73.2741 44.173 72.5762 44.7563C72.1178 45.048 71.6751 45.1938 71.248 45.1938H71.123C70.321 45.1938 69.6439 44.8032 69.0918 44.022C68.8314 43.6991 68.7012 43.0688 68.7012 42.1313C68.5241 34.7043 68.4355 30.7772 68.4355 30.3501C68.4355 29.7147 68.7585 29.1105 69.4043 28.5376C69.8835 28.2251 70.347 28.0688 70.7949 28.0688ZM84.0605 27.8813H84.748C85.6647 27.8813 86.6595 28.2095 87.7324 28.8657C88.0762 29.0636 88.5293 29.4647 89.0918 30.0688C89.7272 30.7668 90.2845 31.6991 90.7637 32.8657C91.7845 35.4074 92.2949 38.5897 92.2949 42.4126C92.2949 43.5897 91.8678 44.4074 91.0137 44.8657C90.6699 45.0845 90.2949 45.1938 89.8887 45.1938H89.748C88.8418 45.1938 88.1178 44.7095 87.5762 43.7407C87.4408 43.3761 87.373 43.0793 87.373 42.8501C87.373 42.6418 87.3783 42.4543 87.3887 42.2876C87.3887 39.6209 87.0501 37.2303 86.373 35.1157C85.8105 33.5636 85.1439 32.7876 84.373 32.7876H84.3574C83.9199 32.7876 83.571 33.0428 83.3105 33.5532C83.071 33.8657 82.8105 34.4699 82.5293 35.3657C81.9876 37.3136 81.7168 39.5845 81.7168 42.1782V42.7095C81.7168 43.6157 81.2376 44.3397 80.2793 44.8813C79.9251 45.0063 79.6178 45.0688 79.3574 45.0688H79.2012C78.3262 45.0688 77.6126 44.6105 77.0605 43.6938C76.8835 43.4022 76.7949 42.7772 76.7949 41.8188C76.5762 34.798 76.4668 30.9438 76.4668 30.2563C76.4668 29.5272 76.847 28.8813 77.6074 28.3188C78.0137 28.0584 78.4303 27.9282 78.8574 27.9282H78.9824C79.7012 27.9282 80.347 28.2668 80.9199 28.9438H80.9668C81.9668 28.2355 82.998 27.8813 84.0605 27.8813ZM99.7793 27.5063L100.092 27.4907C100.248 27.4803 100.404 27.4751 100.561 27.4751C102.196 27.4751 104.123 27.8241 106.342 28.522C107.342 29.0116 107.868 29.7459 107.92 30.7251V30.8501C107.92 31.6834 107.503 32.3813 106.67 32.9438C106.274 33.1313 105.899 33.2355 105.545 33.2563H105.514C105.201 33.2563 104.462 33.0845 103.295 32.7407C102.243 32.5011 101.311 32.3813 100.498 32.3813C100.373 32.3813 100.253 32.3866 100.139 32.397C99.347 32.4386 98.8418 32.5897 98.623 32.8501C99.123 33.1834 100.602 33.6991 103.061 34.397C106.363 35.4386 108.066 37.0636 108.17 39.272V39.5532C108.17 40.5116 107.837 41.5011 107.17 42.522C105.93 44.1678 104.019 45.048 101.436 45.1626L101.139 45.1782C100.93 45.1886 100.717 45.1938 100.498 45.1938C98.9043 45.1938 97.0918 44.923 95.0605 44.3813C94.571 44.1626 94.1751 43.8188 93.873 43.3501C93.6543 42.9543 93.5397 42.5741 93.5293 42.2095V42.0845C93.5293 41.3241 93.8783 40.6626 94.5762 40.1001C94.9928 39.8293 95.4303 39.6834 95.8887 39.6626H95.9199C96.1387 39.6626 96.7637 39.772 97.7949 39.9907C98.7949 40.1886 99.722 40.2876 100.576 40.2876C100.764 40.2876 100.946 40.2824 101.123 40.272C102.113 40.2303 102.774 40.0532 103.107 39.7407V39.7095C102.701 39.4386 101.394 38.9855 99.1855 38.3501C95.5814 37.2876 93.7272 35.6001 93.623 33.2876V32.9907C93.623 31.8449 94.0449 30.7407 94.8887 29.6782C96.0658 28.3241 97.696 27.6001 99.7793 27.5063Z" fill="#FFB800"/>
<g clip-path="url(#clip0_268_3490)">
<path d="M103.445 64.5555C105.138 64.5555 106.831 64.5555 108.528 64.5555C109.522 64.8201 110.524 65.0531 111.506 65.3532C120.8 68.2201 128.01 73.7999 133.295 81.836C133.878 82.7206 134.337 82.997 135.423 82.6732C136.98 82.2032 138.613 81.8163 140.23 81.7452C144.897 81.5359 149.575 81.3108 154.238 81.4687C157.835 81.5912 161.42 82.223 164.989 82.7521C165.824 82.8746 166.199 82.7956 166.654 82.0848C170.77 75.652 176.331 70.7435 183.234 67.4422C185.872 66.1825 188.803 65.5032 191.601 64.5555C193.294 64.5555 194.987 64.5555 196.683 64.5555C202.855 66.0048 206.277 70.1353 207.905 75.9403C209.534 81.7531 209.307 87.6449 208.257 93.4972C207.211 99.3495 205.358 104.929 201.642 109.747C200.576 111.125 198.851 112.424 198.652 113.921C198.444 115.465 199.63 117.246 200.38 118.841C201.546 121.313 202.612 123.825 205.115 125.464C206.752 126.538 208.161 128.007 209.486 129.464C219.491 140.454 222.992 153.406 220.904 167.875C219.092 180.445 213.015 190.68 202.648 198.203C193.354 204.944 182.894 207.396 171.485 205.576C169.045 205.185 166.646 204.565 164.111 204.024C164.111 205.497 164.139 206.966 164.107 208.435C164.015 212.707 160.778 215.878 156.49 215.89C152.258 215.902 148.026 215.898 143.795 215.89C139.331 215.882 136.094 212.703 136.034 208.273C136.014 206.855 136.034 205.437 136.034 204.142C132.764 204.734 129.622 205.477 126.437 205.848C115.897 207.08 106.196 204.6 97.7406 198.349C83.4406 187.797 77.4602 173.392 78.9214 155.961C79.9514 143.68 85.237 133.401 94.9221 125.566C97.1178 123.789 98.4552 121.641 99.577 119.244C100.324 117.645 100.938 115.974 101.477 114.292C101.613 113.87 101.401 113.131 101.074 112.796C96.9542 108.531 94.3273 103.48 92.8502 97.7976C91.0058 90.7053 90.2992 83.5577 92.1196 76.3628C93.2414 71.9242 95.4092 68.1135 99.7168 65.9258C100.89 65.3295 102.196 65.0017 103.441 64.5476L103.445 64.5555ZM133.643 92.6126C132.325 93.2523 131.239 93.7144 130.213 94.283C121.822 98.9585 115.861 105.901 111.558 114.272C109.198 118.861 107.214 123.635 104.947 128.271C104.471 129.239 103.561 130.033 102.747 130.795C100.583 132.817 98.0281 134.523 96.2196 136.813C86.0594 149.671 84.7221 163.808 91.936 178.194C102.467 199.198 126.812 202.468 143.387 189.934C144.306 189.239 144.469 188.725 143.922 187.659C139.854 179.734 135.842 171.781 131.858 163.812C130.117 160.333 132.161 157.087 136.038 157.083C145.4 157.075 154.761 157.059 164.123 157.114C165.065 157.118 166.123 157.379 166.925 157.857C169.005 159.093 169.465 161.502 168.215 163.982C164.203 171.939 160.179 179.888 156.139 187.829C155.763 188.568 155.652 189.026 156.43 189.681C166.882 198.448 183.553 199.846 195.075 192.489C207.81 184.354 213.227 172.409 212.273 157.632C211.538 146.267 206.432 137.16 196.991 130.518C196.436 130.127 195.873 129.618 195.574 129.034C194.116 126.19 192.551 123.379 191.378 120.421C187.374 110.324 181.421 101.735 172.183 95.6454C170.471 94.516 168.59 93.6433 166.498 92.4981C166.498 95.2229 166.574 97.529 166.47 99.8273C166.403 101.387 166.259 102.982 165.852 104.487C163.48 113.262 154.993 118.514 146.477 116.567C139.423 114.956 133.806 108.073 133.65 100.795C133.595 98.1885 133.643 95.5783 133.643 92.6166V92.6126ZM106.356 105.143C111.386 97.4856 117.63 91.1318 125.71 86.5392C121.482 80.4262 116.073 76.1772 109.063 73.9934C108.779 73.9066 108.496 73.8078 108.204 73.7486C104.128 72.9035 102.236 73.9658 101.066 77.9463C99.4812 83.3445 99.9882 88.7545 101.238 94.1329C102.16 98.0937 103.545 101.853 106.356 105.139V105.143ZM193.861 105.285C194.783 103.824 195.689 102.635 196.336 101.32C199.25 95.3966 200.34 89.0862 199.913 82.5587C199.781 80.5368 199.214 78.4794 198.488 76.576C197.45 73.8592 195.813 73.1207 192.943 73.6025C188.24 74.3962 184.308 76.7261 180.671 79.6325C178.227 81.5872 176.159 83.8657 174.475 86.5787C182.535 91.1594 188.711 97.4658 193.861 105.285ZM142.617 90.4328C142.617 93.8249 142.497 96.9801 142.645 100.123C142.853 104.479 145.958 107.859 149.659 108.021C153.564 108.191 156.837 105.423 157.332 100.905C157.708 97.5053 157.408 94.0342 157.408 90.4328H142.613H142.617ZM143.052 165.999C145.416 170.671 147.667 175.121 150.07 179.872C152.482 175.102 154.745 170.624 157.081 165.999H143.052ZM155.148 206.977C155.148 204.687 155.16 202.535 155.133 200.383C155.129 200.079 155.013 199.652 154.793 199.49C153.212 198.341 151.587 197.243 150.05 196.177C148.553 197.231 147.128 198.211 145.739 199.238C145.424 199.47 145.028 199.873 145.02 200.205C144.956 202.444 144.988 204.683 144.988 206.977H155.148Z" fill="#FFAB2E"/>
<path d="M130.637 137.852C130.637 138.637 130.649 139.427 130.637 140.213C130.589 142.796 128.644 144.687 126.089 144.656C123.614 144.628 121.722 142.736 121.686 140.217C121.662 138.594 121.65 136.971 121.686 135.348C121.746 132.876 123.718 131.04 126.229 131.067C128.656 131.091 130.557 132.927 130.633 135.344C130.656 136.181 130.637 137.014 130.637 137.852Z" fill="#FFAB2E"/>
<path d="M178.447 137.958C178.447 138.744 178.467 139.534 178.447 140.319C178.375 142.799 176.427 144.667 173.936 144.655C171.453 144.643 169.533 142.76 169.493 140.256C169.465 138.633 169.461 137.01 169.493 135.387C169.541 132.903 171.489 131.055 173.996 131.063C176.431 131.075 178.355 132.895 178.439 135.3C178.471 136.185 178.443 137.069 178.443 137.958H178.447Z" fill="#FFAB2E"/>
</g>
<defs>
<clipPath id="clip0_268_3490">
<rect width="139.859" height="148.477" fill="white" transform="translate(78.7061 64.5555)"/>
</clipPath>
</defs>
</svg>
