<svg width="24" height="25" viewBox="0 0 24 25" fill="none" xmlns="http://www.w3.org/2000/svg">
<path fill-rule="evenodd" clip-rule="evenodd" d="M9.98438 0.0677968C15.1443 0.727208 18.6737 5.84832 17.6275 11.158C17.4581 12.0181 17.0816 13.0747 16.6974 13.7691L16.5134 14.1014L17.1293 14.6061C20.4553 17.3318 21.4758 18.2292 22.6033 19.4197C23.411 20.2726 23.5432 20.4346 23.6941 20.7566C24.2444 21.9307 24.0428 23.2179 23.1655 24.1319C22.4111 24.9178 21.3556 25.1921 20.3477 24.8642C19.7793 24.6794 19.5255 24.4751 18.4351 23.3246C17.3001 22.1273 16.5742 21.2154 13.658 17.3235L13.5566 17.1883L13.2679 17.3646C11.787 18.2688 9.80966 18.6981 8.00814 18.5066C6.8044 18.3787 5.16297 17.8366 4.81695 17.4528C4.42492 17.0179 4.47622 16.3775 4.93343 15.9985C5.07875 15.8781 5.16479 15.8477 5.40685 15.8317C5.66641 15.8145 5.74903 15.8333 6.08127 15.9855C6.54504 16.1979 7.10409 16.3761 7.66319 16.4898C8.26464 16.612 9.51719 16.6113 10.1485 16.4884C13.0429 15.9246 15.2875 13.5862 15.8286 10.5708C15.9497 9.89619 15.9497 8.65632 15.8286 7.98166C15.294 5.00234 13.1515 2.73275 10.2657 2.08858C9.55611 1.9302 8.25643 1.9301 7.54596 2.08839C6.08216 2.41453 5.01408 3.01932 3.95703 4.1206C2.89969 5.22208 2.31826 6.3367 2.00666 7.85953C1.92075 8.27942 1.90139 8.53199 1.89984 9.25183C1.89698 10.5759 2.0695 11.3443 2.65406 12.6112C3.04613 13.4609 3.06799 13.6011 2.87033 13.9998C2.65481 14.4343 2.09201 14.6232 1.66074 14.4057C1.38871 14.2685 1.23237 14.0499 0.909748 13.3554C-0.727043 9.8321 -0.122267 5.74358 2.45857 2.88551C4.36645 0.772641 7.19961 -0.288094 9.98438 0.0677968ZM9.22421 3.95421C9.44803 4.02641 9.73473 4.3462 9.79916 4.59555C9.90987 5.02384 9.74439 5.48715 9.40193 5.70763C9.28038 5.78589 9.1118 5.82717 8.77985 5.85985C8.1732 5.91965 7.84237 6.01344 7.40824 6.24876C6.78921 6.58428 6.32769 7.06055 6.01805 7.68322C5.7087 8.30546 5.42646 8.51977 4.96259 8.48484C4.24115 8.43047 3.90943 7.72807 4.2487 6.9732C4.75055 5.85653 5.7932 4.8106 6.8701 4.34352C7.63253 4.01283 8.80503 3.81894 9.22421 3.95421ZM15.1971 15.8388L15.0456 16.0016L16.2965 17.6585C18.5526 20.6468 19.0201 21.2226 20.0279 22.2542C20.5915 22.8311 20.7381 22.9555 20.912 23.0043C21.6531 23.2122 22.2827 22.5562 22.0831 21.7842C22.0363 21.6031 21.9165 21.4496 21.3632 20.8619C20.5118 19.9576 19.8481 19.3643 17.5776 17.4778C15.4636 15.7213 15.4096 15.6772 15.3745 15.6765C15.3603 15.6762 15.2804 15.7492 15.1971 15.8388Z" fill="#272626"/>
</svg>
