<svg width="24" height="24" viewBox="0 0 24 24" fill="none" xmlns="http://www.w3.org/2000/svg">
<path d="M14.542 3.61809L14.542 3.61813C14.1943 4.07019 13.8096 4.6565 13.4897 5.2056C13.1621 5.76801 12.9312 6.24287 12.8602 6.48418C12.8602 6.48422 12.8602 6.48426 12.8602 6.4843L12.3805 6.34336C12.3178 6.55674 12.2413 6.7313 12.2105 6.7313C12.1848 6.7313 12.053 6.56714 11.8975 6.345L14.542 3.61809ZM14.542 3.61809C15.7129 2.09521 17.0786 1.08286 18.4017 0.689747L18.2593 0.210454L18.4017 0.689743C19.2726 0.430978 20.0396 0.435579 20.9482 0.71157L20.9482 0.711579C21.3095 0.821281 21.7121 0.996782 22.0604 1.18874C22.4232 1.38871 22.6697 1.57524 22.7653 1.6881L22.7653 1.68813C23.2865 2.30315 23.5507 3.1466 23.492 4.33692C23.4327 5.53733 23.0456 7.05569 22.2973 8.96316C21.2765 11.5653 20.4605 13.2009 17.2085 19.1386L17.647 19.3788L17.2085 19.1386C16.6645 20.1318 16.1059 21.1612 15.6833 21.9422C15.472 22.3327 15.2946 22.6612 15.1701 22.8921L15.0253 23.1608L14.987 23.2319L14.9772 23.2502L14.9764 23.2516L14.976 23.2523L14.9674 23.2675L14.9636 23.2741C14.876 23.1996 14.7759 23.113 14.6644 23.0154C14.2365 22.6404 13.6565 22.1155 13.0106 21.5198C11.7187 20.3283 10.1735 18.8634 9.07132 17.7676C6.85112 15.5602 4.97588 13.4841 3.55409 11.6805C2.12407 9.86644 1.18005 8.3617 0.787003 7.29235L0.786999 7.29234C0.5378 6.61441 0.440674 5.73045 0.536077 4.92558M14.542 3.61809L11.3855 6.48228M11.3855 6.48228C10.5229 5.1959 8.90631 3.58143 7.67402 2.77175L7.67399 2.77173C6.39834 1.93345 4.81757 1.38437 3.79212 1.37426L3.79212 1.37426C2.1805 1.35835 0.799812 2.70224 0.536077 4.92558M11.3855 6.48228C11.3855 6.48231 11.3856 6.48235 11.3856 6.48239L11.8009 6.20391L11.3855 6.48228ZM0.536077 4.92558L0.0395576 4.86668L0.536077 4.92558Z" stroke="#E2168C"/>
</svg>
