<svg width="118" height="36" viewBox="0 0 118 36" fill="none" xmlns="http://www.w3.org/2000/svg">
<path d="M13.9911 27.056C12.7406 27.3398 11.5032 27.5205 10.2789 27.5979C9.08053 27.6495 7.86918 27.6495 6.6448 27.5979C6.20194 27.5979 5.81118 27.6624 5.47252 27.7914C5.15992 27.8946 4.87336 28.1268 4.61286 28.4881C4.03974 29.3138 3.21915 29.7008 2.15108 29.6492C1.23931 29.5976 0.614094 29.2106 0.275437 28.4881C-0.167423 27.6366 -0.0762455 26.9012 0.548968 26.2819C0.861575 25.9465 1.10906 25.5981 1.29141 25.2369C1.47376 24.8756 1.64309 24.5015 1.7994 24.1144C2.63301 21.9212 3.46663 19.7408 4.30025 17.5733C5.15992 15.38 6.03261 13.1868 6.91833 10.9935C7.36119 9.80654 7.8301 8.64539 8.32506 7.51005C8.82002 6.37471 9.32801 5.22646 9.84902 4.06532C10.0574 3.57506 10.331 3.16221 10.6696 2.82676C11.0343 2.41391 11.4511 2.13008 11.92 1.97526C12.415 1.79463 12.8969 1.74303 13.3658 1.82044C13.8608 1.87204 14.3167 2.03977 14.7335 2.3236C15.1503 2.58163 15.489 2.95578 15.7495 3.44604C15.8537 3.67827 15.9449 3.9234 16.023 4.18143C16.1272 4.41366 16.2054 4.64589 16.2575 4.87812C16.9348 7.53585 17.573 10.1936 18.1722 12.8513C18.7713 15.5091 19.2923 18.2055 19.7352 20.9406C19.9176 21.9986 20.0478 23.0436 20.126 24.0757C20.2302 25.1079 20.3213 26.14 20.3995 27.1721C20.4255 27.6366 20.3995 28.1526 20.3213 28.7203C20.165 29.3912 19.8394 29.9331 19.3444 30.3459C18.8495 30.733 18.2634 30.9523 17.586 31.0039C16.9608 31.0555 16.3747 30.9007 15.8276 30.5394C15.2806 30.1782 14.8768 29.6879 14.6163 29.0687C14.486 28.7848 14.3688 28.4752 14.2646 28.1397C14.1864 27.7785 14.0953 27.4172 13.9911 27.056ZM11.6856 14.3221H11.5293C10.9041 15.7929 10.2789 17.2766 9.65364 18.7732C9.02843 20.2697 8.37716 21.7921 7.69985 23.3403C8.16876 23.3403 8.62464 23.3532 9.0675 23.379C9.51036 23.379 9.95322 23.3661 10.3961 23.3403C10.8389 23.3403 11.2818 23.3532 11.7247 23.379C12.1675 23.4048 12.6104 23.3274 13.0532 23.1468C12.8448 21.676 12.6234 20.2052 12.3889 18.7345C12.1545 17.2637 11.92 15.7929 11.6856 14.3221Z" fill="#FFB800"/>
<path d="M35.3878 11.9224C35.466 11.3805 35.5311 10.8387 35.5832 10.2968C35.6353 9.75493 35.7265 9.21306 35.8567 8.6712C35.9609 8.05192 36.0782 7.41974 36.2084 6.77466C36.3387 6.12958 36.482 5.4716 36.6383 4.80071C36.6904 4.56848 36.7685 4.33625 36.8727 4.10402C37.003 3.84599 37.1332 3.61376 37.2635 3.40734C37.7584 2.63324 38.4488 2.24619 39.3345 2.24619C40.0379 2.24619 40.5979 2.47842 41.0148 2.94288C41.4576 3.38153 41.64 3.97501 41.5618 4.7233C41.3534 6.45212 41.2492 8.18093 41.2492 9.90975C41.2753 11.6386 41.3274 13.3803 41.4055 15.1349C41.4576 16.8379 41.5488 18.5151 41.679 20.1665C41.8093 21.8179 41.9395 23.4823 42.0698 25.1595C42.0698 25.3401 42.0698 25.5078 42.0698 25.6626C42.0959 25.7916 42.1089 25.9336 42.1089 26.0884C42.0568 27.6624 41.3274 28.6945 39.9206 29.1848C38.7484 29.5718 37.5891 29.9202 36.4429 30.2298C35.2967 30.5136 34.0983 30.6943 32.8479 30.7717C31.2588 30.8491 29.787 30.6168 28.4323 30.075C27.1038 29.5331 25.9185 28.6558 24.8764 27.443C23.7823 26.2819 22.9747 24.9788 22.4537 23.5339C21.9588 22.0631 21.8936 20.5665 22.2583 19.0441C22.4928 18.0894 22.8705 17.1992 23.3915 16.3735C23.9126 15.522 24.5378 14.7737 25.2672 14.1286C26.0227 13.4835 26.8432 12.9545 27.729 12.5417C28.6407 12.1288 29.5916 11.8579 30.5815 11.7289C31.337 11.6257 32.0664 11.587 32.7697 11.6128C33.4731 11.6128 34.1895 11.716 34.9189 11.9224C34.971 11.9482 35.0361 11.9611 35.1143 11.9611C35.1925 11.9353 35.2836 11.9224 35.3878 11.9224ZM35.0752 18.4248C34.3979 18.4248 33.7076 18.4248 33.0042 18.4248C32.3008 18.399 31.6105 18.4119 30.9332 18.4635C30.5945 18.4635 30.2689 18.5538 29.9563 18.7345C29.6697 18.9151 29.4092 19.1473 29.1748 19.4311C28.9664 19.6892 28.8101 19.9859 28.7059 20.3214C28.6277 20.6568 28.6277 20.9793 28.7059 21.289C28.8622 22.0889 29.2529 22.7469 29.8781 23.2629C30.5033 23.779 31.2328 24.037 32.0664 24.037C32.4571 24.037 32.8349 24.0241 33.1996 23.9983C33.5903 23.9467 33.9681 23.8951 34.3328 23.8435C34.5151 23.8177 34.6714 23.7919 34.8017 23.7661C34.9319 23.7145 35.0622 23.6758 35.1925 23.65V18.7732C35.1925 18.7216 35.1794 18.6828 35.1534 18.657C35.1534 18.6312 35.1273 18.5538 35.0752 18.4248Z" fill="#FFB800"/>
<path d="M44.0831 20.7084C44.1092 19.4698 44.2264 18.2571 44.4348 17.0701C44.6693 15.8832 45.0079 14.7092 45.4508 13.548C45.581 13.2384 45.6852 12.9287 45.7634 12.6191C45.8676 12.3095 45.9718 12.0127 46.076 11.7289C46.5709 10.3871 47.2483 9.26467 48.1079 8.36156C48.9937 7.43264 50.1399 6.77466 51.5466 6.38761C52.9012 6.02636 54.1907 6.05217 55.4151 6.46502C56.6395 6.87787 57.6685 7.65197 58.5021 8.78731C59.0752 9.5356 59.5181 10.3355 59.8307 11.187C60.1433 12.0127 60.3777 12.8771 60.534 13.7802C60.9769 16.3606 60.8988 18.8248 60.2996 21.1729C59.7265 23.521 58.6584 25.7529 57.0954 27.8688C56.5744 28.5913 55.9622 29.2235 55.2588 29.7653C54.5554 30.3072 53.7479 30.7072 52.8361 30.9652C50.3092 31.6361 48.2121 30.9394 46.5449 28.8751C45.7894 28.0236 45.2424 27.0947 44.9037 26.0884C44.5911 25.0562 44.3697 23.9854 44.2394 22.8759C44.1873 22.5146 44.1613 22.1534 44.1613 21.7921C44.1613 21.4309 44.1352 21.0696 44.0831 20.7084ZM54.5554 23.1081C54.9983 21.9728 55.35 20.7342 55.6105 19.3924C55.897 18.0249 56.0534 16.7476 56.0794 15.5607C56.1055 14.3479 56.0013 13.3158 55.7668 12.4643C55.5323 11.6128 55.1416 11.1483 54.5945 11.0709C54.0475 11.0967 53.5264 11.5354 53.0315 12.3869C52.5626 13.2384 52.1327 14.2834 51.742 15.522C51.3773 16.7347 51.0907 18.0249 50.8823 19.3924C50.6739 20.7342 50.5958 21.9212 50.6479 22.9533C50.6739 24.1144 50.8172 24.9272 51.0777 25.3917C51.3643 25.8561 51.7029 26.0626 52.0937 26.011C52.4844 25.9336 52.9012 25.6368 53.3441 25.1208C53.787 24.6047 54.1907 23.9338 54.5554 23.1081Z" fill="#FFB800"/>
<path d="M69.7779 25.3143C69.804 25.8303 69.817 26.3206 69.817 26.7851C69.8431 27.2495 69.8821 27.7011 69.9342 28.1397C69.9863 28.7848 70.0254 29.417 70.0515 30.0363C70.0775 30.6556 70.1036 31.2748 70.1296 31.8941V32.3586C70.1296 33.1069 69.9473 33.739 69.5826 34.2551C69.2178 34.7712 68.6968 35.0937 68.0195 35.2227C67.3422 35.3775 66.6909 35.3001 66.0657 34.9905C65.4405 34.7067 64.9716 34.2164 64.659 33.5197C64.5287 33.1843 64.4115 32.8488 64.3073 32.5134C64.2292 32.1779 64.164 31.8296 64.1119 31.4684C63.8254 29.5331 63.5909 27.6495 63.4086 25.8174C63.2262 23.9596 63.109 22.1276 63.0569 20.3214C63.0048 18.4893 63.0308 16.6573 63.135 14.8253C63.2392 12.9674 63.4346 11.0838 63.7212 9.17436C63.7733 8.91633 63.8384 8.6712 63.9165 8.43897C64.0208 8.18093 64.138 7.9229 64.2682 7.66487C64.5548 7.20041 64.9065 6.85207 65.3233 6.61984C65.7401 6.36181 66.209 6.25859 66.73 6.3102C67.2771 6.36181 67.733 6.51663 68.0977 6.77466C68.4884 7.03269 68.762 7.44554 68.9183 8.01321C68.9704 8.11643 69.0355 8.20674 69.1136 8.28415C69.296 8.15513 69.4653 8.02612 69.6216 7.8971C69.7779 7.74228 69.9473 7.61326 70.1296 7.51005C71.1195 6.78756 72.1355 6.3102 73.1775 6.07797C74.2196 5.81994 75.3397 5.87154 76.538 6.23279C78.0229 6.72305 79.2082 7.66487 80.0939 9.05824C80.8234 10.2194 81.3053 11.4579 81.5398 12.7739C81.8003 14.0899 81.7872 15.3929 81.5007 16.6831C81.2141 17.9733 80.628 19.1989 79.7423 20.3601C78.8566 21.4954 77.6452 22.463 76.1082 23.2629C75.1964 23.7274 74.2456 24.1144 73.2557 24.4241C72.2918 24.7337 71.2889 24.9917 70.2468 25.1982C70.1947 25.1982 70.0384 25.2369 69.7779 25.3143ZM69.5435 19.586C70.2729 19.3279 70.9762 19.057 71.6536 18.7732C72.3309 18.4893 72.9691 18.1152 73.5683 17.6507C74.0632 17.2379 74.441 16.7476 74.7015 16.1799C74.962 15.5865 75.1053 15.0188 75.1313 14.4769C75.1574 13.9093 75.0792 13.4061 74.8969 12.9674C74.7406 12.5288 74.4801 12.2578 74.1153 12.1546C73.7767 12.0256 73.3469 12.1159 72.8258 12.4256C72.3309 12.7094 71.7708 13.3158 71.1456 14.2447C70.5464 15.122 70.0905 16.0509 69.7779 17.0314C69.4653 17.9862 69.3872 18.8377 69.5435 19.586Z" fill="#FFB800"/>
<path d="M88.5377 12.9287C88.6158 12.232 88.707 11.4579 88.8112 10.6064C88.9154 9.75493 89.0196 8.89052 89.1238 8.01321C89.2541 7.1359 89.3843 6.2844 89.5146 5.45869C89.6709 4.63299 89.8142 3.8847 89.9444 3.21381C90.1528 2.46552 90.5566 1.93655 91.1558 1.62691C91.781 1.29147 92.4453 1.23987 93.1486 1.47209C93.6957 1.62691 94.1125 1.89785 94.3991 2.2849C94.6856 2.64614 94.8549 3.0977 94.9071 3.63957C95.0894 5.18776 95.1415 6.72305 95.0634 8.24544C95.0113 9.76783 94.9852 11.2773 94.9852 12.7739C96.1054 12.7481 97.1214 12.7223 98.0331 12.6965C98.9449 12.6449 99.8306 12.5804 100.69 12.503C101.133 12.4772 101.55 12.5417 101.941 12.6965C102.331 12.8255 102.657 13.019 102.918 13.2771C103.204 13.5351 103.4 13.8447 103.504 14.206C103.634 14.5672 103.66 14.9543 103.582 15.3671C103.504 15.8316 103.308 16.2057 102.996 16.4896C102.683 16.7734 102.318 17.0185 101.902 17.225C101.485 17.4056 101.042 17.5475 100.573 17.6507C100.13 17.7281 99.7264 17.8055 99.3617 17.8829C98.6062 17.9862 98.0983 18.0507 97.8377 18.0765C97.5772 18.1023 97.3688 18.1281 97.2125 18.1539C97.0562 18.1797 96.8608 18.2184 96.6264 18.27C96.3919 18.2958 95.923 18.3603 95.2197 18.4635C95.1415 19.9859 95.1415 21.3793 95.2197 22.6436C95.2978 23.8822 95.4671 24.7595 95.7276 25.2756C96.0142 25.7658 96.418 25.7787 96.939 25.3143C97.4861 24.8498 98.1764 23.6629 99.01 21.7534C99.2966 21.1342 99.7394 20.7084 100.339 20.4762C100.938 20.2439 101.511 20.1794 102.058 20.2826C102.631 20.3859 103.1 20.6568 103.465 21.0955C103.855 21.5083 103.986 22.076 103.855 22.7985C103.699 23.8306 103.387 24.8498 102.918 25.8561C102.475 26.8367 101.915 27.714 101.237 28.4881C100.586 29.2622 99.8436 29.8944 99.01 30.3846C98.1764 30.8491 97.2907 31.0813 96.3529 31.0813C94.9461 31.0813 93.7087 30.6814 92.6407 29.8815C91.5986 29.0557 90.7259 28.0236 90.0226 26.7851C89.3453 25.5465 88.8503 24.2047 88.5377 22.7598C88.2511 21.289 88.16 19.8956 88.2642 18.5796C87.7952 18.5538 87.2873 18.5022 86.7402 18.4248C86.1931 18.3216 85.6852 18.1668 85.2162 17.9604C84.7734 17.7539 84.4087 17.483 84.1221 17.1476C83.8356 16.7863 83.7053 16.3219 83.7314 15.7542C83.7574 15.2123 83.9398 14.7737 84.2784 14.4382C84.6431 14.077 85.073 13.7931 85.5679 13.5867C86.0629 13.3803 86.5839 13.2384 87.131 13.161C87.678 13.0577 88.1469 12.9803 88.5377 12.9287Z" fill="#FFB800"/>
<path d="M106.369 17.4572C106.422 17.1992 106.461 16.954 106.487 16.7218C106.539 16.4638 106.617 16.2186 106.721 15.9864C106.929 15.2639 107.307 14.735 107.854 14.3995C108.427 14.0383 109.027 13.9222 109.652 14.0512C110.329 14.1286 110.863 14.4124 111.254 14.9027C111.671 15.3671 111.879 15.9735 111.879 16.7218C111.931 17.8829 111.944 19.0312 111.918 20.1665C111.892 21.3019 111.866 22.4372 111.84 23.5726C111.84 24.3725 111.827 25.1595 111.801 25.9336C111.775 26.7077 111.762 27.4818 111.762 28.2558C111.762 29.6234 111.189 30.5007 110.043 30.8878C109.522 31.0426 108.987 31.0297 108.44 30.8491C107.893 30.6685 107.437 30.333 107.073 29.8427C106.708 29.0687 106.435 28.1397 106.252 27.056C106.07 25.9723 105.953 24.8627 105.9 23.7274C105.874 22.592 105.9 21.4696 105.979 20.3601C106.083 19.2505 106.213 18.2829 106.369 17.4572Z" fill="#FFB800"/>
<path fill-rule="evenodd" clip-rule="evenodd" d="M108.45 1.45939C107.627 2.007 107.337 3.78892 107.925 4.68127C108.555 5.63615 109.145 5.73379 109.907 5.00867C111.634 3.3646 110.336 0.204137 108.45 1.45939ZM112.374 2.45677C111.426 3.35856 111.231 4.9183 111.973 5.65498C112.776 6.45176 113.598 6.3 114.335 5.21897C115.638 3.30677 113.961 0.945142 112.374 2.45677ZM104.695 4.14795C104.002 4.84982 104.023 5.99209 104.746 6.89327C105.454 7.77586 106.761 7.25758 107.021 5.99119C107.397 4.15612 105.877 2.95129 104.695 4.14795ZM114.854 6.02034C113.873 6.74543 113.693 8.3341 114.523 8.93722C115.806 9.86903 117.543 8.20223 116.923 6.63503C116.524 5.62693 115.712 5.38578 114.854 6.02034ZM108.588 6.45159C107.199 6.99331 105.479 8.85784 105.225 10.0988C105.118 10.6224 105.245 11.3046 105.52 11.6793C105.953 12.2699 106.171 12.3297 107.616 12.2526C108.886 12.185 109.546 12.3106 110.714 12.8412C111.747 13.3107 112.396 13.4559 112.849 13.3189C115.36 12.5595 113.384 6.71911 110.423 6.1462C110.036 6.07126 109.21 6.20855 108.588 6.45159Z" fill="#E2168C"/>
</svg>
