<svg width="1440" height="289" viewBox="0 0 1440 289" fill="none" xmlns="http://www.w3.org/2000/svg">
<rect width="1440" height="289" fill="#1E1E1E"/>
<g clip-path="url(#clip0_268_3431)">
<rect width="1440" height="2496" transform="translate(0 -1356)" fill="#FDFDFF"/>
<rect y="-547" width="1440" height="836" fill="#FAFAFA"/>
<rect width="1440" height="289" fill="#F7F8FC"/>
<path d="M850 190.072C850.346 187.488 850.615 184.893 851.056 182.323C855.658 155.469 877.011 133.578 903.675 128.431C904.721 128.228 906.06 128.543 907.022 129.06C923.182 137.75 939.303 146.51 955.434 155.253C962.523 159.096 969.601 162.956 976.71 166.761C978.14 167.527 979.088 168.566 979.616 170.104C988.883 197.167 983.634 221.066 964.005 241.835C963.764 242.086 963.512 242.328 963.275 242.583C963.226 242.635 963.222 242.73 963.166 242.919C963.61 242.94 964.023 242.975 964.436 242.975C969.412 242.978 974.384 242.975 979.361 242.978C982.025 242.978 983.798 244.555 983.798 246.902C983.798 249.259 982.046 250.829 979.371 250.829C937.743 250.829 896.115 250.822 854.487 250.853C852.259 250.853 850.93 249.783 850.003 247.94V245.846C851.063 243.597 852.85 242.873 855.287 242.936C860.082 243.062 864.883 242.975 869.681 242.975H871.136C870.692 242.509 870.489 242.282 870.276 242.069C859.963 231.9 853.521 219.692 851.032 205.417C850.605 203.021 850.336 200.598 850 198.189C850 195.482 850 192.775 850 190.072ZM859.704 179.711C859.582 180.036 859.501 180.19 859.463 180.354C858.075 186.39 857.487 192.485 858.068 198.671C859.781 216.912 867.996 231.473 882.816 242.265C883.393 242.684 884.232 242.947 884.952 242.947C906.333 242.982 927.714 242.982 949.094 242.947C949.853 242.947 950.745 242.667 951.346 242.212C970.094 227.986 978.189 209.155 975.587 185.757C975.364 183.746 974.85 181.77 974.451 179.662C973.566 179.917 972.891 180.074 972.244 180.305C966.338 182.41 960.372 182.697 954.427 180.613C949.689 178.952 945.087 179.06 940.362 180.697C935.057 182.533 929.623 182.568 924.308 180.718C919.405 179.008 914.649 179.015 909.736 180.728C904.483 182.561 899.073 182.564 893.807 180.721C888.904 179.004 884.127 178.955 879.238 180.732C874.958 182.288 870.51 182.361 866.076 181.473C863.956 181.05 861.897 180.329 859.708 179.714L859.704 179.711ZM970.601 172.486C970.223 172.251 969.989 172.091 969.737 171.954C948.129 160.236 926.525 148.517 904.899 136.83C904.392 136.558 903.637 136.47 903.077 136.61C885.26 141.156 872.223 151.686 863.89 168.059C863.226 169.363 862.677 170.727 862.051 172.119C863.17 172.475 864.128 172.758 865.072 173.084C869.174 174.5 873.279 174.531 877.378 173.091C883.396 170.979 889.418 170.919 895.447 173.045C899.724 174.552 903.99 174.493 908.26 172.996C914.019 170.975 919.765 171.073 925.591 172.87C927.847 173.566 930.263 173.944 932.62 174.038C934.445 174.108 936.39 173.769 938.121 173.161C944.475 170.937 950.738 170.996 957.074 173.22C961.582 174.801 966.062 174.367 970.594 172.489L970.601 172.486Z" fill="#272626"/>
<path d="M902.427 215.205C904.48 213.789 906.421 212.306 908.501 211.047C913.922 207.763 919.751 205.914 926.175 206.567C931.879 207.148 936.918 209.47 941.499 212.792C943.573 214.296 945.524 215.995 947.388 217.761C949.133 219.412 949.178 221.699 947.528 223.364C942.177 228.766 935.998 232.788 928.434 234.348C921.632 235.75 915.359 234.113 909.47 230.767C907.053 229.396 904.815 227.714 902.441 226.137C901.179 226.962 899.832 227.913 898.412 228.745C895.09 230.693 891.537 231.924 887.645 231.973C885.082 232.005 883.438 230.452 883.414 227.871C883.372 223.073 883.375 218.272 883.414 213.474C883.435 210.729 885.197 209.141 887.956 209.271C893.017 209.512 897.391 211.544 901.42 214.46C901.773 214.715 902.116 214.978 902.423 215.205H902.427ZM922.727 226.958V214.31C917.209 214.771 912.743 217.293 908.442 220.643C912.754 223.996 917.233 226.5 922.727 226.958ZM930.781 215.457V225.787C933.666 224.042 936.278 222.461 938.894 220.881C938.89 220.702 938.883 220.524 938.88 220.349C936.264 218.768 933.648 217.188 930.781 215.457V215.457ZM891.331 223.598C893.181 222.598 894.828 221.706 896.846 220.615C894.804 219.531 893.156 218.657 891.331 217.688V223.601V223.598Z" fill="#272626"/>
<path d="M953.665 212.397C947.241 212.397 942.002 207.204 941.957 200.794C941.908 194.373 947.223 189.037 953.665 189.037C960.124 189.037 965.436 194.373 965.366 200.794C965.299 207.242 960.099 212.4 953.665 212.4V212.397ZM957.512 200.759C957.532 198.692 955.77 196.909 953.693 196.891C951.623 196.874 949.832 198.629 949.804 200.696C949.78 202.777 951.518 204.525 953.626 204.543C955.749 204.56 957.487 202.868 957.508 200.759H957.512Z" fill="#272626"/>
<path d="M970.764 150.351C964.34 150.351 959.101 145.158 959.056 138.748C959.007 132.327 964.322 126.991 970.764 126.991C977.223 126.991 982.534 132.327 982.464 138.748C982.398 145.196 977.198 150.354 970.764 150.354V150.351ZM974.61 138.713C974.631 136.646 972.869 134.862 970.792 134.845C968.721 134.827 966.931 136.583 966.903 138.65C966.878 140.73 968.616 142.479 970.725 142.496C972.848 142.514 974.586 140.821 974.607 138.713H974.61Z" fill="#272626"/>
<path d="M928.763 195.863C926.605 195.839 924.86 194.052 924.902 191.911C924.944 189.785 926.79 187.998 928.892 188.047C931.05 188.1 932.763 189.876 932.735 192.034C932.707 194.198 930.952 195.891 928.766 195.863H928.763Z" fill="#272626"/>
<path d="M984.861 127.817C982.704 127.792 980.959 126.005 981.001 123.865C981.043 121.739 982.889 119.952 984.991 120.001C987.148 120.053 988.862 121.83 988.834 123.988C988.806 126.152 987.051 127.845 984.865 127.817H984.861Z" fill="#272626"/>
<path d="M977.407 114.999C973.827 114.959 970.932 111.987 971.001 108.428C971.071 104.892 974.135 101.92 977.622 102.002C981.203 102.089 984.046 105.043 983.999 108.631C983.953 112.231 981.04 115.046 977.413 114.999H977.407Z" fill="#272626"/>
<rect width="676" height="8" rx="4" transform="matrix(-1 0 0 1 867 243)" fill="#272626"/>
<rect width="258" height="8" rx="4" transform="matrix(-1 0 0 1 1249 243)" fill="#272626"/>
<path d="M193.988 49.6016C206.449 49.7969 212.68 49.9206 212.68 49.9727C213.552 50.207 214.19 50.6042 214.594 51.1641C214.984 51.776 215.18 52.388 215.18 53C215.18 54.1068 214.646 54.9922 213.578 55.6562C213.07 55.9167 212.615 56.0469 212.211 56.0469C208.604 55.9818 206.573 55.9492 206.117 55.9492V74.875C206.117 76.1901 205.473 77.1602 204.184 77.7852C203.767 77.9284 203.383 78 203.031 78C201.885 78 200.974 77.4271 200.297 76.2812C200.089 75.8255 199.984 75.3568 199.984 74.875V55.832C195.531 55.7799 193.305 55.7148 193.305 55.6367C192.458 55.3633 191.853 54.9206 191.488 54.3086C191.163 53.7747 191 53.2214 191 52.6484C191 51.5417 191.54 50.6497 192.621 49.9727C193.051 49.7513 193.507 49.6276 193.988 49.6016ZM220.043 56.5156H220.766C222.25 56.5156 223.741 57.082 225.238 58.2148C226.462 59.2174 227.074 60.2135 227.074 61.2031V61.418C227.074 62.5508 226.469 63.4557 225.258 64.1328C224.828 64.2891 224.451 64.3672 224.125 64.3672H223.93C223.031 64.3672 222.172 63.9049 221.352 62.9805C221.052 62.7591 220.727 62.6484 220.375 62.6484C219.867 62.6484 219.457 62.9154 219.145 63.4492C218.819 63.8659 218.474 64.6276 218.109 65.7344C217.406 68.2474 217.055 71.0729 217.055 74.2109C217.081 74.6927 217.094 75.0117 217.094 75.168C217.094 75.6628 216.853 76.2422 216.371 76.9062C215.694 77.6354 214.945 78 214.125 78H213.91C212.777 78 211.872 77.3945 211.195 76.1836C210.987 75.832 210.883 74.7253 210.883 72.8633C210.622 64.556 210.492 60.0833 210.492 59.4453C210.492 58.612 210.935 57.8307 211.82 57.1016C212.38 56.737 212.934 56.5547 213.48 56.5547H213.617C214.542 56.5547 215.355 56.9909 216.059 57.8633C217.374 56.9648 218.702 56.5156 220.043 56.5156ZM237.758 56.3203H238.48C240.538 56.3203 242.452 57.082 244.223 58.6055C245.199 59.5951 245.915 60.5521 246.371 61.4766C247.27 63.2995 247.719 65.2526 247.719 67.3359C247.719 70.2786 246.859 72.8047 245.141 74.9141C244.151 75.9557 243.467 76.5417 243.09 76.6719C241.697 77.5573 240.212 78 238.637 78H238.188C236.091 78 234.092 77.3555 232.191 76.0664C231.918 75.9492 231.286 75.3633 230.297 74.3086C228.656 72.2773 227.836 69.8945 227.836 67.1602C227.836 64.2435 228.799 61.6849 230.727 59.4844C231.729 58.5078 232.452 57.9219 232.895 57.7266C234.522 56.7891 236.143 56.3203 237.758 56.3203ZM233.969 67.1797C233.969 68.6901 234.483 69.9206 235.512 70.8711C236.358 71.5352 237.322 71.8672 238.402 71.8672C239.809 71.8672 240.779 70.9948 241.312 69.25C241.482 68.612 241.566 68.013 241.566 67.4531V67.1797C241.566 65.5 241.046 64.1328 240.004 63.0781C239.509 62.6615 238.891 62.4531 238.148 62.4531C236.326 62.4531 235.043 63.3776 234.301 65.2266C234.079 65.9818 233.969 66.6328 233.969 67.1797ZM253.031 56.418C254.099 56.418 254.978 56.9388 255.668 57.9805C255.941 58.5013 256.078 58.9831 256.078 59.4258C256 60.6237 255.961 61.6458 255.961 62.4922C255.961 66.5677 256.527 69.4648 257.66 71.1836C257.973 71.6133 258.363 71.8281 258.832 71.8281C259.561 71.8281 260.225 71.2422 260.824 70.0703C261.124 69.5625 261.462 68.7031 261.84 67.4922C262.204 66.4896 262.556 64.7578 262.895 62.2969C263.012 61.2552 263.103 60.2135 263.168 59.1719C263.324 58.4297 263.591 57.8763 263.969 57.5117C264.62 56.8607 265.368 56.5352 266.215 56.5352C267.217 56.5352 268.07 57.0169 268.773 57.9805C269.112 58.3841 269.281 59.2565 269.281 60.5977C269.568 69.4779 269.711 74.2695 269.711 74.9727C269.711 76.0404 269.197 76.9128 268.168 77.5898C267.673 77.8633 267.159 78 266.625 78C265.44 78 264.503 77.375 263.812 76.125H263.773C262.315 77.3359 260.661 77.9414 258.812 77.9414C256.221 77.9414 254.105 76.763 252.465 74.4062C250.707 71.75 249.828 67.7786 249.828 62.4922C249.828 60.1484 249.952 58.7422 250.199 58.2734C250.85 57.0365 251.794 56.418 253.031 56.418ZM288.93 55.8125C290.036 55.8125 290.935 56.3724 291.625 57.4922C291.846 57.987 291.957 58.4557 291.957 58.8984C291.957 59.4453 291.677 60.2852 291.117 61.418C287.458 69.9206 285.284 74.9401 284.594 76.4766C283.904 77.4922 283.018 78 281.938 78C280.518 78 279.451 77.1211 278.734 75.3633C273.695 65.7018 271.104 60.6888 270.961 60.3242C270.857 59.9076 270.805 59.5755 270.805 59.3281C270.805 58.2995 271.28 57.4401 272.23 56.75C272.764 56.4245 273.318 56.2617 273.891 56.2617C274.958 56.2617 275.837 56.7826 276.527 57.8242C279.913 64.3607 281.638 67.668 281.703 67.7461C281.768 67.668 283.057 64.6862 285.57 58.8008C286.065 57.5378 286.579 56.737 287.113 56.3984C287.686 56.0078 288.292 55.8125 288.93 55.8125ZM302.484 55.7734H302.973C307.074 55.7734 310.154 57.2057 312.211 60.0703C313.305 61.737 313.852 63.638 313.852 65.7734C313.852 67.4922 313.051 68.6055 311.449 69.1133C311.449 69.1914 307.628 69.3346 299.984 69.543C300.284 70.181 300.87 70.793 301.742 71.3789C302.263 71.6914 302.868 71.8477 303.559 71.8477H303.91C305.616 71.8477 306.977 71.418 307.992 70.5586C308.526 70.2721 309.021 70.1289 309.477 70.1289H309.672C310.805 70.1289 311.71 70.7344 312.387 71.9453C312.543 72.388 312.621 72.7721 312.621 73.0977V73.293C312.621 75.0247 311.046 76.4049 307.895 77.4336C306.592 77.8112 305.232 78 303.812 78C300.974 78 298.611 77.082 296.723 75.2461C295.824 74.3607 295.193 73.599 294.828 72.9609C293.643 71.125 292.921 69.1003 292.66 66.8867C292.621 66.4701 292.602 66.138 292.602 65.8906V65.1094C292.602 62.9089 293.311 60.8841 294.73 59.0352C296.566 56.8607 299.151 55.7734 302.484 55.7734ZM299.203 63.4297H299.223C299.835 63.4297 302.354 63.3516 306.781 63.1953V63.1367C305.974 62.3164 304.62 61.9062 302.719 61.9062C300.87 61.9062 299.717 62.3555 299.262 63.2539C299.236 63.2539 299.216 63.3125 299.203 63.4297ZM331.84 55.8516C332.439 55.8516 333.077 56.1445 333.754 56.7305C334.366 57.3945 334.672 58.1042 334.672 58.8594V58.9766C334.672 59.862 334.223 60.7344 333.324 61.5938L324.438 71.6523V71.6914C328.344 71.6003 330.46 71.5547 330.785 71.5547C331.436 71.5547 332.1 71.8607 332.777 72.4727C333.363 73.1107 333.656 73.7943 333.656 74.5234V74.6992C333.656 75.6758 333.174 76.5156 332.211 77.2188C331.794 77.5443 331.007 77.707 329.848 77.707C321.944 77.9023 317.745 78 317.25 78C316.469 78 315.733 77.6159 315.043 76.8477C314.587 76.2357 314.359 75.6172 314.359 74.9922V74.875C314.359 74.0026 314.809 73.1302 315.707 72.2578L324.711 62.0625C324.711 62.0365 324.704 62.0234 324.691 62.0234C323.78 62.0234 321.794 62.0365 318.734 62.0625C318.148 62.0625 317.53 61.7891 316.879 61.2422C316.228 60.6042 315.902 59.888 315.902 59.0938V58.8984C315.902 57.8568 316.436 56.9909 317.504 56.3008C318.012 56.0534 318.428 55.9297 318.754 55.9297L331.84 55.8516ZM349.164 49.6211C350.31 49.6211 351.221 50.194 351.898 51.3398C352.12 51.6523 352.23 52.5117 352.23 53.918C352.309 66.444 352.348 73.4622 352.348 74.9727C352.348 76.0404 351.84 76.9128 350.824 77.5898C350.316 77.8633 349.802 78 349.281 78C348.161 78 347.257 77.4401 346.566 76.3203C346.345 75.7604 346.234 75.2396 346.234 74.7578C346.234 72.2839 346.182 64.875 346.078 52.5312C346.078 51.9844 346.326 51.3724 346.82 50.6953C347.484 49.9792 348.266 49.6211 349.164 49.6211ZM356.801 49.7578H356.938C357.992 49.7578 358.871 50.2982 359.574 51.3789C359.822 51.8997 359.945 52.4206 359.945 52.9414C359.945 54.4128 359.971 57.0039 360.023 60.7148C359.971 61.2227 359.776 61.75 359.438 62.2969C358.734 63.1302 357.94 63.5469 357.055 63.5469H356.84C355.837 63.5469 354.991 63.0521 354.301 62.0625C354.014 61.6719 353.871 60.8906 353.871 59.7188C353.832 56.0208 353.812 53.6576 353.812 52.6289C353.812 51.8086 354.255 51.0273 355.141 50.2852C355.701 49.9336 356.254 49.7578 356.801 49.7578ZM372.367 55.3438C374.542 55.3438 376.84 55.806 379.262 56.7305C380.447 57.3945 381.039 58.3451 381.039 59.582L381.02 59.875C381.54 60.4219 381.801 61.3203 381.801 62.5703C381.827 62.5703 381.84 62.9935 381.84 63.8398C381.84 64.6732 381.833 65.5195 381.82 66.3789C381.924 71.2878 381.977 74.0677 381.977 74.7188C381.977 75.6172 381.553 76.418 380.707 77.1211C380.134 77.5117 379.529 77.707 378.891 77.707C378.018 77.707 377.243 77.349 376.566 76.6328L376.527 76.6133C374.665 77.5378 372.888 78 371.195 78H370.668C368.637 78 366.755 77.349 365.023 76.0469C362.68 74.0677 361.508 71.2682 361.508 67.6484C361.508 63.4948 362.68 60.2721 365.023 57.9805C366.977 56.2227 369.424 55.3438 372.367 55.3438ZM367.641 67.5898C367.641 69.6602 368.188 70.9753 369.281 71.5352C369.724 71.7565 370.264 71.8672 370.902 71.8672H370.941C372.243 71.8672 373.383 71.4831 374.359 70.7148C374.568 70.4935 374.783 70.1029 375.004 69.543C375.447 68.1628 375.668 66.9128 375.668 65.793C375.668 65.2591 375.655 63.9831 375.629 61.9648C374.431 61.6393 373.331 61.4766 372.328 61.4766C370.31 61.4766 368.982 62.2122 368.344 63.6836C367.875 64.8424 367.641 66.1445 367.641 67.5898ZM394.828 56.3594H395.688C396.833 56.3594 398.077 56.7695 399.418 57.5898C399.848 57.8372 400.414 58.3385 401.117 59.0938C401.911 59.9661 402.608 61.1315 403.207 62.5898C404.483 65.7669 405.121 69.7448 405.121 74.5234C405.121 75.9948 404.587 77.0169 403.52 77.5898C403.09 77.8633 402.621 78 402.113 78H401.938C400.805 78 399.9 77.3945 399.223 76.1836C399.053 75.7279 398.969 75.3568 398.969 75.0703C398.969 74.8099 398.975 74.5755 398.988 74.3672C398.988 71.0339 398.565 68.0456 397.719 65.4023C397.016 63.4622 396.182 62.4922 395.219 62.4922H395.199C394.652 62.4922 394.216 62.8112 393.891 63.4492C393.591 63.8398 393.266 64.5951 392.914 65.7148C392.237 68.1497 391.898 70.9883 391.898 74.2305V74.8945C391.898 76.0273 391.299 76.9323 390.102 77.6094C389.659 77.7656 389.275 77.8438 388.949 77.8438H388.754C387.66 77.8438 386.768 77.2708 386.078 76.125C385.857 75.7604 385.746 74.9792 385.746 73.7812C385.473 65.0052 385.336 60.1875 385.336 59.3281C385.336 58.4167 385.811 57.6094 386.762 56.9062C387.27 56.5807 387.79 56.418 388.324 56.418H388.48C389.379 56.418 390.186 56.8411 390.902 57.6875H390.961C392.211 56.8021 393.5 56.3594 394.828 56.3594ZM410.062 48.6836H410.316C411.358 48.6836 412.263 49.1914 413.031 50.207C413.422 50.832 413.617 51.431 413.617 52.0039V52.3945C413.617 53.1107 413.331 53.8268 412.758 54.543C411.951 55.3893 411.059 55.8125 410.082 55.8125H409.828C409.086 55.8125 408.363 55.5195 407.66 54.9336C406.944 54.2044 406.586 53.4297 406.586 52.6094V52.2383C406.586 51.444 406.911 50.6562 407.562 49.875C408.331 49.0807 409.164 48.6836 410.062 48.6836ZM410.395 56.5938H410.609C411.703 56.5938 412.595 57.1667 413.285 58.3125C413.48 58.651 413.578 59.25 413.578 60.1094C413.799 68.599 413.917 73.599 413.93 75.1094C413.93 75.9427 413.493 76.724 412.621 77.4531C412.048 77.8177 411.495 78 410.961 78H410.805C409.802 78 408.956 77.5117 408.266 76.5352C407.94 76.1315 407.777 75.3438 407.777 74.1719C407.556 64.888 407.445 59.9792 407.445 59.4453C407.445 58.651 407.849 57.8958 408.656 57.1797C409.255 56.7891 409.835 56.5938 410.395 56.5938ZM439.477 55.8711H440.004C441.358 55.8711 442.699 56.418 444.027 57.5117C444.874 58.3581 445.492 59.1328 445.883 59.8359C446.299 60.6042 446.697 61.4961 447.074 62.5117C447.374 63.3451 447.706 64.6797 448.07 66.5156C448.552 69.3802 448.793 71.9974 448.793 74.3672V74.8945C448.793 76.0273 448.188 76.9323 446.977 77.6094C446.534 77.7656 446.15 77.8438 445.824 77.8438H445.629C444.496 77.8438 443.598 77.2448 442.934 76.0469C442.751 75.5651 442.66 75.1549 442.66 74.8164V74.7969C442.66 71.2552 442.23 67.9349 441.371 64.8359C440.98 63.612 440.505 62.7005 439.945 62.1016C439.841 62.0495 439.776 62.0234 439.75 62.0234H439.672C439.333 62.0234 438.904 62.707 438.383 64.0742C438.122 64.7383 437.862 65.8646 437.602 67.4531C437.354 69.4974 437.23 71.0208 437.23 72.0234C437.257 73.1953 437.27 74.2044 437.27 75.0508C437.27 76.0794 436.723 76.9453 435.629 77.6484C435.147 77.8828 434.698 78 434.281 78H434.105C433.038 78 432.152 77.4401 431.449 76.3203C431.228 75.9688 431.117 75.2201 431.117 74.0742C431.117 69.9466 430.512 66.6133 429.301 64.0742C428.741 63.0195 428.096 62.4922 427.367 62.4922H427.348C426.762 62.4922 426.267 62.9154 425.863 63.7617C425.59 64.1784 425.271 65.0247 424.906 66.3008C424.359 68.6836 424.086 71.151 424.086 73.7031C424.086 73.8724 424.073 74.0026 424.047 74.0938C424.073 74.1849 424.086 74.3151 424.086 74.4844V74.875C424.086 75.9297 423.546 76.8086 422.465 77.5117C421.983 77.7331 421.534 77.8438 421.117 77.8438H420.902C419.9 77.8438 419.06 77.3555 418.383 76.3789C418.057 76.0143 417.895 75.0703 417.895 73.5469C417.621 64.3281 417.484 59.569 417.484 59.2695C417.484 58.6185 417.797 57.9609 418.422 57.2969C419.047 56.7109 419.73 56.418 420.473 56.418H420.629C421.527 56.418 422.335 56.8411 423.051 57.6875H423.109C424.385 56.8021 425.674 56.3594 426.977 56.3594H427.855C429.145 56.3594 430.531 56.8672 432.016 57.8828C432.589 58.3646 433.148 58.9245 433.695 59.5625C434.021 59.0938 434.307 58.7031 434.555 58.3906C435.57 57.2969 436.456 56.6328 437.211 56.3984C437.992 56.0469 438.747 55.8711 439.477 55.8711ZM461.625 55.3438C463.799 55.3438 466.098 55.806 468.52 56.7305C469.704 57.3945 470.297 58.3451 470.297 59.582L470.277 59.875C470.798 60.4219 471.059 61.3203 471.059 62.5703C471.085 62.5703 471.098 62.9935 471.098 63.8398C471.098 64.6732 471.091 65.5195 471.078 66.3789C471.182 71.2878 471.234 74.0677 471.234 74.7188C471.234 75.6172 470.811 76.418 469.965 77.1211C469.392 77.5117 468.786 77.707 468.148 77.707C467.276 77.707 466.501 77.349 465.824 76.6328L465.785 76.6133C463.923 77.5378 462.146 78 460.453 78H459.926C457.895 78 456.013 77.349 454.281 76.0469C451.938 74.0677 450.766 71.2682 450.766 67.6484C450.766 63.4948 451.938 60.2721 454.281 57.9805C456.234 56.2227 458.682 55.3438 461.625 55.3438ZM456.898 67.5898C456.898 69.6602 457.445 70.9753 458.539 71.5352C458.982 71.7565 459.522 71.8672 460.16 71.8672H460.199C461.501 71.8672 462.641 71.4831 463.617 70.7148C463.826 70.4935 464.04 70.1029 464.262 69.543C464.704 68.1628 464.926 66.9128 464.926 65.793C464.926 65.2591 464.913 63.9831 464.887 61.9648C463.689 61.6393 462.589 61.4766 461.586 61.4766C459.568 61.4766 458.24 62.2122 457.602 63.6836C457.133 64.8424 456.898 66.1445 456.898 67.5898ZM477.875 49.6211C479.021 49.6211 479.932 50.194 480.609 51.3398C480.831 51.6523 480.941 52.5117 480.941 53.918C481.02 66.444 481.059 73.4622 481.059 74.9727C481.059 76.0404 480.551 76.9128 479.535 77.5898C479.027 77.8633 478.513 78 477.992 78C476.872 78 475.967 77.4401 475.277 76.3203C475.056 75.7604 474.945 75.2396 474.945 74.7578C474.945 72.2839 474.893 64.875 474.789 52.5312C474.789 51.9844 475.036 51.3724 475.531 50.6953C476.195 49.9792 476.977 49.6211 477.875 49.6211ZM505.609 56.0664C508.057 56.0664 509.535 56.2812 510.043 56.7109C510.642 57.0234 511.098 57.6224 511.41 58.5078C511.501 58.8854 511.547 59.0807 511.547 59.0938C511.547 59.3411 511.534 60.1484 511.508 61.5156C511.482 72.3359 511.469 78.918 511.469 81.2617C511.469 82.9544 510.701 84.0482 509.164 84.543C508.93 84.6081 508.702 84.6406 508.48 84.6406H508.285C507.152 84.6406 506.254 84.0352 505.59 82.8242C505.421 82.3945 505.336 82.0169 505.336 81.6914V78.1953C505.336 78.1562 504.913 78.0911 504.066 78C502.243 77.6484 500.876 77.2708 499.965 76.8672C499.04 76.5026 498.122 76.0143 497.211 75.4023C495.167 74.0352 493.741 72.1406 492.934 69.7188C492.608 68.599 492.445 67.5964 492.445 66.7109V65.6367C492.445 64.1393 492.908 62.6029 493.832 61.0273C496.059 57.7201 499.984 56.0664 505.609 56.0664ZM498.578 66.1055V66.2617C498.578 68.9701 500.264 70.7474 503.637 71.5938C504.457 71.8281 505.03 71.9453 505.355 71.9453C505.382 67.2839 505.395 64.0417 505.395 62.2188H505.336C502.992 62.2188 501.13 62.668 499.75 63.5664C498.969 64.1393 498.578 64.9857 498.578 66.1055ZM517.836 56.418C518.904 56.418 519.783 56.9388 520.473 57.9805C520.746 58.5013 520.883 58.9831 520.883 59.4258C520.805 60.6237 520.766 61.6458 520.766 62.4922C520.766 66.5677 521.332 69.4648 522.465 71.1836C522.777 71.6133 523.168 71.8281 523.637 71.8281C524.366 71.8281 525.03 71.2422 525.629 70.0703C525.928 69.5625 526.267 68.7031 526.645 67.4922C527.009 66.4896 527.361 64.7578 527.699 62.2969C527.816 61.2552 527.908 60.2135 527.973 59.1719C528.129 58.4297 528.396 57.8763 528.773 57.5117C529.424 56.8607 530.173 56.5352 531.02 56.5352C532.022 56.5352 532.875 57.0169 533.578 57.9805C533.917 58.3841 534.086 59.2565 534.086 60.5977C534.372 69.4779 534.516 74.2695 534.516 74.9727C534.516 76.0404 534.001 76.9128 532.973 77.5898C532.478 77.8633 531.964 78 531.43 78C530.245 78 529.307 77.375 528.617 76.125H528.578C527.12 77.3359 525.466 77.9414 523.617 77.9414C521.026 77.9414 518.91 76.763 517.27 74.4062C515.512 71.75 514.633 67.7786 514.633 62.4922C514.633 60.1484 514.757 58.7422 515.004 58.2734C515.655 57.0365 516.599 56.418 517.836 56.418ZM540.609 48.6836H540.863C541.905 48.6836 542.81 49.1914 543.578 50.207C543.969 50.832 544.164 51.431 544.164 52.0039V52.3945C544.164 53.1107 543.878 53.8268 543.305 54.543C542.497 55.3893 541.605 55.8125 540.629 55.8125H540.375C539.633 55.8125 538.91 55.5195 538.207 54.9336C537.491 54.2044 537.133 53.4297 537.133 52.6094V52.2383C537.133 51.444 537.458 50.6562 538.109 49.875C538.878 49.0807 539.711 48.6836 540.609 48.6836ZM540.941 56.5938H541.156C542.25 56.5938 543.142 57.1667 543.832 58.3125C544.027 58.651 544.125 59.25 544.125 60.1094C544.346 68.599 544.464 73.599 544.477 75.1094C544.477 75.9427 544.04 76.724 543.168 77.4531C542.595 77.8177 542.042 78 541.508 78H541.352C540.349 78 539.503 77.5117 538.812 76.5352C538.487 76.1315 538.324 75.3438 538.324 74.1719C538.103 64.888 537.992 59.9792 537.992 59.4453C537.992 58.651 538.396 57.8958 539.203 57.1797C539.802 56.7891 540.382 56.5938 540.941 56.5938ZM574.008 55.8125C575.115 55.8125 576.013 56.3724 576.703 57.4922C576.924 57.987 577.035 58.4557 577.035 58.8984C577.035 59.4453 576.755 60.2852 576.195 61.418C572.536 69.9206 570.362 74.9401 569.672 76.4766C568.982 77.4922 568.096 78 567.016 78C565.596 78 564.529 77.1211 563.812 75.3633C558.773 65.7018 556.182 60.6888 556.039 60.3242C555.935 59.9076 555.883 59.5755 555.883 59.3281C555.883 58.2995 556.358 57.4401 557.309 56.75C557.842 56.4245 558.396 56.2617 558.969 56.2617C560.036 56.2617 560.915 56.7826 561.605 57.8242C564.991 64.3607 566.716 67.668 566.781 67.7461C566.846 67.668 568.135 64.6862 570.648 58.8008C571.143 57.5378 571.658 56.737 572.191 56.3984C572.764 56.0078 573.37 55.8125 574.008 55.8125ZM587.289 56.3203H588.012C590.069 56.3203 591.983 57.082 593.754 58.6055C594.73 59.5951 595.447 60.5521 595.902 61.4766C596.801 63.2995 597.25 65.2526 597.25 67.3359C597.25 70.2786 596.391 72.8047 594.672 74.9141C593.682 75.9557 592.999 76.5417 592.621 76.6719C591.228 77.5573 589.743 78 588.168 78H587.719C585.622 78 583.624 77.3555 581.723 76.0664C581.449 75.9492 580.818 75.3633 579.828 74.3086C578.188 72.2773 577.367 69.8945 577.367 67.1602C577.367 64.2435 578.331 61.6849 580.258 59.4844C581.26 58.5078 581.983 57.9219 582.426 57.7266C584.053 56.7891 585.674 56.3203 587.289 56.3203ZM583.5 67.1797C583.5 68.6901 584.014 69.9206 585.043 70.8711C585.889 71.5352 586.853 71.8672 587.934 71.8672C589.34 71.8672 590.31 70.9948 590.844 69.25C591.013 68.612 591.098 68.013 591.098 67.4531V67.1797C591.098 65.5 590.577 64.1328 589.535 63.0781C589.04 62.6615 588.422 62.4531 587.68 62.4531C585.857 62.4531 584.574 63.3776 583.832 65.2266C583.611 65.9818 583.5 66.6328 583.5 67.1797ZM602.562 56.418C603.63 56.418 604.509 56.9388 605.199 57.9805C605.473 58.5013 605.609 58.9831 605.609 59.4258C605.531 60.6237 605.492 61.6458 605.492 62.4922C605.492 66.5677 606.059 69.4648 607.191 71.1836C607.504 71.6133 607.895 71.8281 608.363 71.8281C609.092 71.8281 609.757 71.2422 610.355 70.0703C610.655 69.5625 610.993 68.7031 611.371 67.4922C611.736 66.4896 612.087 64.7578 612.426 62.2969C612.543 61.2552 612.634 60.2135 612.699 59.1719C612.855 58.4297 613.122 57.8763 613.5 57.5117C614.151 56.8607 614.9 56.5352 615.746 56.5352C616.749 56.5352 617.602 57.0169 618.305 57.9805C618.643 58.3841 618.812 59.2565 618.812 60.5977C619.099 69.4779 619.242 74.2695 619.242 74.9727C619.242 76.0404 618.728 76.9128 617.699 77.5898C617.204 77.8633 616.69 78 616.156 78C614.971 78 614.034 77.375 613.344 76.125H613.305C611.846 77.3359 610.193 77.9414 608.344 77.9414C605.753 77.9414 603.637 76.763 601.996 74.4062C600.238 71.75 599.359 67.7786 599.359 62.4922C599.359 60.1484 599.483 58.7422 599.73 58.2734C600.382 57.0365 601.326 56.418 602.562 56.418ZM629.242 55.8906L629.633 55.8711C629.828 55.8581 630.023 55.8516 630.219 55.8516C632.263 55.8516 634.672 56.2878 637.445 57.1602C638.695 57.7721 639.353 58.6901 639.418 59.9141V60.0703C639.418 61.112 638.897 61.9844 637.855 62.6875C637.361 62.9219 636.892 63.0521 636.449 63.0781H636.41C636.02 63.0781 635.095 62.8633 633.637 62.4336C632.322 62.1341 631.156 61.9844 630.141 61.9844C629.984 61.9844 629.835 61.9909 629.691 62.0039C628.702 62.056 628.07 62.2448 627.797 62.5703C628.422 62.987 630.271 63.6315 633.344 64.5039C637.471 65.806 639.6 67.8372 639.73 70.5977V70.9492C639.73 72.1471 639.314 73.3841 638.48 74.6602C636.931 76.7174 634.542 77.8177 631.312 77.9609L630.941 77.9805C630.681 77.9935 630.414 78 630.141 78C628.148 78 625.883 77.6615 623.344 76.9844C622.732 76.7109 622.237 76.2812 621.859 75.6953C621.586 75.2005 621.443 74.7253 621.43 74.2695V74.1133C621.43 73.1628 621.866 72.3359 622.738 71.6328C623.259 71.2943 623.806 71.112 624.379 71.0859H624.418C624.691 71.0859 625.473 71.2227 626.762 71.4961C628.012 71.7435 629.171 71.8672 630.238 71.8672C630.473 71.8672 630.701 71.8607 630.922 71.8477C632.159 71.7956 632.986 71.5742 633.402 71.1836V71.1445C632.895 70.806 631.26 70.2396 628.5 69.4453C623.995 68.1172 621.677 66.0078 621.547 63.1172V62.7461C621.547 61.3138 622.074 59.9336 623.129 58.6055C624.6 56.9128 626.638 56.0078 629.242 55.8906ZM202.602 107.324H202.816C205.355 107.324 207.895 108.171 210.434 109.863C211.384 110.566 211.859 111.432 211.859 112.461C211.859 113.581 211.293 114.486 210.16 115.176C209.665 115.384 209.197 115.488 208.754 115.488C208.038 115.488 207.315 115.208 206.586 114.648C205.258 113.841 203.962 113.438 202.699 113.438C201.098 113.438 199.665 114.102 198.402 115.43C197.556 116.419 197.133 117.526 197.133 118.75V118.867C197.133 120.573 197.862 121.94 199.32 122.969C200.44 123.568 201.599 123.867 202.797 123.867C204.086 123.867 205.316 123.451 206.488 122.617C206.996 122.331 207.523 122.188 208.07 122.188C209.125 122.188 209.997 122.702 210.688 123.73C210.961 124.225 211.098 124.733 211.098 125.254C211.098 126.686 210.128 127.839 208.188 128.711C206.469 129.57 204.704 130 202.895 130H202.582C200.342 130 198.116 129.349 195.902 128.047C195.395 127.734 194.665 127.096 193.715 126.133C193.103 125.378 192.621 124.681 192.27 124.043C191.423 122.285 191 120.664 191 119.18V118.418C191 116.79 191.488 115.065 192.465 113.242C192.816 112.552 193.487 111.706 194.477 110.703C195.518 109.74 196.449 109.069 197.27 108.691C199.001 107.78 200.779 107.324 202.602 107.324ZM222.602 108.32H223.324C225.382 108.32 227.296 109.082 229.066 110.605C230.043 111.595 230.759 112.552 231.215 113.477C232.113 115.299 232.562 117.253 232.562 119.336C232.562 122.279 231.703 124.805 229.984 126.914C228.995 127.956 228.311 128.542 227.934 128.672C226.54 129.557 225.056 130 223.48 130H223.031C220.935 130 218.936 129.355 217.035 128.066C216.762 127.949 216.13 127.363 215.141 126.309C213.5 124.277 212.68 121.895 212.68 119.16C212.68 116.243 213.643 113.685 215.57 111.484C216.573 110.508 217.296 109.922 217.738 109.727C219.366 108.789 220.987 108.32 222.602 108.32ZM218.812 119.18C218.812 120.69 219.327 121.921 220.355 122.871C221.202 123.535 222.165 123.867 223.246 123.867C224.652 123.867 225.622 122.995 226.156 121.25C226.326 120.612 226.41 120.013 226.41 119.453V119.18C226.41 117.5 225.889 116.133 224.848 115.078C224.353 114.661 223.734 114.453 222.992 114.453C221.169 114.453 219.887 115.378 219.145 117.227C218.923 117.982 218.812 118.633 218.812 119.18ZM244.125 108.359H244.984C246.13 108.359 247.374 108.77 248.715 109.59C249.145 109.837 249.711 110.339 250.414 111.094C251.208 111.966 251.905 113.132 252.504 114.59C253.78 117.767 254.418 121.745 254.418 126.523C254.418 127.995 253.884 129.017 252.816 129.59C252.387 129.863 251.918 130 251.41 130H251.234C250.102 130 249.197 129.395 248.52 128.184C248.35 127.728 248.266 127.357 248.266 127.07C248.266 126.81 248.272 126.576 248.285 126.367C248.285 123.034 247.862 120.046 247.016 117.402C246.312 115.462 245.479 114.492 244.516 114.492H244.496C243.949 114.492 243.513 114.811 243.188 115.449C242.888 115.84 242.562 116.595 242.211 117.715C241.534 120.15 241.195 122.988 241.195 126.23V126.895C241.195 128.027 240.596 128.932 239.398 129.609C238.956 129.766 238.572 129.844 238.246 129.844H238.051C236.957 129.844 236.065 129.271 235.375 128.125C235.154 127.76 235.043 126.979 235.043 125.781C234.77 117.005 234.633 112.188 234.633 111.328C234.633 110.417 235.108 109.609 236.059 108.906C236.566 108.581 237.087 108.418 237.621 108.418H237.777C238.676 108.418 239.483 108.841 240.199 109.688H240.258C241.508 108.802 242.797 108.359 244.125 108.359ZM271.781 107.812C272.888 107.812 273.786 108.372 274.477 109.492C274.698 109.987 274.809 110.456 274.809 110.898C274.809 111.445 274.529 112.285 273.969 113.418C270.31 121.921 268.135 126.94 267.445 128.477C266.755 129.492 265.87 130 264.789 130C263.37 130 262.302 129.121 261.586 127.363C256.547 117.702 253.956 112.689 253.812 112.324C253.708 111.908 253.656 111.576 253.656 111.328C253.656 110.299 254.132 109.44 255.082 108.75C255.616 108.424 256.169 108.262 256.742 108.262C257.81 108.262 258.689 108.783 259.379 109.824C262.764 116.361 264.49 119.668 264.555 119.746C264.62 119.668 265.909 116.686 268.422 110.801C268.917 109.538 269.431 108.737 269.965 108.398C270.538 108.008 271.143 107.812 271.781 107.812ZM279.008 100.684H279.262C280.303 100.684 281.208 101.191 281.977 102.207C282.367 102.832 282.562 103.431 282.562 104.004V104.395C282.562 105.111 282.276 105.827 281.703 106.543C280.896 107.389 280.004 107.812 279.027 107.812H278.773C278.031 107.812 277.309 107.52 276.605 106.934C275.889 106.204 275.531 105.43 275.531 104.609V104.238C275.531 103.444 275.857 102.656 276.508 101.875C277.276 101.081 278.109 100.684 279.008 100.684ZM279.34 108.594H279.555C280.648 108.594 281.54 109.167 282.23 110.312C282.426 110.651 282.523 111.25 282.523 112.109C282.745 120.599 282.862 125.599 282.875 127.109C282.875 127.943 282.439 128.724 281.566 129.453C280.993 129.818 280.44 130 279.906 130H279.75C278.747 130 277.901 129.512 277.211 128.535C276.885 128.132 276.723 127.344 276.723 126.172C276.501 116.888 276.391 111.979 276.391 111.445C276.391 110.651 276.794 109.896 277.602 109.18C278.201 108.789 278.78 108.594 279.34 108.594ZM295.141 107.773H295.629C299.73 107.773 302.81 109.206 304.867 112.07C305.961 113.737 306.508 115.638 306.508 117.773C306.508 119.492 305.707 120.605 304.105 121.113C304.105 121.191 300.284 121.335 292.641 121.543C292.94 122.181 293.526 122.793 294.398 123.379C294.919 123.691 295.525 123.848 296.215 123.848H296.566C298.272 123.848 299.633 123.418 300.648 122.559C301.182 122.272 301.677 122.129 302.133 122.129H302.328C303.461 122.129 304.366 122.734 305.043 123.945C305.199 124.388 305.277 124.772 305.277 125.098V125.293C305.277 127.025 303.702 128.405 300.551 129.434C299.249 129.811 297.888 130 296.469 130C293.63 130 291.267 129.082 289.379 127.246C288.48 126.361 287.849 125.599 287.484 124.961C286.299 123.125 285.577 121.1 285.316 118.887C285.277 118.47 285.258 118.138 285.258 117.891V117.109C285.258 114.909 285.967 112.884 287.387 111.035C289.223 108.861 291.807 107.773 295.141 107.773ZM291.859 115.43H291.879C292.491 115.43 295.01 115.352 299.438 115.195V115.137C298.63 114.316 297.276 113.906 295.375 113.906C293.526 113.906 292.374 114.355 291.918 115.254C291.892 115.254 291.872 115.312 291.859 115.43ZM318.07 108.359H318.93C320.076 108.359 321.319 108.77 322.66 109.59C323.09 109.837 323.656 110.339 324.359 111.094C325.154 111.966 325.85 113.132 326.449 114.59C327.725 117.767 328.363 121.745 328.363 126.523C328.363 127.995 327.829 129.017 326.762 129.59C326.332 129.863 325.863 130 325.355 130H325.18C324.047 130 323.142 129.395 322.465 128.184C322.296 127.728 322.211 127.357 322.211 127.07C322.211 126.81 322.217 126.576 322.23 126.367C322.23 123.034 321.807 120.046 320.961 117.402C320.258 115.462 319.424 114.492 318.461 114.492H318.441C317.895 114.492 317.458 114.811 317.133 115.449C316.833 115.84 316.508 116.595 316.156 117.715C315.479 120.15 315.141 122.988 315.141 126.23V126.895C315.141 128.027 314.542 128.932 313.344 129.609C312.901 129.766 312.517 129.844 312.191 129.844H311.996C310.902 129.844 310.01 129.271 309.32 128.125C309.099 127.76 308.988 126.979 308.988 125.781C308.715 117.005 308.578 112.188 308.578 111.328C308.578 110.417 309.053 109.609 310.004 108.906C310.512 108.581 311.033 108.418 311.566 108.418H311.723C312.621 108.418 313.428 108.841 314.145 109.688H314.203C315.453 108.802 316.742 108.359 318.07 108.359ZM334.301 104.121H334.457C335.603 104.121 336.514 104.733 337.191 105.957C337.439 106.504 337.562 107.643 337.562 109.375C337.576 109.375 337.595 109.616 337.621 110.098L337.836 110.117C340.31 110.117 341.742 110.195 342.133 110.352C342.927 110.677 343.507 111.178 343.871 111.855C344.092 112.311 344.203 112.754 344.203 113.184V113.34C344.203 114.395 343.656 115.273 342.562 115.977C342.055 116.211 341.645 116.328 341.332 116.328L337.66 116.25V118.262C337.66 119.017 337.654 119.948 337.641 121.055C337.641 122.214 337.842 123.073 338.246 123.633C338.467 123.789 338.767 123.867 339.145 123.867C340.069 123.867 341.365 123.477 343.031 122.695C343.357 122.617 343.624 122.578 343.832 122.578H344.086C345.219 122.578 346.124 123.177 346.801 124.375C346.957 124.818 347.035 125.202 347.035 125.527V125.703C347.035 126.745 346.501 127.624 345.434 128.34C343.194 129.447 341.085 130 339.105 130C336.527 130 334.516 128.991 333.07 126.973C332.029 125.358 331.508 123.503 331.508 121.406C331.521 119.74 331.527 118.366 331.527 117.285V116.113H331.234C330.284 116.113 329.464 115.69 328.773 114.844C328.383 114.284 328.188 113.711 328.188 113.125V112.93C328.188 111.797 328.793 110.892 330.004 110.215C330.434 110.059 330.811 109.98 331.137 109.98H331.469L331.312 107.07C331.312 106.237 331.729 105.449 332.562 104.707C333.161 104.316 333.741 104.121 334.301 104.121ZM368.305 107.773H368.793C372.895 107.773 375.974 109.206 378.031 112.07C379.125 113.737 379.672 115.638 379.672 117.773C379.672 119.492 378.871 120.605 377.27 121.113C377.27 121.191 373.448 121.335 365.805 121.543C366.104 122.181 366.69 122.793 367.562 123.379C368.083 123.691 368.689 123.848 369.379 123.848H369.73C371.436 123.848 372.797 123.418 373.812 122.559C374.346 122.272 374.841 122.129 375.297 122.129H375.492C376.625 122.129 377.53 122.734 378.207 123.945C378.363 124.388 378.441 124.772 378.441 125.098V125.293C378.441 127.025 376.866 128.405 373.715 129.434C372.413 129.811 371.052 130 369.633 130C366.794 130 364.431 129.082 362.543 127.246C361.645 126.361 361.013 125.599 360.648 124.961C359.464 123.125 358.741 121.1 358.48 118.887C358.441 118.47 358.422 118.138 358.422 117.891V117.109C358.422 114.909 359.132 112.884 360.551 111.035C362.387 108.861 364.971 107.773 368.305 107.773ZM365.023 115.43H365.043C365.655 115.43 368.174 115.352 372.602 115.195V115.137C371.794 114.316 370.44 113.906 368.539 113.906C366.69 113.906 365.538 114.355 365.082 115.254C365.056 115.254 365.036 115.312 365.023 115.43ZM386.605 104.121H386.762C387.908 104.121 388.819 104.733 389.496 105.957C389.743 106.504 389.867 107.643 389.867 109.375C389.88 109.375 389.9 109.616 389.926 110.098L390.141 110.117C392.615 110.117 394.047 110.195 394.438 110.352C395.232 110.677 395.811 111.178 396.176 111.855C396.397 112.311 396.508 112.754 396.508 113.184V113.34C396.508 114.395 395.961 115.273 394.867 115.977C394.359 116.211 393.949 116.328 393.637 116.328L389.965 116.25V118.262C389.965 119.017 389.958 119.948 389.945 121.055C389.945 122.214 390.147 123.073 390.551 123.633C390.772 123.789 391.072 123.867 391.449 123.867C392.374 123.867 393.669 123.477 395.336 122.695C395.661 122.617 395.928 122.578 396.137 122.578H396.391C397.523 122.578 398.428 123.177 399.105 124.375C399.262 124.818 399.34 125.202 399.34 125.527V125.703C399.34 126.745 398.806 127.624 397.738 128.34C395.499 129.447 393.389 130 391.41 130C388.832 130 386.82 128.991 385.375 126.973C384.333 125.358 383.812 123.503 383.812 121.406C383.826 119.74 383.832 118.366 383.832 117.285V116.113H383.539C382.589 116.113 381.768 115.69 381.078 114.844C380.688 114.284 380.492 113.711 380.492 113.125V112.93C380.492 111.797 381.098 110.892 382.309 110.215C382.738 110.059 383.116 109.98 383.441 109.98H383.773L383.617 107.07C383.617 106.237 384.034 105.449 384.867 104.707C385.466 104.316 386.046 104.121 386.605 104.121ZM418.617 107.891L419.008 107.871C419.203 107.858 419.398 107.852 419.594 107.852C421.638 107.852 424.047 108.288 426.82 109.16C428.07 109.772 428.728 110.69 428.793 111.914V112.07C428.793 113.112 428.272 113.984 427.23 114.688C426.736 114.922 426.267 115.052 425.824 115.078H425.785C425.395 115.078 424.47 114.863 423.012 114.434C421.697 114.134 420.531 113.984 419.516 113.984C419.359 113.984 419.21 113.991 419.066 114.004C418.077 114.056 417.445 114.245 417.172 114.57C417.797 114.987 419.646 115.632 422.719 116.504C426.846 117.806 428.975 119.837 429.105 122.598V122.949C429.105 124.147 428.689 125.384 427.855 126.66C426.306 128.717 423.917 129.818 420.688 129.961L420.316 129.98C420.056 129.993 419.789 130 419.516 130C417.523 130 415.258 129.661 412.719 128.984C412.107 128.711 411.612 128.281 411.234 127.695C410.961 127.201 410.818 126.725 410.805 126.27V126.113C410.805 125.163 411.241 124.336 412.113 123.633C412.634 123.294 413.181 123.112 413.754 123.086H413.793C414.066 123.086 414.848 123.223 416.137 123.496C417.387 123.743 418.546 123.867 419.613 123.867C419.848 123.867 420.076 123.861 420.297 123.848C421.534 123.796 422.361 123.574 422.777 123.184V123.145C422.27 122.806 420.635 122.24 417.875 121.445C413.37 120.117 411.052 118.008 410.922 115.117V114.746C410.922 113.314 411.449 111.934 412.504 110.605C413.975 108.913 416.013 108.008 418.617 107.891ZM441.859 107.344C444.034 107.344 446.332 107.806 448.754 108.73C449.939 109.395 450.531 110.345 450.531 111.582L450.512 111.875C451.033 112.422 451.293 113.32 451.293 114.57C451.319 114.57 451.332 114.993 451.332 115.84C451.332 116.673 451.326 117.52 451.312 118.379C451.417 123.288 451.469 126.068 451.469 126.719C451.469 127.617 451.046 128.418 450.199 129.121C449.626 129.512 449.021 129.707 448.383 129.707C447.51 129.707 446.736 129.349 446.059 128.633L446.02 128.613C444.158 129.538 442.38 130 440.688 130H440.16C438.129 130 436.247 129.349 434.516 128.047C432.172 126.068 431 123.268 431 119.648C431 115.495 432.172 112.272 434.516 109.98C436.469 108.223 438.917 107.344 441.859 107.344ZM437.133 119.59C437.133 121.66 437.68 122.975 438.773 123.535C439.216 123.757 439.757 123.867 440.395 123.867H440.434C441.736 123.867 442.875 123.483 443.852 122.715C444.06 122.493 444.275 122.103 444.496 121.543C444.939 120.163 445.16 118.913 445.16 117.793C445.16 117.259 445.147 115.983 445.121 113.965C443.923 113.639 442.823 113.477 441.82 113.477C439.802 113.477 438.474 114.212 437.836 115.684C437.367 116.842 437.133 118.145 437.133 119.59ZM457.328 108.418C458.396 108.418 459.275 108.939 459.965 109.98C460.238 110.501 460.375 110.983 460.375 111.426C460.297 112.624 460.258 113.646 460.258 114.492C460.258 118.568 460.824 121.465 461.957 123.184C462.27 123.613 462.66 123.828 463.129 123.828C463.858 123.828 464.522 123.242 465.121 122.07C465.421 121.562 465.759 120.703 466.137 119.492C466.501 118.49 466.853 116.758 467.191 114.297C467.309 113.255 467.4 112.214 467.465 111.172C467.621 110.43 467.888 109.876 468.266 109.512C468.917 108.861 469.665 108.535 470.512 108.535C471.514 108.535 472.367 109.017 473.07 109.98C473.409 110.384 473.578 111.257 473.578 112.598C473.865 121.478 474.008 126.27 474.008 126.973C474.008 128.04 473.493 128.913 472.465 129.59C471.97 129.863 471.456 130 470.922 130C469.737 130 468.799 129.375 468.109 128.125H468.07C466.612 129.336 464.958 129.941 463.109 129.941C460.518 129.941 458.402 128.763 456.762 126.406C455.004 123.75 454.125 119.779 454.125 114.492C454.125 112.148 454.249 110.742 454.496 110.273C455.147 109.036 456.091 108.418 457.328 108.418ZM493.227 107.812C494.333 107.812 495.232 108.372 495.922 109.492C496.143 109.987 496.254 110.456 496.254 110.898C496.254 111.445 495.974 112.285 495.414 113.418C491.755 121.921 489.581 126.94 488.891 128.477C488.201 129.492 487.315 130 486.234 130C484.815 130 483.747 129.121 483.031 127.363C477.992 117.702 475.401 112.689 475.258 112.324C475.154 111.908 475.102 111.576 475.102 111.328C475.102 110.299 475.577 109.44 476.527 108.75C477.061 108.424 477.615 108.262 478.188 108.262C479.255 108.262 480.134 108.783 480.824 109.824C484.21 116.361 485.935 119.668 486 119.746C486.065 119.668 487.354 116.686 489.867 110.801C490.362 109.538 490.876 108.737 491.41 108.398C491.983 108.008 492.589 107.812 493.227 107.812ZM506.781 107.773H507.27C511.371 107.773 514.451 109.206 516.508 112.07C517.602 113.737 518.148 115.638 518.148 117.773C518.148 119.492 517.348 120.605 515.746 121.113C515.746 121.191 511.924 121.335 504.281 121.543C504.581 122.181 505.167 122.793 506.039 123.379C506.56 123.691 507.165 123.848 507.855 123.848H508.207C509.913 123.848 511.273 123.418 512.289 122.559C512.823 122.272 513.318 122.129 513.773 122.129H513.969C515.102 122.129 516.007 122.734 516.684 123.945C516.84 124.388 516.918 124.772 516.918 125.098V125.293C516.918 127.025 515.342 128.405 512.191 129.434C510.889 129.811 509.529 130 508.109 130C505.271 130 502.908 129.082 501.02 127.246C500.121 126.361 499.49 125.599 499.125 124.961C497.94 123.125 497.217 121.1 496.957 118.887C496.918 118.47 496.898 118.138 496.898 117.891V117.109C496.898 114.909 497.608 112.884 499.027 111.035C500.863 108.861 503.448 107.773 506.781 107.773ZM503.5 115.43H503.52C504.132 115.43 506.651 115.352 511.078 115.195V115.137C510.271 114.316 508.917 113.906 507.016 113.906C505.167 113.906 504.014 114.355 503.559 115.254C503.533 115.254 503.513 115.312 503.5 115.43ZM536.137 107.852C536.736 107.852 537.374 108.145 538.051 108.73C538.663 109.395 538.969 110.104 538.969 110.859V110.977C538.969 111.862 538.52 112.734 537.621 113.594L528.734 123.652V123.691C532.641 123.6 534.757 123.555 535.082 123.555C535.733 123.555 536.397 123.861 537.074 124.473C537.66 125.111 537.953 125.794 537.953 126.523V126.699C537.953 127.676 537.471 128.516 536.508 129.219C536.091 129.544 535.303 129.707 534.145 129.707C526.241 129.902 522.042 130 521.547 130C520.766 130 520.03 129.616 519.34 128.848C518.884 128.236 518.656 127.617 518.656 126.992V126.875C518.656 126.003 519.105 125.13 520.004 124.258L529.008 114.062C529.008 114.036 529.001 114.023 528.988 114.023C528.077 114.023 526.091 114.036 523.031 114.062C522.445 114.062 521.827 113.789 521.176 113.242C520.525 112.604 520.199 111.888 520.199 111.094V110.898C520.199 109.857 520.733 108.991 521.801 108.301C522.309 108.053 522.725 107.93 523.051 107.93L536.137 107.852ZM553.578 108.418C554.646 108.418 555.525 108.939 556.215 109.98C556.488 110.501 556.625 110.983 556.625 111.426C556.547 112.624 556.508 113.646 556.508 114.492C556.508 118.568 557.074 121.465 558.207 123.184C558.52 123.613 558.91 123.828 559.379 123.828C560.108 123.828 560.772 123.242 561.371 122.07C561.671 121.562 562.009 120.703 562.387 119.492C562.751 118.49 563.103 116.758 563.441 114.297C563.559 113.255 563.65 112.214 563.715 111.172C563.871 110.43 564.138 109.876 564.516 109.512C565.167 108.861 565.915 108.535 566.762 108.535C567.764 108.535 568.617 109.017 569.32 109.98C569.659 110.384 569.828 111.257 569.828 112.598C570.115 121.478 570.258 126.27 570.258 126.973C570.258 128.04 569.743 128.913 568.715 129.59C568.22 129.863 567.706 130 567.172 130C565.987 130 565.049 129.375 564.359 128.125H564.32C562.862 129.336 561.208 129.941 559.359 129.941C556.768 129.941 554.652 128.763 553.012 126.406C551.254 123.75 550.375 119.779 550.375 114.492C550.375 112.148 550.499 110.742 550.746 110.273C551.397 109.036 552.341 108.418 553.578 108.418ZM583.109 108.359H583.969C585.115 108.359 586.358 108.77 587.699 109.59C588.129 109.837 588.695 110.339 589.398 111.094C590.193 111.966 590.889 113.132 591.488 114.59C592.764 117.767 593.402 121.745 593.402 126.523C593.402 127.995 592.868 129.017 591.801 129.59C591.371 129.863 590.902 130 590.395 130H590.219C589.086 130 588.181 129.395 587.504 128.184C587.335 127.728 587.25 127.357 587.25 127.07C587.25 126.81 587.257 126.576 587.27 126.367C587.27 123.034 586.846 120.046 586 117.402C585.297 115.462 584.464 114.492 583.5 114.492H583.48C582.934 114.492 582.497 114.811 582.172 115.449C581.872 115.84 581.547 116.595 581.195 117.715C580.518 120.15 580.18 122.988 580.18 126.23V126.895C580.18 128.027 579.581 128.932 578.383 129.609C577.94 129.766 577.556 129.844 577.23 129.844H577.035C575.941 129.844 575.049 129.271 574.359 128.125C574.138 127.76 574.027 126.979 574.027 125.781C573.754 117.005 573.617 112.188 573.617 111.328C573.617 110.417 574.092 109.609 575.043 108.906C575.551 108.581 576.072 108.418 576.605 108.418H576.762C577.66 108.418 578.467 108.841 579.184 109.688H579.242C580.492 108.802 581.781 108.359 583.109 108.359ZM604.75 107.773H605.238C609.34 107.773 612.419 109.206 614.477 112.07C615.57 113.737 616.117 115.638 616.117 117.773C616.117 119.492 615.316 120.605 613.715 121.113C613.715 121.191 609.893 121.335 602.25 121.543C602.549 122.181 603.135 122.793 604.008 123.379C604.529 123.691 605.134 123.848 605.824 123.848H606.176C607.882 123.848 609.242 123.418 610.258 122.559C610.792 122.272 611.286 122.129 611.742 122.129H611.938C613.07 122.129 613.975 122.734 614.652 123.945C614.809 124.388 614.887 124.772 614.887 125.098V125.293C614.887 127.025 613.311 128.405 610.16 129.434C608.858 129.811 607.497 130 606.078 130C603.24 130 600.876 129.082 598.988 127.246C598.09 126.361 597.458 125.599 597.094 124.961C595.909 123.125 595.186 121.1 594.926 118.887C594.887 118.47 594.867 118.138 594.867 117.891V117.109C594.867 114.909 595.577 112.884 596.996 111.035C598.832 108.861 601.417 107.773 604.75 107.773ZM601.469 115.43H601.488C602.1 115.43 604.62 115.352 609.047 115.195V115.137C608.24 114.316 606.885 113.906 604.984 113.906C603.135 113.906 601.983 114.355 601.527 115.254C601.501 115.254 601.482 115.312 601.469 115.43ZM645.609 107.812C646.716 107.812 647.615 108.372 648.305 109.492C648.526 109.987 648.637 110.456 648.637 110.898C648.637 111.445 648.357 112.285 647.797 113.418C644.138 121.921 641.964 126.94 641.273 128.477C640.583 129.492 639.698 130 638.617 130C637.198 130 636.13 129.121 635.414 127.363C630.375 117.702 627.784 112.689 627.641 112.324C627.536 111.908 627.484 111.576 627.484 111.328C627.484 110.299 627.96 109.44 628.91 108.75C629.444 108.424 629.997 108.262 630.57 108.262C631.638 108.262 632.517 108.783 633.207 109.824C636.592 116.361 638.318 119.668 638.383 119.746C638.448 119.668 639.737 116.686 642.25 110.801C642.745 109.538 643.259 108.737 643.793 108.398C644.366 108.008 644.971 107.812 645.609 107.812ZM652.836 100.684H653.09C654.132 100.684 655.036 101.191 655.805 102.207C656.195 102.832 656.391 103.431 656.391 104.004V104.395C656.391 105.111 656.104 105.827 655.531 106.543C654.724 107.389 653.832 107.812 652.855 107.812H652.602C651.859 107.812 651.137 107.52 650.434 106.934C649.717 106.204 649.359 105.43 649.359 104.609V104.238C649.359 103.444 649.685 102.656 650.336 101.875C651.104 101.081 651.938 100.684 652.836 100.684ZM653.168 108.594H653.383C654.477 108.594 655.368 109.167 656.059 110.312C656.254 110.651 656.352 111.25 656.352 112.109C656.573 120.599 656.69 125.599 656.703 127.109C656.703 127.943 656.267 128.724 655.395 129.453C654.822 129.818 654.268 130 653.734 130H653.578C652.576 130 651.729 129.512 651.039 128.535C650.714 128.132 650.551 127.344 650.551 126.172C650.329 116.888 650.219 111.979 650.219 111.445C650.219 110.651 650.622 109.896 651.43 109.18C652.029 108.789 652.608 108.594 653.168 108.594ZM668.969 107.773H669.457C673.559 107.773 676.638 109.206 678.695 112.07C679.789 113.737 680.336 115.638 680.336 117.773C680.336 119.492 679.535 120.605 677.934 121.113C677.934 121.191 674.112 121.335 666.469 121.543C666.768 122.181 667.354 122.793 668.227 123.379C668.747 123.691 669.353 123.848 670.043 123.848H670.395C672.1 123.848 673.461 123.418 674.477 122.559C675.01 122.272 675.505 122.129 675.961 122.129H676.156C677.289 122.129 678.194 122.734 678.871 123.945C679.027 124.388 679.105 124.772 679.105 125.098V125.293C679.105 127.025 677.53 128.405 674.379 129.434C673.077 129.811 671.716 130 670.297 130C667.458 130 665.095 129.082 663.207 127.246C662.309 126.361 661.677 125.599 661.312 124.961C660.128 123.125 659.405 121.1 659.145 118.887C659.105 118.47 659.086 118.138 659.086 117.891V117.109C659.086 114.909 659.796 112.884 661.215 111.035C663.051 108.861 665.635 107.773 668.969 107.773ZM665.688 115.43H665.707C666.319 115.43 668.839 115.352 673.266 115.195V115.137C672.458 114.316 671.104 113.906 669.203 113.906C667.354 113.906 666.202 114.355 665.746 115.254C665.72 115.254 665.701 115.312 665.688 115.43Z" fill="#272626"/>
<rect x="191" y="156.831" width="225" height="47" rx="10" fill="#E2168C"/>
<path d="M245.813 174.464C246.75 174.464 247.612 174.829 248.399 175.558C249.071 176.219 249.407 176.782 249.407 177.245C249.407 177.657 249.217 177.998 248.836 178.269C248.623 178.399 248.401 178.464 248.172 178.464C247.693 178.464 247.305 178.201 247.008 177.675C246.638 177.17 246.232 176.917 245.79 176.917C245.467 176.917 245.102 177.037 244.696 177.276C244.487 177.443 244.329 177.618 244.219 177.8C243.855 178.435 243.672 179.201 243.672 180.097C243.672 181.138 243.917 181.998 244.407 182.675C244.584 182.941 244.909 183.136 245.383 183.261C245.685 183.339 245.946 183.378 246.165 183.378C246.597 183.378 246.891 183.232 247.047 182.941C247.313 182.633 247.636 182.48 248.016 182.48C248.428 182.48 248.769 182.67 249.04 183.05C249.17 183.263 249.235 183.485 249.235 183.714C249.235 184.219 248.878 184.732 248.165 185.253C247.571 185.638 246.907 185.831 246.172 185.831C245.334 185.831 244.487 185.62 243.633 185.198C242.763 184.704 242.099 183.849 241.641 182.636C241.36 181.808 241.219 180.985 241.219 180.167V180.019C241.219 178.529 241.612 177.235 242.399 176.136C242.836 175.625 243.175 175.313 243.415 175.198C244.206 174.709 245.006 174.464 245.813 174.464ZM253.847 177.159H254.136C254.959 177.159 255.725 177.464 256.433 178.073C256.824 178.469 257.11 178.852 257.293 179.222C257.652 179.951 257.832 180.732 257.832 181.566C257.832 182.743 257.488 183.753 256.8 184.597C256.405 185.013 256.131 185.248 255.98 185.3C255.423 185.654 254.829 185.831 254.199 185.831H254.019C253.181 185.831 252.381 185.573 251.621 185.058C251.511 185.011 251.259 184.776 250.863 184.355C250.207 183.542 249.879 182.589 249.879 181.495C249.879 180.329 250.264 179.305 251.035 178.425C251.436 178.034 251.725 177.8 251.902 177.722C252.553 177.347 253.201 177.159 253.847 177.159ZM252.332 181.503C252.332 182.107 252.537 182.599 252.949 182.98C253.287 183.245 253.673 183.378 254.105 183.378C254.668 183.378 255.056 183.029 255.269 182.331C255.337 182.076 255.371 181.836 255.371 181.612V181.503C255.371 180.831 255.162 180.284 254.746 179.862C254.548 179.696 254.3 179.612 254.004 179.612C253.274 179.612 252.761 179.982 252.465 180.722C252.376 181.024 252.332 181.284 252.332 181.503ZM262.757 177.175H263.1C263.559 177.175 264.056 177.339 264.593 177.667C264.765 177.766 264.991 177.967 265.272 178.269C265.59 178.618 265.869 179.084 266.108 179.667C266.619 180.938 266.874 182.529 266.874 184.441C266.874 185.029 266.66 185.438 266.233 185.667C266.061 185.776 265.874 185.831 265.671 185.831H265.6C265.147 185.831 264.785 185.589 264.515 185.105C264.447 184.922 264.413 184.774 264.413 184.659C264.413 184.555 264.416 184.461 264.421 184.378C264.421 183.045 264.251 181.849 263.913 180.792C263.632 180.016 263.298 179.628 262.913 179.628H262.905C262.686 179.628 262.512 179.756 262.382 180.011C262.262 180.167 262.132 180.469 261.991 180.917C261.72 181.891 261.585 183.026 261.585 184.323V184.589C261.585 185.042 261.345 185.404 260.866 185.675C260.689 185.737 260.535 185.769 260.405 185.769H260.327C259.89 185.769 259.533 185.54 259.257 185.081C259.168 184.935 259.124 184.623 259.124 184.144C259.015 180.633 258.96 178.706 258.96 178.362C258.96 177.998 259.15 177.675 259.53 177.394C259.733 177.263 259.942 177.198 260.155 177.198H260.218C260.577 177.198 260.9 177.368 261.186 177.706H261.21C261.71 177.352 262.225 177.175 262.757 177.175ZM269.549 175.48H269.611C270.07 175.48 270.434 175.724 270.705 176.214C270.804 176.433 270.854 176.888 270.854 177.581C270.859 177.581 270.867 177.678 270.877 177.87L270.963 177.878C271.953 177.878 272.525 177.909 272.682 177.972C272.999 178.102 273.231 178.303 273.377 178.573C273.466 178.756 273.51 178.933 273.51 179.105V179.167C273.51 179.589 273.291 179.941 272.854 180.222C272.65 180.316 272.486 180.362 272.361 180.362L270.893 180.331V181.136C270.893 181.438 270.89 181.81 270.885 182.253C270.885 182.717 270.966 183.06 271.127 183.284C271.216 183.347 271.335 183.378 271.486 183.378C271.856 183.378 272.374 183.222 273.041 182.909C273.171 182.878 273.278 182.862 273.361 182.862H273.463C273.916 182.862 274.278 183.102 274.549 183.581C274.611 183.758 274.643 183.912 274.643 184.042V184.112C274.643 184.529 274.429 184.881 274.002 185.167C273.106 185.61 272.262 185.831 271.471 185.831C270.44 185.831 269.635 185.428 269.057 184.62C268.64 183.974 268.432 183.232 268.432 182.394C268.437 181.727 268.44 181.178 268.44 180.745V180.276H268.322C267.942 180.276 267.614 180.107 267.338 179.769C267.182 179.545 267.104 179.316 267.104 179.081V179.003C267.104 178.55 267.346 178.188 267.83 177.917C268.002 177.855 268.153 177.823 268.283 177.823H268.416L268.354 176.659C268.354 176.326 268.52 176.011 268.854 175.714C269.093 175.558 269.325 175.48 269.549 175.48ZM279.575 176.769C280.445 176.769 281.365 176.954 282.333 177.323C282.807 177.589 283.044 177.969 283.044 178.464L283.036 178.581C283.245 178.8 283.349 179.159 283.349 179.659C283.359 179.659 283.365 179.829 283.365 180.167C283.365 180.5 283.362 180.839 283.357 181.183C283.398 183.146 283.419 184.258 283.419 184.519C283.419 184.878 283.25 185.198 282.911 185.48C282.682 185.636 282.44 185.714 282.185 185.714C281.836 185.714 281.526 185.571 281.255 185.284L281.24 185.276C280.495 185.646 279.784 185.831 279.107 185.831H278.896C278.083 185.831 277.331 185.571 276.638 185.05C275.7 184.258 275.232 183.138 275.232 181.691C275.232 180.029 275.7 178.74 276.638 177.823C277.419 177.12 278.398 176.769 279.575 176.769ZM277.685 181.667C277.685 182.495 277.904 183.021 278.341 183.245C278.518 183.334 278.734 183.378 278.99 183.378H279.005C279.526 183.378 279.982 183.224 280.372 182.917C280.456 182.829 280.542 182.672 280.63 182.448C280.807 181.896 280.896 181.396 280.896 180.948C280.896 180.735 280.891 180.224 280.88 179.417C280.401 179.287 279.961 179.222 279.56 179.222C278.753 179.222 278.221 179.516 277.966 180.105C277.779 180.568 277.685 181.089 277.685 181.667ZM289.407 176.761H289.493C290.508 176.761 291.524 177.099 292.54 177.776C292.92 178.058 293.11 178.404 293.11 178.816C293.11 179.263 292.883 179.625 292.43 179.901C292.232 179.985 292.045 180.026 291.868 180.026C291.581 180.026 291.292 179.915 291 179.691C290.469 179.368 289.951 179.206 289.446 179.206C288.805 179.206 288.232 179.472 287.727 180.003C287.388 180.399 287.219 180.842 287.219 181.331V181.378C287.219 182.06 287.511 182.607 288.094 183.019C288.542 183.258 289.006 183.378 289.485 183.378C290 183.378 290.493 183.211 290.961 182.878C291.165 182.763 291.375 182.706 291.594 182.706C292.016 182.706 292.365 182.912 292.641 183.323C292.75 183.521 292.805 183.724 292.805 183.933C292.805 184.506 292.417 184.967 291.641 185.316C290.954 185.659 290.248 185.831 289.524 185.831H289.399C288.503 185.831 287.612 185.571 286.727 185.05C286.524 184.925 286.232 184.67 285.852 184.284C285.607 183.982 285.415 183.704 285.274 183.448C284.935 182.745 284.766 182.097 284.766 181.503V181.198C284.766 180.547 284.961 179.857 285.352 179.128C285.493 178.852 285.761 178.513 286.157 178.112C286.573 177.727 286.946 177.459 287.274 177.308C287.967 176.943 288.678 176.761 289.407 176.761ZM296.433 175.48H296.496C296.954 175.48 297.319 175.724 297.59 176.214C297.688 176.433 297.738 176.888 297.738 177.581C297.743 177.581 297.751 177.678 297.761 177.87L297.847 177.878C298.837 177.878 299.41 177.909 299.566 177.972C299.884 178.102 300.116 178.303 300.261 178.573C300.35 178.756 300.394 178.933 300.394 179.105V179.167C300.394 179.589 300.175 179.941 299.738 180.222C299.535 180.316 299.371 180.362 299.246 180.362L297.777 180.331V181.136C297.777 181.438 297.774 181.81 297.769 182.253C297.769 182.717 297.85 183.06 298.011 183.284C298.1 183.347 298.22 183.378 298.371 183.378C298.741 183.378 299.259 183.222 299.925 182.909C300.056 182.878 300.162 182.862 300.246 182.862H300.347C300.8 182.862 301.162 183.102 301.433 183.581C301.496 183.758 301.527 183.912 301.527 184.042V184.112C301.527 184.529 301.313 184.881 300.886 185.167C299.991 185.61 299.147 185.831 298.355 185.831C297.324 185.831 296.519 185.428 295.941 184.62C295.524 183.974 295.316 183.232 295.316 182.394C295.321 181.727 295.324 181.178 295.324 180.745V180.276H295.207C294.826 180.276 294.498 180.107 294.222 179.769C294.066 179.545 293.988 179.316 293.988 179.081V179.003C293.988 178.55 294.23 178.188 294.715 177.917C294.886 177.855 295.037 177.823 295.168 177.823H295.3L295.238 176.659C295.238 176.326 295.405 176.011 295.738 175.714C295.978 175.558 296.209 175.48 296.433 175.48ZM305.647 176.941H305.843C307.483 176.941 308.715 177.513 309.538 178.659C309.975 179.326 310.194 180.086 310.194 180.941C310.194 181.628 309.874 182.073 309.233 182.276C309.233 182.308 307.705 182.365 304.647 182.448C304.767 182.704 305.001 182.948 305.35 183.183C305.559 183.308 305.801 183.37 306.077 183.37H306.218C306.9 183.37 307.444 183.198 307.85 182.855C308.064 182.74 308.262 182.683 308.444 182.683H308.522C308.975 182.683 309.337 182.925 309.608 183.409C309.671 183.586 309.702 183.74 309.702 183.87V183.948C309.702 184.641 309.072 185.193 307.811 185.605C307.291 185.756 306.746 185.831 306.179 185.831C305.043 185.831 304.098 185.464 303.343 184.73C302.983 184.375 302.731 184.071 302.585 183.816C302.111 183.081 301.822 182.271 301.718 181.386C301.702 181.219 301.694 181.086 301.694 180.987V180.675C301.694 179.795 301.978 178.985 302.546 178.245C303.28 177.375 304.314 176.941 305.647 176.941ZM304.335 180.003H304.343C304.587 180.003 305.595 179.972 307.366 179.909V179.886C307.043 179.558 306.501 179.394 305.741 179.394C305.001 179.394 304.541 179.573 304.358 179.933C304.348 179.933 304.34 179.956 304.335 180.003ZM317.689 176.972C317.929 176.972 318.184 177.089 318.455 177.323C318.7 177.589 318.822 177.873 318.822 178.175V178.222C318.822 178.576 318.643 178.925 318.283 179.269L314.729 183.292V183.308C316.291 183.271 317.137 183.253 317.268 183.253C317.528 183.253 317.794 183.375 318.064 183.62C318.299 183.875 318.416 184.149 318.416 184.441V184.511C318.416 184.901 318.223 185.237 317.838 185.519C317.671 185.649 317.356 185.714 316.893 185.714C313.731 185.792 312.051 185.831 311.854 185.831C311.541 185.831 311.247 185.678 310.971 185.37C310.788 185.125 310.697 184.878 310.697 184.628V184.581C310.697 184.232 310.877 183.883 311.236 183.534L314.838 179.456C314.838 179.446 314.835 179.441 314.83 179.441C314.466 179.441 313.671 179.446 312.447 179.456C312.213 179.456 311.966 179.347 311.705 179.128C311.445 178.873 311.314 178.586 311.314 178.269V178.191C311.314 177.774 311.528 177.428 311.955 177.151C312.158 177.053 312.325 177.003 312.455 177.003L317.689 176.972ZM320.911 178.925H327.443C327.896 178.925 328.258 179.167 328.529 179.651C328.591 179.823 328.622 179.974 328.622 180.105V180.198C328.622 180.631 328.391 180.985 327.927 181.261C327.745 181.339 327.581 181.378 327.435 181.378H320.919C320.492 181.378 320.138 181.159 319.857 180.722C319.763 180.529 319.716 180.349 319.716 180.183V180.12C319.716 179.698 319.935 179.347 320.372 179.066C320.565 178.972 320.745 178.925 320.911 178.925ZM333.313 177.175H333.657C334.115 177.175 334.612 177.339 335.149 177.667C335.321 177.766 335.547 177.967 335.829 178.269C336.146 178.618 336.425 179.084 336.665 179.667C337.175 180.938 337.43 182.529 337.43 184.441C337.43 185.029 337.217 185.438 336.79 185.667C336.618 185.776 336.43 185.831 336.227 185.831H336.157C335.704 185.831 335.342 185.589 335.071 185.105C335.003 184.922 334.969 184.774 334.969 184.659C334.969 184.555 334.972 184.461 334.977 184.378C334.977 183.045 334.808 181.849 334.469 180.792C334.188 180.016 333.855 179.628 333.469 179.628H333.461C333.243 179.628 333.068 179.756 332.938 180.011C332.818 180.167 332.688 180.469 332.547 180.917C332.276 181.891 332.141 183.026 332.141 184.323V184.589C332.141 185.042 331.901 185.404 331.422 185.675C331.245 185.737 331.092 185.769 330.961 185.769H330.883C330.446 185.769 330.089 185.54 329.813 185.081C329.724 184.935 329.68 184.623 329.68 184.144C329.571 180.633 329.516 178.706 329.516 178.362C329.516 177.998 329.706 177.675 330.086 177.394C330.29 177.263 330.498 177.198 330.711 177.198H330.774C331.133 177.198 331.456 177.368 331.743 177.706H331.766C332.266 177.352 332.782 177.175 333.313 177.175ZM342.488 177.159H342.777C343.6 177.159 344.366 177.464 345.074 178.073C345.465 178.469 345.751 178.852 345.933 179.222C346.293 179.951 346.472 180.732 346.472 181.566C346.472 182.743 346.129 183.753 345.441 184.597C345.045 185.013 344.772 185.248 344.621 185.3C344.063 185.654 343.47 185.831 342.84 185.831H342.66C341.821 185.831 341.022 185.573 340.261 185.058C340.152 185.011 339.899 184.776 339.504 184.355C338.847 183.542 338.519 182.589 338.519 181.495C338.519 180.329 338.905 179.305 339.675 178.425C340.076 178.034 340.366 177.8 340.543 177.722C341.194 177.347 341.842 177.159 342.488 177.159ZM340.972 181.503C340.972 182.107 341.178 182.599 341.59 182.98C341.928 183.245 342.313 183.378 342.746 183.378C343.308 183.378 343.696 183.029 343.91 182.331C343.978 182.076 344.011 181.836 344.011 181.612V181.503C344.011 180.831 343.803 180.284 343.386 179.862C343.188 179.696 342.941 179.612 342.644 179.612C341.915 179.612 341.402 179.982 341.105 180.722C341.017 181.024 340.972 181.284 340.972 181.503ZM348.897 177.198C349.324 177.198 349.676 177.407 349.952 177.823C350.061 178.032 350.116 178.224 350.116 178.401C350.085 178.881 350.069 179.29 350.069 179.628C350.069 181.258 350.296 182.417 350.749 183.105C350.874 183.276 351.03 183.362 351.218 183.362C351.509 183.362 351.775 183.128 352.014 182.659C352.134 182.456 352.27 182.112 352.421 181.628C352.567 181.227 352.707 180.534 352.843 179.55C352.889 179.133 352.926 178.717 352.952 178.3C353.014 178.003 353.121 177.782 353.272 177.636C353.533 177.375 353.832 177.245 354.171 177.245C354.572 177.245 354.913 177.438 355.194 177.823C355.33 177.985 355.397 178.334 355.397 178.87C355.512 182.422 355.569 184.339 355.569 184.62C355.569 185.047 355.363 185.396 354.952 185.667C354.754 185.776 354.548 185.831 354.335 185.831C353.861 185.831 353.486 185.581 353.21 185.081H353.194C352.611 185.566 351.949 185.808 351.21 185.808C350.173 185.808 349.327 185.336 348.671 184.394C347.968 183.331 347.616 181.743 347.616 179.628C347.616 178.691 347.666 178.128 347.764 177.941C348.025 177.446 348.403 177.198 348.897 177.198ZM359.869 176.987L360.025 176.98C360.104 176.974 360.182 176.972 360.26 176.972C361.078 176.972 362.041 177.146 363.15 177.495C363.65 177.74 363.913 178.107 363.939 178.597V178.659C363.939 179.076 363.731 179.425 363.314 179.706C363.117 179.8 362.929 179.852 362.752 179.862H362.736C362.58 179.862 362.21 179.776 361.627 179.605C361.101 179.485 360.635 179.425 360.229 179.425C360.166 179.425 360.106 179.428 360.049 179.433C359.653 179.454 359.4 179.529 359.291 179.659C359.541 179.826 360.281 180.084 361.51 180.433C363.161 180.954 364.012 181.766 364.064 182.87V183.011C364.064 183.49 363.898 183.985 363.564 184.495C362.945 185.318 361.989 185.758 360.697 185.816L360.549 185.823C360.445 185.829 360.338 185.831 360.229 185.831C359.432 185.831 358.525 185.696 357.51 185.425C357.265 185.316 357.067 185.144 356.916 184.909C356.807 184.711 356.749 184.521 356.744 184.339V184.276C356.744 183.896 356.919 183.566 357.268 183.284C357.476 183.149 357.695 183.076 357.924 183.066H357.939C358.049 183.066 358.361 183.12 358.877 183.23C359.377 183.329 359.841 183.378 360.268 183.378C360.361 183.378 360.453 183.375 360.541 183.37C361.036 183.349 361.367 183.261 361.533 183.105V183.089C361.33 182.954 360.676 182.727 359.572 182.409C357.77 181.878 356.843 181.034 356.791 179.878V179.73C356.791 179.157 357.002 178.605 357.424 178.073C358.012 177.396 358.828 177.034 359.869 176.987Z" fill="white"/>
</g>
<defs>
<clipPath id="clip0_268_3431">
<rect width="1440" height="2496" fill="white" transform="translate(0 -1356)"/>
</clipPath>
</defs>
</svg>
