<svg width="763" height="147" viewBox="0 0 763 147" fill="none" xmlns="http://www.w3.org/2000/svg">
<rect width="429" height="8" rx="4" transform="matrix(-1 0 0 1 429 138)" fill="#272626"/>
<rect width="149" height="8" rx="4" transform="matrix(-1 0 0 1 763 138)" fill="#272626"/>
<path d="M652.237 111.616C650.762 111.274 650.212 110.606 649.82 109.283C644.828 92.5511 639.797 75.8307 634.765 59.1047C633.195 53.8884 629.925 50.2145 624.843 48.1841C624.478 48.0382 624.142 47.8139 623.783 47.6175C625.129 40.5671 623.738 34.2906 618.998 28.9397C614.281 23.6055 608.145 21.6255 601.224 21.9116C600.803 11.7425 596.411 4.31624 586.781 1.22009C576.129 -2.207 567.822 1.80342 562.056 10.5198C558.82 10.1047 555.847 9.31945 552.914 9.45406C549.918 9.58868 546.962 10.6263 543.776 11.3162C543.737 11.2602 543.507 10.918 543.3 10.5703C538.336 2.34749 529.277 -1.56197 520.337 0.664796C511.127 2.95326 504.929 10.6544 504.547 20.4421C504.497 21.7321 503.964 22.2201 502.921 22.7361C497.048 25.6191 493.066 30.2578 491.843 36.6576C491.181 40.124 491.725 43.8203 491.725 47.4773C483.272 51.527 481.915 53.1031 479.178 62.4701C474.612 78.0911 470.069 93.7177 465.559 109.356C465.189 110.634 464.651 111.178 463.248 111.481C456.748 112.872 452.524 116.872 450.55 123.238C450.227 124.261 450 125.312 450 126.385V128.277C450 130.952 450.397 133.635 451.487 136.077C455.098 144.172 459.458 146.313 470.007 146.313C494.631 146.313 519.254 146.313 543.877 146.313C546.211 146.313 548.095 144.423 548.095 142.095C548.095 139.767 546.211 137.877 543.877 137.877C518.637 137.855 493.397 137.787 468.156 137.973C460.337 138.029 457.241 132.711 458.694 125.767C459.384 122.475 462.11 119.979 465.458 119.67C466.378 119.586 467.309 119.586 468.235 119.586C527.757 119.586 587.28 119.586 646.797 119.57C649.607 119.57 652.305 119.771 654.296 122.026C657.229 125.347 657.19 129.256 655.793 133.07C654.492 136.621 651.486 137.911 647.761 137.905C620.333 137.877 592.906 137.883 565.478 137.888C563.15 137.888 561.26 139.779 561.26 142.106C561.26 144.434 563.15 146.324 565.478 146.324C592.502 146.324 619.52 146.324 646.544 146.324C647.526 146.324 648.507 146.347 649.483 146.279C655.906 145.836 660.769 142.763 663.265 136.89C664.476 134.046 664.829 130.67 664.88 127.529C665.003 119.749 659.849 113.394 652.237 111.633V111.616ZM508.928 29.4557C512.933 28.4236 513.763 27.1223 513.067 22.9829C511.929 16.1792 516.337 9.9757 523.236 8.68563C529.687 7.4797 536.031 11.8828 537.343 18.535C537.713 20.4196 538.319 22.0518 540.31 22.7361C542.391 23.4485 543.9 22.5005 545.381 21.132C549.784 17.0598 555.836 16.6616 560.822 20.0102C564.619 22.5622 567.048 21.6816 568.478 17.2225C570.632 10.5029 577.845 6.88515 584.425 9.23531C591.133 11.6247 594.409 19.0174 591.644 25.6584C590.948 27.3243 590.365 28.9172 591.397 30.6448C592.58 32.636 594.869 33.2642 597.23 32.0695C600.141 30.5943 603.119 29.9885 606.35 30.7177C612.593 32.1312 616.861 38.6151 615.717 44.8691C615.414 46.5182 614.803 47.124 612.991 47.1183C594.667 47.0342 576.337 47.0679 558.012 47.0679C539.688 47.0679 521.357 47.0342 503.033 47.124C501.249 47.1352 500.582 46.4789 500.133 44.9589C498.136 38.2169 502.074 31.2281 508.928 29.4557ZM473.95 111.01C474.124 110.253 474.242 109.591 474.427 108.946C478.909 93.5214 483.39 78.0967 487.883 62.672C489.431 57.3603 491.933 55.4982 497.463 55.4982C537.483 55.4982 577.503 55.4982 617.523 55.4982C622.958 55.4982 625.421 57.3042 626.991 62.5262C631.664 78.0406 636.319 93.5607 640.969 109.081C641.143 109.664 641.255 110.264 641.434 111.01H473.95Z" fill="#272626"/>
<path fill-rule="evenodd" clip-rule="evenodd" d="M559.156 66.0139C556.782 67.6099 555.945 72.8031 557.643 75.4038C559.461 78.1867 561.164 78.4712 563.363 76.3579C568.348 71.5664 564.603 62.3556 559.156 66.0139ZM570.485 68.9207C567.749 71.5489 567.185 76.0945 569.328 78.2415C571.646 80.5637 574.02 80.1214 576.147 76.9708C579.908 71.3979 575.068 64.5152 570.485 68.9207ZM548.318 73.8495C546.317 75.895 546.378 79.224 548.464 81.8504C550.508 84.4226 554.283 82.9122 555.032 79.2214C556.118 73.8732 551.73 70.3619 548.318 73.8495ZM577.643 79.3064C574.812 81.4196 574.293 86.0496 576.689 87.8073C580.391 90.523 585.408 85.6653 583.617 81.0978C582.464 78.1598 580.121 77.457 577.643 79.3064ZM559.556 80.5632C555.545 82.142 550.582 87.576 549.848 91.1926C549.538 92.7187 549.905 94.7069 550.698 95.7987C551.95 97.5201 552.579 97.6943 556.752 97.4697C560.415 97.2727 562.322 97.6386 565.693 99.1851C568.676 100.553 570.55 100.977 571.857 100.577C579.104 98.364 573.4 81.3428 564.853 79.6731C563.736 79.4547 561.352 79.8549 559.556 80.5632Z" fill="#E2168C"/>
<path d="M523.5 23.4317C525.732 23.3868 527.617 21.4854 527.639 19.253C527.667 16.8916 525.766 15.0294 523.365 15.0631C521.049 15.0967 519.265 16.8748 519.248 19.1801C519.232 21.5246 521.183 23.4765 523.5 23.4317Z" fill="#272626"/>
<path d="M580.403 43.4837C582.635 43.4389 584.52 41.5374 584.543 39.305C584.571 36.9437 582.663 35.0815 580.268 35.1151C577.952 35.1488 576.168 36.9268 576.151 39.2321C576.135 41.5767 578.087 43.5286 580.403 43.4837Z" fill="#272626"/>
<path d="M569.135 37.3756C571.367 37.3307 573.252 35.4293 573.274 33.1969C573.302 30.8355 571.395 28.9733 569 29.007C566.684 29.0406 564.9 30.8187 564.883 33.124C564.867 35.4685 566.819 37.4204 569.135 37.3756Z" fill="#272626"/>
<path d="M558.573 142.162C558.601 139.801 556.694 137.939 554.299 137.973C551.982 138.006 550.199 139.784 550.182 142.09C550.165 144.26 551.831 146.083 553.917 146.313C554.215 146.313 554.518 146.313 554.815 146.313C556.873 146.078 558.55 144.266 558.573 142.162Z" fill="#272626"/>
<path d="M694.499 129.02L694.499 129.017C694.55 124.908 691.077 121.438 686.338 121.501L694.499 129.02ZM694.499 129.02C694.459 132.654 691.391 136.004 687.449 136.5H687.446H687.442H687.438H687.433H687.429H687.424H687.42H687.416H687.411H687.407H687.403H687.398H687.394H687.389H687.385H687.381H687.376H687.372H687.368H687.363H687.359H687.354H687.35H687.346H687.341H687.337H687.333H687.328H687.324H687.319H687.315H687.311H687.306H687.302H687.298H687.293H687.289H687.284H687.28H687.276H687.271H687.267H687.263H687.258H687.254H687.249H687.245H687.241H687.236H687.232H687.227H687.223H687.219H687.214H687.21H687.206H687.201H687.197H687.192H687.188H687.184H687.179H687.175H687.17H687.166H687.162H687.157H687.153H687.149H687.144H687.14H687.135H687.131H687.127H687.122H687.118H687.113H687.109H687.105H687.1H687.096H687.092H687.087H687.083H687.078H687.074H687.07H687.065H687.061H687.056H687.052H687.048H687.043H687.039H687.034H687.03H687.026H687.021H687.017H687.013H687.008H687.004H686.999H686.995H686.991H686.986H686.982H686.977H686.973H686.969H686.964H686.96H686.955H686.951H686.947H686.942H686.938H686.933H686.929H686.925H686.92H686.916H686.912H686.907H686.903H686.898H686.894H686.89H686.885H686.881H686.876H686.872H686.868H686.863H686.859H686.854H686.85H686.846H686.841H686.837H686.832H686.828H686.824H686.819H686.815H686.81H686.806H686.802H686.797H686.793H686.788H686.784H686.78H686.775H686.771H686.766H686.762H686.758H686.753H686.749H686.744H686.74H686.736H686.731H686.727H686.722H686.718H686.714H686.709H686.705H686.7H686.696H686.692H686.687H686.683H686.678H686.674H686.67H686.665H686.661H686.656H686.652H686.648H686.643H686.639H686.635H686.63H686.626H686.621H686.617H686.613H686.608H686.604H686.599H686.595H686.591H686.586H686.582H686.577H686.573H686.569H686.564H686.56H686.555H686.551H686.547H686.542H686.538H686.533H686.529H686.525H686.52H686.516H686.511H686.507H686.503H686.498H686.494H686.489H686.485H686.481H686.476H686.472H686.467H686.463H686.459H686.454H686.45H686.445H686.441H686.437H686.432H686.428H686.423H686.419H686.415H686.41H686.406H686.401H686.397H686.393H686.388H686.384H686.379H686.375H686.371H686.366H686.362H686.357H686.353H686.349H686.344H686.34H686.335H686.331H686.327H686.322H686.318H686.313H686.309H686.305H686.3H686.296H686.291H686.287H686.283H686.278H686.274H686.269H686.265H686.261H686.256H686.252H686.247H686.243H686.239H686.234H686.23H686.225H686.221H686.217H686.212H686.208H686.203H686.199H686.195H686.19H686.186H686.181H686.177H686.173H686.168H686.164H686.159H686.155H686.151H686.146H686.142H686.137H686.133H686.129H686.124H686.12H686.115H686.111H686.107H686.102H686.098H686.093H686.089H686.085H686.08H686.076H686.071H686.067H686.063H686.058H686.054H686.049H686.045H686.041H686.036H686.032H686.028H686.023H686.019H686.014H686.01H686.006H686.001H685.997H685.992H685.988H685.984H685.979H685.975H685.97H685.966H685.962H685.957H685.953H685.948H685.944H685.94H685.935H685.931H685.926H685.922H685.918H685.913H685.909H685.905H685.9H685.896H685.891H685.887H685.883H685.878H685.874H685.869H685.865H685.861H685.856H685.852H685.847H685.843H685.839H685.834H685.83H685.826H685.821H685.817H685.812H685.808H685.804H685.799H685.795H685.79H685.786H685.782H685.777H685.773H685.769H685.764H685.76H685.755H685.751H685.747H685.742H685.738H685.733H685.729H685.725H685.72H685.716H685.712H685.707H685.703H685.698H685.694H685.69H685.685H685.681H685.677H685.672H685.668H685.663H685.659H685.655H685.65H685.646H685.641H685.637H685.633H685.628H685.624H685.62H685.615H685.611H685.606H685.602H685.598H685.593H685.589H685.585H685.58H685.576H685.571H685.567H685.563H685.558H685.554H685.55H685.545H685.541H685.536H685.532H685.528H685.523H685.519H685.515H685.51H685.506H685.502H685.497H685.493H685.489C681.509 136.019 678.47 132.676 678.5 128.893L678.5 128.892M694.499 129.02L678.5 128.892M678.5 128.892C678.531 124.839 681.782 121.565 686.337 121.501L678.5 128.892Z" fill="#F5F5F5" stroke="#272626" stroke-width="5"/>
<path d="M681.499 129.519L681.499 129.516C681.546 125.573 678.405 122.444 674.359 122.501L681.499 129.519ZM681.499 129.519C681.463 132.993 678.698 136.044 675.335 136.5H675.332H675.328H675.325H675.321H675.317H675.313H675.309H675.305H675.301H675.297H675.293H675.289H675.285H675.281H675.277H675.273H675.269H675.265H675.261H675.257H675.253H675.249H675.245H675.241H675.237H675.233H675.23H675.226H675.222H675.218H675.214H675.21H675.206H675.202H675.198H675.194H675.19H675.186H675.182H675.178H675.174H675.17H675.166H675.162H675.158H675.154H675.15H675.146H675.142H675.138H675.134H675.13H675.126H675.123H675.119H675.115H675.111H675.107H675.103H675.099H675.095H675.091H675.087H675.083H675.079H675.075H675.071H675.067H675.063H675.059H675.055H675.051H675.047H675.043H675.039H675.035H675.031H675.027H675.023H675.019H675.015H675.011H675.007H675.003H674.999H674.996H674.992H674.988H674.984H674.98H674.976H674.972H674.968H674.964H674.96H674.956H674.952H674.948H674.944H674.94H674.936H674.932H674.928H674.924H674.92H674.916H674.912H674.908H674.904H674.9H674.896H674.892H674.888H674.884H674.88H674.876H674.872H674.868H674.864H674.86H674.856H674.852H674.848H674.844H674.841H674.837H674.833H674.829H674.825H674.821H674.817H674.813H674.809H674.805H674.801H674.797H674.793H674.789H674.785H674.781H674.777H674.773H674.769H674.765H674.761H674.757H674.753H674.749H674.745H674.741H674.737H674.733H674.729H674.725H674.721H674.717H674.713H674.709H674.705H674.701H674.697H674.693H674.689H674.685H674.681H674.677H674.673H674.669H674.665H674.661H674.658H674.654H674.65H674.646H674.642H674.638H674.634H674.63H674.626H674.622H674.618H674.614H674.61H674.606H674.602H674.598H674.594H674.59H674.586H674.582H674.578H674.574H674.57H674.566H674.562H674.558H674.554H674.55H674.546H674.542H674.538H674.534H674.53H674.526H674.522H674.518H674.514H674.51H674.506H674.502H674.498H674.494H674.49H674.486H674.482H674.478H674.474H674.47H674.466H674.462H674.458H674.454H674.451H674.447H674.443H674.439H674.435H674.431H674.427H674.423H674.419H674.415H674.411H674.407H674.403H674.399H674.395H674.391H674.387H674.383H674.379H674.375H674.371H674.367H674.363H674.359H674.355H674.351H674.347H674.343H674.339H674.335H674.331H674.327H674.323H674.319H674.315H674.311H674.307H674.303H674.299H674.295H674.291H674.287H674.283H674.279H674.275H674.271H674.267H674.263H674.259H674.255H674.251H674.248H674.244H674.24H674.236H674.232H674.228H674.224H674.22H674.216H674.212H674.208H674.204H674.2H674.196H674.192H674.188H674.184H674.18H674.176H674.172H674.168H674.164H674.16H674.156H674.152H674.148H674.144H674.14H674.136H674.132H674.128H674.124H674.12H674.116H674.112H674.108H674.104H674.1H674.096H674.092H674.088H674.084H674.08H674.076H674.073H674.069H674.065H674.061H674.057H674.053H674.049H674.045H674.041H674.037H674.033H674.029H674.025H674.021H674.017H674.013H674.009H674.005H674.001H673.997H673.993H673.989H673.985H673.981H673.977H673.973H673.969H673.965H673.961H673.957H673.953H673.949H673.945H673.941H673.937H673.933H673.929H673.926H673.922H673.918H673.914H673.91H673.906H673.902H673.898H673.894H673.89H673.886H673.882H673.878H673.874H673.87H673.866H673.862H673.858H673.854H673.85H673.846H673.842H673.838H673.834H673.83H673.826H673.822H673.818H673.814H673.81H673.806H673.803H673.799H673.795H673.791H673.787H673.783H673.779H673.775H673.771H673.767H673.763H673.759H673.755H673.751H673.747H673.743H673.739H673.735H673.731H673.727H673.723H673.719H673.715H673.711H673.707H673.703H673.699H673.696H673.692H673.688H673.684H673.68H673.676H673.672H673.668H673.664H673.66H673.656H673.652H673.648H673.644H673.64H673.636H673.632H673.628H673.624H673.62H673.616H673.612H673.608H673.608C670.216 136.058 667.472 133.018 667.5 129.398L667.5 129.397M681.499 129.519L667.5 129.397M667.5 129.397C667.528 125.511 670.467 122.558 674.357 122.501L667.5 129.397Z" fill="#F5F5F5" stroke="#272626" stroke-width="5"/>
</svg>
