<svg width="1058" height="149" viewBox="0 0 1058 149" fill="none" xmlns="http://www.w3.org/2000/svg">
<path d="M659 88.0721C659.346 85.4878 659.615 82.8931 660.056 80.3228C664.658 53.4694 686.011 31.5782 712.675 26.4306C713.721 26.2278 715.06 26.5425 716.022 27.0601C732.182 35.7501 748.303 44.5101 764.434 53.2526C771.523 57.0958 778.601 60.9564 785.71 64.7612C787.14 65.527 788.088 66.5656 788.616 68.1043C797.883 95.1675 792.634 119.066 773.005 139.835C772.764 140.086 772.512 140.328 772.275 140.583C772.226 140.635 772.222 140.73 772.166 140.919C772.61 140.94 773.023 140.975 773.436 140.975C778.412 140.978 783.384 140.975 788.361 140.978C791.025 140.978 792.798 142.555 792.798 144.902C792.798 147.259 791.046 148.829 788.371 148.829C746.743 148.829 705.115 148.822 663.487 148.853C661.259 148.853 659.93 147.783 659.003 145.94V143.846C660.063 141.597 661.85 140.873 664.287 140.936C669.082 141.062 673.883 140.975 678.681 140.975H680.136C679.692 140.509 679.489 140.282 679.276 140.069C668.963 129.9 662.521 117.692 660.032 103.417C659.605 101.021 659.336 98.598 659 96.1886C659 93.4819 659 90.7753 659 88.0721ZM668.704 77.7105C668.582 78.0357 668.501 78.1896 668.463 78.354C667.075 84.3898 666.487 90.485 667.068 96.6712C668.781 114.912 676.996 129.473 691.816 140.265C692.393 140.684 693.232 140.947 693.952 140.947C715.333 140.982 736.714 140.982 758.094 140.947C758.853 140.947 759.745 140.667 760.346 140.212C779.094 125.986 787.189 107.155 784.587 83.7568C784.364 81.746 783.85 79.7702 783.451 77.6616C782.566 77.9168 781.891 78.0742 781.244 78.305C775.338 80.4102 769.372 80.6969 763.427 78.6127C758.689 76.9517 754.087 77.0601 749.362 78.6967C744.057 80.5326 738.623 80.5676 733.308 78.7176C728.405 77.0076 723.649 77.0146 718.736 78.7281C713.483 80.5606 708.073 80.5641 702.807 78.7211C697.904 77.0041 693.127 76.9552 688.238 78.7316C683.958 80.2878 679.51 80.3612 675.076 79.473C672.956 79.0499 670.897 78.3295 668.708 77.714L668.704 77.7105ZM779.601 70.4857C779.223 70.2514 778.989 70.0906 778.737 69.9542C757.129 58.2358 735.525 46.5173 713.899 34.8304C713.392 34.5576 712.637 34.4702 712.077 34.6101C694.26 39.1562 681.223 49.6856 672.89 66.0585C672.226 67.3629 671.677 68.7267 671.051 70.1185C672.17 70.4752 673.128 70.7585 674.072 71.0837C678.174 72.5 682.279 72.5315 686.378 71.0907C692.396 68.9785 698.418 68.9191 704.447 71.0452C708.724 72.5525 712.99 72.493 717.26 70.9963C723.019 68.975 728.765 69.0729 734.591 70.8704C736.847 71.5663 739.263 71.944 741.62 72.0384C743.445 72.1083 745.39 71.7691 747.121 71.1606C753.475 68.9366 759.738 68.996 766.074 71.2201C770.582 72.8007 775.062 72.3671 779.594 70.4892L779.601 70.4857Z" fill="#272626"/>
<path d="M711.427 113.205C713.48 111.789 715.421 110.306 717.501 109.047C722.922 105.763 728.751 103.914 735.175 104.567C740.879 105.148 745.918 107.47 750.499 110.792C752.573 112.296 754.524 113.995 756.388 115.761C758.133 117.412 758.178 119.699 756.528 121.364C751.177 126.766 744.998 130.788 737.434 132.348C730.632 133.75 724.359 132.113 718.47 128.767C716.053 127.396 713.815 125.714 711.441 124.137C710.179 124.962 708.832 125.913 707.412 126.745C704.09 128.693 700.537 129.924 696.645 129.973C694.082 130.005 692.438 128.452 692.414 125.871C692.372 121.073 692.375 116.272 692.414 111.474C692.435 108.729 694.197 107.141 696.956 107.271C702.017 107.512 706.391 109.544 710.42 112.46C710.773 112.715 711.116 112.978 711.423 113.205H711.427ZM731.727 124.958V112.31C726.209 112.771 721.743 115.293 717.442 118.643C721.754 121.996 726.233 124.5 731.727 124.958ZM739.781 113.457V123.787C742.666 122.042 745.278 120.461 747.894 118.881C747.89 118.702 747.883 118.524 747.88 118.349C745.264 116.768 742.648 115.188 739.781 113.457ZM700.331 121.598C702.181 120.598 703.828 119.706 705.846 118.615C703.804 117.531 702.156 116.657 700.331 115.688V121.601V121.598Z" fill="#272626"/>
<path d="M762.665 110.397C756.241 110.397 751.002 105.204 750.957 98.7939C750.908 92.3734 756.223 87.037 762.665 87.037C769.124 87.037 774.436 92.3734 774.366 98.7939C774.299 105.242 769.099 110.4 762.665 110.4V110.397ZM766.512 98.7589C766.532 96.6922 764.77 94.9087 762.693 94.8912C760.623 94.8737 758.832 96.6292 758.804 98.696C758.78 100.777 760.518 102.525 762.626 102.543C764.749 102.56 766.487 100.868 766.508 98.7589H766.512Z" fill="#272626"/>
<path d="M779.764 48.3506C773.34 48.3506 768.101 43.1576 768.056 36.7476C768.007 30.3271 773.322 24.9907 779.764 24.9907C786.223 24.9907 791.534 30.3271 791.464 36.7476C791.398 43.1961 786.198 48.3541 779.764 48.3541V48.3506ZM783.61 36.7126C783.631 34.6459 781.869 32.8625 779.792 32.845C777.721 32.8275 775.931 34.583 775.903 36.6497C775.878 38.7304 777.616 40.4789 779.725 40.4964C781.848 40.5139 783.586 38.8213 783.607 36.7126H783.61Z" fill="#272626"/>
<path d="M737.763 93.863C735.605 93.8385 733.86 92.0516 733.902 89.9114C733.944 87.7853 735.79 85.9983 737.892 86.0472C740.05 86.0997 741.763 87.8762 741.735 90.0338C741.707 92.1985 739.952 93.891 737.766 93.863H737.763Z" fill="#272626"/>
<path d="M793.861 25.8168C791.704 25.7923 789.959 24.0053 790.001 21.8652C790.043 19.739 791.889 17.952 793.991 18.001C796.148 18.0534 797.862 19.8299 797.834 21.9876C797.806 24.1522 796.051 25.8447 793.865 25.8168H793.861Z" fill="#272626"/>
<path d="M786.407 12.9994C782.827 12.9587 779.932 9.98697 780.001 6.42784C780.071 2.89197 783.135 -0.0797836 786.622 0.00163431C790.203 0.0888678 793.046 3.04318 792.999 6.63139C792.953 10.2312 790.04 13.046 786.413 12.9994H786.407Z" fill="#272626"/>
<rect width="676" height="8" rx="4" transform="matrix(-1 0 0 1 676 141)" fill="#272626"/>
<rect width="258" height="8" rx="4" transform="matrix(-1 0 0 1 1058 141)" fill="#272626"/>
</svg>
